{
.appVersion = "1056";
customParameters = (
{
name = "Disable Subroutines";
value = 1;
}
);
date = "2018-10-03 14:49:26 +0000";
designer = "Mael Sinic & Alexandre Texier";
familyName = "Phototype-B";
featurePrefixes = (
{
automatic = 1;
code = "languagesystem DFLT dflt;\012";
name = Languagesystems;
}
);
features = (
{
automatic = 1;
code = "feature frac;\012";
name = aalt;
},
{
automatic = 1;
code = "sub one slash eight by oneeighth;\012sub one slash four by onequarter;\012sub three slash eight by threeeighths;\012sub one slash two by onehalf;\012sub five slash eight by fiveeighths;\012sub three slash four by threequarters;\012sub seven slash eight by seveneighths;\012sub one slash three by onethird;\012sub two slash three by twothirds;\012sub one slash five by onefifth;\012sub two slash five by twofifths;\012sub three slash five by threefifths;\012sub four slash five by fourfifths;\012sub one slash six by onesixth;\012sub five slash six by fivesixths;\012sub zero slash three by zerothird;\012sub one slash by onefraction;\012";
name = frac;
},
{
automatic = 1;
code = "sub f l by f_l;\012";
name = dlig;
},
{
automatic = 1;
code = "sub C a n o n by C_a_n_o_n.liga;\012sub f f l by f_f_l;\012sub f f by f_f;\012sub s t by s_t.liga;\012";
name = liga;
}
);
fontMaster = (
{
ascender = 800;
capHeight = 700;
customParameters = (
{
name = "Color Palettes";
value = (
(
"255,0,0,255",
"0,150,57,255",
"39,166,237,255",
"255,205,0,255"
)
);
}
);
descender = -200;
guideLines = (
{
locked = 1;
position = "{0, 465}";
},
{
locked = 1;
position = "{0, 250}";
},
{
locked = 1;
position = "{0, 35}";
},
{
locked = 1;
position = "{0, 665}";
},
{
angle = 90;
locked = 1;
position = "{35, 700}";
},
{
locked = 1;
position = "{0, -165}";
}
);
id = "E2083702-67E7-471D-AE09-DB685EF5235E";
visible = 1;
xHeight = 500;
}
);
glyphs = (
{
color = 3;
glyphname = A;
lastChange = "2018-11-22 12:27:48 +0000";
layers = (
{
layerId = "E2083702-67E7-471D-AE09-DB685EF5235E";
paths = (
{
closed = 1;
nodes = (
"80 0 OFFCURVE",
"93 10 OFFCURVE",
"98 24 CURVE SMOOTH",
"168 215 LINE",
"422 215 LINE",
"492 24 LINE SMOOTH",
"497 10 OFFCURVE",
"510 0 OFFCURVE",
"525 0 CURVE SMOOTH",
"544 0 OFFCURVE",
"560 16 OFFCURVE",
"560 35 CURVE SMOOTH",
"560 39 OFFCURVE",
"559 44 OFFCURVE",
"558 48 CURVE SMOOTH",
"338 649 LINE SMOOTH",
"331 668 OFFCURVE",
"318 677 OFFCURVE",
"298 677 CURVE SMOOTH",
"292 677 LINE SMOOTH",
"272 677 OFFCURVE",
"259 668 OFFCURVE",
"252 649 CURVE SMOOTH",
"32 48 LINE SMOOTH",
"31 44 OFFCURVE",
"30 39 OFFCURVE",
"30 35 CURVE SMOOTH",
"30 16 OFFCURVE",
"46 0 OFFCURVE",
"65 0 CURVE SMOOTH"
);
},
{
closed = 1;
nodes = (
"295 563 LINE",
"396 285 LINE",
"194 285 LINE"
);
}
);
width = 590;
},
{
associatedMasterId = "E2083702-67E7-471D-AE09-DB685EF5235E";
layerId = "A8185D96-F11A-4DCF-B901-57D1B74323C9";
name = "Nov 13 18, 15:08";
paths = (
{
closed = 0;
nodes = (
"233 700 LINE",
"460 700 LINE",
"460 0 LINE"
);
},
{
closed = 0;
nodes = (
"5 6 LINE",
"460 700 LINE"
);
},
{
closed = 0;
nodes = (
"210 320 LINE",
"460 320 LINE"
);
}
);
width = 600;
},
{
associatedMasterId = "E2083702-67E7-471D-AE09-DB685EF5235E";
layerId = "B7204A27-DC2F-4D0A-9BEA-FF53830508FA";
name = "Nov 13 18, 15:09";
paths = (
{
closed = 0;
nodes = (
"40 35 LINE",
"250 665 LINE",
"460 35 LINE"
);
},
{
closed = 0;
nodes = (
"113 250 LINE",
"387 250 LINE"
);
}
);
width = 600;
},
{
associatedMasterId = "E2083702-67E7-471D-AE09-DB685EF5235E";
layerId = "B8B0CF55-516C-47DA-B477-00E4843E72D1";
name = "Nov 21 18, 17:01";
paths = (
{
closed = 0;
nodes = (
"20 35 LINE",
"250 665 LINE",
"480 35 LINE"
);
},
{
closed = 0;
nodes = (
"103 250 LINE",
"397 250 LINE"
);
}
);
width = 600;
}
);
unicode = 0041;
},
{
glyphname = AE;
lastChange = "2019-01-25 15:45:46 +0000";
layers = (
{
layerId = "E2083702-67E7-471D-AE09-DB685EF5235E";
paths = (
{
closed = 1;
nodes = (
"78 0 OFFCURVE",
"90 7 OFFCURVE",
"96 18 CURVE SMOOTH",
"209 215 LINE",
"394 215 LINE",
"394 60 LINE SMOOTH",
"394 42 OFFCURVE",
"399 30 OFFCURVE",
"412 18 CURVE SMOOTH",
"424 5 OFFCURVE",
"436 0 OFFCURVE",
"454 0 CURVE SMOOTH",
"779 0 LINE SMOOTH",
"798 0 OFFCURVE",
"814 16 OFFCURVE",
"814 35 CURVE SMOOTH",
"814 54 OFFCURVE",
"798 70 OFFCURVE",
"779 70 CURVE SMOOTH",
"464 70 LINE",
"464 315 LINE",
"699 315 LINE SMOOTH",
"718 315 OFFCURVE",
"734 331 OFFCURVE",
"734 350 CURVE SMOOTH",
"734 369 OFFCURVE",
"718 385 OFFCURVE",
"699 385 CURVE SMOOTH",
"464 385 LINE",
"464 630 LINE",
"779 630 LINE SMOOTH",
"798 630 OFFCURVE",
"814 646 OFFCURVE",
"814 665 CURVE SMOOTH",
"814 684 OFFCURVE",
"798 700 OFFCURVE",
"779 700 CURVE SMOOTH",
"452 700 LINE SMOOTH",
"435 700 OFFCURVE",
"425 698 OFFCURVE",
"414 691 CURVE SMOOTH",
"403 685 OFFCURVE",
"395 677 OFFCURVE",
"387 662 CURVE SMOOTH",
"35 53 LINE SMOOTH",
"32 48 OFFCURVE",
"30 42 OFFCURVE",
"30 35 CURVE SMOOTH",
"30 16 OFFCURVE",
"46 0 OFFCURVE",
"65 0 CURVE SMOOTH"
);
},
{
closed = 1;
nodes = (
"394 534 LINE",
"394 285 LINE",
"250 285 LINE"
);
}
);
width = 844;
},
{
associatedMasterId = "E2083702-67E7-471D-AE09-DB685EF5235E";
layerId = "FF117500-2F33-4285-ABDE-96AB446282AF";
name = "Dec 13 18, 10:50";
paths = (
{
closed = 0;
nodes = (
"20 35 LINE",
"384 665 LINE",
"734 665 LINE"
);
},
{
closed = 0;
nodes = (
"153 250 LINE",
"384 250 LINE"
);
},
{
closed = 0;
nodes = (
"384 665 LINE",
"384 35 LINE",
"734 35 LINE"
);
},
{
closed = 0;
nodes = (
"654 350 LINE",
"384 350 LINE"
);
}
);
width = 600;
}
);
unicode = 00C6;
},
{
color = 3;
glyphname = B;
lastChange = "2019-01-25 15:45:46 +0000";
layers = (
{
layerId = "E2083702-67E7-471D-AE09-DB685EF5235E";
paths = (
{
closed = 1;
nodes = (
"209 0 LINE SMOOTH",
"434 0 OFFCURVE",
"532 57 OFFCURVE",
"532 196 CURVE SMOOTH",
"532 278 OFFCURVE",
"499 330 OFFCURVE",
"423 358 CURVE",
"478 390 OFFCURVE",
"505 441 OFFCURVE",
"505 512 CURVE SMOOTH",
"505 644 OFFCURVE",
"412 700 OFFCURVE",
"209 700 CURVE SMOOTH",
"90 700 LINE SMOOTH",
"72 700 OFFCURVE",
"60 695 OFFCURVE",
"48 683 CURVE SMOOTH",
"35 670 OFFCURVE",
"30 658 OFFCURVE",
"30 640 CURVE SMOOTH",
"30 60 LINE SMOOTH",
"30 42 OFFCURVE",
"35 30 OFFCURVE",
"48 18 CURVE SMOOTH",
"60 5 OFFCURVE",
"72 0 OFFCURVE",
"90 0 CURVE SMOOTH"
);
},
{
closed = 1;
nodes = (
"100 315 LINE",
"213 315 LINE SMOOTH",
"404 315 OFFCURVE",
"462 284 OFFCURVE",
"462 196 CURVE SMOOTH",
"462 105 OFFCURVE",
"399 70 OFFCURVE",
"209 70 CURVE SMOOTH",
"100 70 LINE"
);
},
{
closed = 1;
nodes = (
"100 630 LINE",
"209 630 LINE SMOOTH",
"376 630 OFFCURVE",
"435 597 OFFCURVE",
"435 512 CURVE SMOOTH",
"435 424 OFFCURVE",
"371 385 OFFCURVE",
"209 385 CURVE SMOOTH",
"100 385 LINE"
);
}
);
width = 562;
},
{
associatedMasterId = "E2083702-67E7-471D-AE09-DB685EF5235E";
layerId = "45508ED9-614E-4FE5-B21F-AB96C8B036E2";
name = "Nov 13 18, 21:49";
paths = (
{
closed = 0;
nodes = (
"0 350 LINE",
"180 350 LINE SMOOTH",
"370 350 OFFCURVE",
"470 400 OFFCURVE",
"470 530 CURVE SMOOTH",
"470 660 OFFCURVE",
"370 700 OFFCURVE",
"180 700 CURVE",
"0 700 LINE",
"0 0 LINE",
"180 0 LINE",
"400 0 OFFCURVE",
"500 44 OFFCURVE",
"500 179 CURVE SMOOTH",
"500 314 OFFCURVE",
"400 350 OFFCURVE",
"184 350 CURVE SMOOTH"
);
}
);
width = 600;
},
{
associatedMasterId = "E2083702-67E7-471D-AE09-DB685EF5235E";
layerId = "4B0B95A9-0110-4A5D-BA3B-974A868FEC50";
name = "Nov 22 18, 13:37";
paths = (
{
closed = 0;
nodes = (
"24 350 LINE",
"168 350 LINE SMOOTH",
"339 350 OFFCURVE",
"429 395 OFFCURVE",
"429 512 CURVE SMOOTH",
"429 629 OFFCURVE",
"339 665 OFFCURVE",
"168 665 CURVE",
"24 665 LINE",
"24 35 LINE",
"168 35 LINE",
"366 35 OFFCURVE",
"456 75 OFFCURVE",
"456 196 CURVE SMOOTH",
"456 317 OFFCURVE",
"366 350 OFFCURVE",
"172 350 CURVE SMOOTH"
);
}
);
width = 600;
}
);
unicode = 0042;
},
{
color = 3;
glyphname = C;
lastChange = "2019-01-25 15:45:45 +0000";
layers = (
{
layerId = "E2083702-67E7-471D-AE09-DB685EF5235E";
paths = (
{
closed = 1;
nodes = (
"551 0 OFFCURVE",
"674 50 OFFCURVE",
"740 139 CURVE SMOOTH",
"744 145 OFFCURVE",
"747 152 OFFCURVE",
"747 160 CURVE SMOOTH",
"747 179 OFFCURVE",
"731 195 OFFCURVE",
"712 195 CURVE SMOOTH",
"700 195 OFFCURVE",
"690 189 OFFCURVE",
"684 181 CURVE SMOOTH",
"631 110 OFFCURVE",
"530 70 OFFCURVE",
"405 70 CURVE SMOOTH",
"232 70 OFFCURVE",
"100 192 OFFCURVE",
"100 350 CURVE SMOOTH",
"100 508 OFFCURVE",
"232 630 OFFCURVE",
"405 630 CURVE SMOOTH",
"530 630 OFFCURVE",
"631 590 OFFCURVE",
"684 519 CURVE SMOOTH",
"690 511 OFFCURVE",
"700 505 OFFCURVE",
"712 505 CURVE SMOOTH",
"731 505 OFFCURVE",
"747 521 OFFCURVE",
"747 540 CURVE SMOOTH",
"747 548 OFFCURVE",
"744 555 OFFCURVE",
"740 561 CURVE SMOOTH",
"674 650 OFFCURVE",
"551 700 OFFCURVE",
"405 700 CURVE SMOOTH",
"194 700 OFFCURVE",
"30 548 OFFCURVE",
"30 350 CURVE SMOOTH",
"30 152 OFFCURVE",
"194 0 OFFCURVE",
"405 0 CURVE SMOOTH"
);
}
);
width = 777;
},
{
associatedMasterId = "E2083702-67E7-471D-AE09-DB685EF5235E";
layerId = "6319C484-A985-4931-820A-9B9F86B3CBCA";
name = "Dec 13 18, 17:29";
paths = (
{
closed = 0;
nodes = (
"697 160 LINE",
"644 89 OFFCURVE",
"540 35 OFFCURVE",
"390 35 CURVE SMOOTH",
"200 35 OFFCURVE",
"50 170 OFFCURVE",
"50 350 CURVE SMOOTH",
"50 530 OFFCURVE",
"200 665 OFFCURVE",
"390 665 CURVE SMOOTH",
"540 665 OFFCURVE",
"644 611 OFFCURVE",
"697 540 CURVE"
);
}
);
width = 600;
}
);
unicode = 0043;
},
{
color = 3;
glyphname = D;
lastChange = "2019-01-25 15:45:45 +0000";
layers = (
{
layerId = "E2083702-67E7-471D-AE09-DB685EF5235E";
paths = (
{
closed = 1;
nodes = (
"185 0 LINE SMOOTH",
"449 0 OFFCURVE",
"586 118 OFFCURVE",
"586 350 CURVE SMOOTH",
"586 582 OFFCURVE",
"449 700 OFFCURVE",
"185 700 CURVE SMOOTH",
"65 700 LINE",
"65 700 LINE SMOOTH",
"46 700 OFFCURVE",
"30 684 OFFCURVE",
"30 665 CURVE SMOOTH",
"30 35 LINE",
"30 35 LINE SMOOTH",
"30 16 OFFCURVE",
"46 0 OFFCURVE",
"65 0 CURVE SMOOTH",
"65 0 LINE"
);
},
{
closed = 1;
nodes = (
"100 630 LINE",
"185 630 LINE SMOOTH",
"411 630 OFFCURVE",
"516 541 OFFCURVE",
"516 350 CURVE SMOOTH",
"516 159 OFFCURVE",
"411 70 OFFCURVE",
"185 70 CURVE SMOOTH",
"100 70 LINE"
);
}
);
width = 616;
},
{
associatedMasterId = "E2083702-67E7-471D-AE09-DB685EF5235E";
layerId = "6D4DD2B5-B371-40D3-9D81-F05B9E1D2137";
name = "Nov 13 18, 21:44";
paths = (
{
closed = 1;
nodes = (
"35 665 LINE",
"155 665 LINE",
"363 665 OFFCURVE",
"601 611 OFFCURVE",
"601 350 CURVE SMOOTH",
"601 89 OFFCURVE",
"363 35 OFFCURVE",
"155 35 CURVE SMOOTH",
"35 35 LINE"
);
}
);
width = 600;
},
{
associatedMasterId = "E2083702-67E7-471D-AE09-DB685EF5235E";
layerId = "853A3F3E-5114-4F75-A08F-27812451C703";
name = "Nov 21 18, 17:04";
paths = (
{
closed = 1;
nodes = (
"35 665 LINE",
"155 665 LINE",
"363 665 OFFCURVE",
"521 591 OFFCURVE",
"521 350 CURVE SMOOTH",
"521 109 OFFCURVE",
"363 35 OFFCURVE",
"155 35 CURVE SMOOTH",
"35 35 LINE"
);
}
);
width = 600;
}
);
unicode = 0044;
},
{
color = 3;
glyphname = E;
lastChange = "2019-01-25 15:45:45 +0000";
layers = (
{
layerId = "E2083702-67E7-471D-AE09-DB685EF5235E";
paths = (
{
closed = 1;
nodes = (
"46 700 OFFCURVE",
"30 684 OFFCURVE",
"30 665 CURVE SMOOTH",
"30 35 LINE SMOOTH",
"30 16 OFFCURVE",
"46 0 OFFCURVE",
"65 0 CURVE SMOOTH",
"415 0 LINE SMOOTH",
"434 0 OFFCURVE",
"450 16 OFFCURVE",
"450 35 CURVE SMOOTH",
"450 54 OFFCURVE",
"434 70 OFFCURVE",
"415 70 CURVE SMOOTH",
"100 70 LINE",
"100 315 LINE",
"335 315 LINE SMOOTH",
"354 315 OFFCURVE",
"370 331 OFFCURVE",
"370 350 CURVE SMOOTH",
"370 369 OFFCURVE",
"354 385 OFFCURVE",
"335 385 CURVE SMOOTH",
"100 385 LINE",
"100 630 LINE",
"415 630 LINE SMOOTH",
"434 630 OFFCURVE",
"450 646 OFFCURVE",
"450 665 CURVE SMOOTH",
"450 684 OFFCURVE",
"434 700 OFFCURVE",
"415 700 CURVE SMOOTH",
"65 700 LINE SMOOTH"
);
}
);
width = 480;
},
{
associatedMasterId = "E2083702-67E7-471D-AE09-DB685EF5235E";
layerId = "9378D0BF-9129-47E4-84F2-819C0D971155";
name = "Nov 13 18, 14:19";
paths = (
{
closed = 0;
nodes = (
"430 665 LINE",
"80 665 LINE",
"80 35 LINE",
"430 35 LINE"
);
},
{
closed = 0;
nodes = (
"350 350 LINE",
"80 350 LINE"
);
}
);
width = 600;
}
);
unicode = 0045;
},
{
color = 3;
glyphname = F;
lastChange = "2019-01-25 15:45:45 +0000";
layers = (
{
layerId = "E2083702-67E7-471D-AE09-DB685EF5235E";
paths = (
{
closed = 1;
nodes = (
"30 35 LINE SMOOTH",
"30 16 OFFCURVE",
"46 0 OFFCURVE",
"65 0 CURVE SMOOTH",
"84 0 OFFCURVE",
"100 16 OFFCURVE",
"100 35 CURVE SMOOTH",
"100 315 LINE",
"335 315 LINE SMOOTH",
"354 315 OFFCURVE",
"370 331 OFFCURVE",
"370 350 CURVE SMOOTH",
"370 369 OFFCURVE",
"354 385 OFFCURVE",
"335 385 CURVE SMOOTH",
"100 385 LINE",
"100 630 LINE",
"415 630 LINE SMOOTH",
"434 630 OFFCURVE",
"450 646 OFFCURVE",
"450 665 CURVE SMOOTH",
"450 684 OFFCURVE",
"434 700 OFFCURVE",
"415 700 CURVE SMOOTH",
"65 700 LINE SMOOTH",
"46 700 OFFCURVE",
"30 684 OFFCURVE",
"30 665 CURVE SMOOTH"
);
}
);
width = 480;
},
{
associatedMasterId = "E2083702-67E7-471D-AE09-DB685EF5235E";
layerId = "9AC23CB4-70E3-461D-B8B2-DECB75ABED2C";
name = "Nov 13 18, 14:20";
paths = (
{
closed = 0;
nodes = (
"80 0 LINE",
"80 700 LINE",
"500 700 LINE",
"288 547 LINE"
);
},
{
closed = 0;
nodes = (
"450 350 LINE",
"80 350 LINE"
);
}
);
width = 600;
},
{
associatedMasterId = "E2083702-67E7-471D-AE09-DB685EF5235E";
layerId = "EB3E7163-1D7D-45B8-829B-5319FD4778D2";
name = "Nov 13 18, 15:06";
paths = (
{
closed = 0;
nodes = (
"450 700 LINE",
"80 700 LINE",
"80 0 LINE"
);
},
{
closed = 0;
nodes = (
"400 350 LINE",
"80 350 LINE"
);
}
);
width = 600;
},
{
associatedMasterId = "E2083702-67E7-471D-AE09-DB685EF5235E";
layerId = "F08D4385-D5C8-4B7E-A184-89616EA36CC8";
name = "Nov 21 18, 17:07";
paths = (
{
closed = 0;
nodes = (
"430 665 LINE",
"80 665 LINE",
"80 35 LINE"
);
},
{
closed = 0;
nodes = (
"350 350 LINE",
"80 350 LINE"
);
}
);
width = 600;
}
);
unicode = 0046;
},
{
glyphname = G;
lastChange = "2019-01-25 15:45:46 +0000";
layers = (
{
layerId = "E2083702-67E7-471D-AE09-DB685EF5235E";
paths = (
{
closed = 1;
nodes = (
"520 0 OFFCURVE",
"647 105 OFFCURVE",
"682 260 CURVE SMOOTH",
"686 278 OFFCURVE",
"682 292 OFFCURVE",
"670 306 CURVE SMOOTH",
"657 320 OFFCURVE",
"644 326 OFFCURVE",
"626 326 CURVE SMOOTH",
"318 326 LINE SMOOTH",
"299 326 OFFCURVE",
"283 310 OFFCURVE",
"283 291 CURVE SMOOTH",
"283 272 OFFCURVE",
"299 256 OFFCURVE",
"318 256 CURVE SMOOTH",
"609 256 LINE",
"576 143 OFFCURVE",
"481 70 OFFCURVE",
"362 70 CURVE SMOOTH",
"209 70 OFFCURVE",
"100 185 OFFCURVE",
"100 350 CURVE SMOOTH",
"100 515 OFFCURVE",
"209 630 OFFCURVE",
"362 630 CURVE SMOOTH",
"449 630 OFFCURVE",
"526 590 OFFCURVE",
"573 520 CURVE SMOOTH",
"579 510 OFFCURVE",
"590 504 OFFCURVE",
"602 504 CURVE SMOOTH",
"621 504 OFFCURVE",
"637 520 OFFCURVE",
"637 539 CURVE SMOOTH",
"637 546 OFFCURVE",
"635 553 OFFCURVE",
"631 559 CURVE SMOOTH",
"572 648 OFFCURVE",
"472 700 OFFCURVE",
"362 700 CURVE SMOOTH",
"170 700 OFFCURVE",
"30 553 OFFCURVE",
"30 350 CURVE SMOOTH",
"30 147 OFFCURVE",
"170 0 OFFCURVE",
"362 0 CURVE SMOOTH"
);
}
);
width = 713;
},
{
associatedMasterId = "E2083702-67E7-471D-AE09-DB685EF5235E";
layerId = "74436AAF-870E-4EE2-9F1F-5119A784B814";
name = "Dec 13 18, 11:46";
paths = (
{
closed = 0;
nodes = (
"488 539 LINE",
"435 619 OFFCURVE",
"346 665 OFFCURVE",
"248 665 CURVE SMOOTH",
"85 665 OFFCURVE",
"-49 544 OFFCURVE",
"-49 350 CURVE SMOOTH",
"-49 156 OFFCURVE",
"85 35 OFFCURVE",
"248 35 CURVE SMOOTH",
"391 35 OFFCURVE",
"514 132 OFFCURVE",
"538 291 CURVE",
"204 291 LINE"
);
}
);
visible = 1;
width = 600;
}
);
unicode = 0047;
},
{
color = 3;
glyphname = H;
lastChange = "2019-01-25 15:45:45 +0000";
layers = (
{
layerId = "E2083702-67E7-471D-AE09-DB685EF5235E";
paths = (
{
closed = 1;
nodes = (
"84 0 OFFCURVE",
"100 16 OFFCURVE",
"100 35 CURVE SMOOTH",
"100 315 LINE",
"380 315 LINE",
"380 35 LINE SMOOTH",
"380 16 OFFCURVE",
"396 0 OFFCURVE",
"415 0 CURVE SMOOTH",
"434 0 OFFCURVE",
"450 16 OFFCURVE",
"450 35 CURVE SMOOTH",
"450 665 LINE SMOOTH",
"450 684 OFFCURVE",
"434 700 OFFCURVE",
"415 700 CURVE SMOOTH",
"396 700 OFFCURVE",
"380 684 OFFCURVE",
"380 665 CURVE SMOOTH",
"380 385 LINE",
"100 385 LINE",
"100 665 LINE SMOOTH",
"100 684 OFFCURVE",
"84 700 OFFCURVE",
"65 700 CURVE SMOOTH",
"46 700 OFFCURVE",
"30 684 OFFCURVE",
"30 665 CURVE SMOOTH",
"30 35 LINE SMOOTH",
"30 16 OFFCURVE",
"46 0 OFFCURVE",
"65 0 CURVE SMOOTH"
);
}
);
width = 480;
},
{
associatedMasterId = "E2083702-67E7-471D-AE09-DB685EF5235E";
layerId = "4CA767A7-C11E-4A79-987E-B3D72894B3C9";
name = "Nov 13 18, 12:59";
paths = (
{
closed = 0;
nodes = (
"70 700 LINE",
"70 0 LINE"
);
},
{
closed = 0;
nodes = (
"440 700 LINE",
"440 0 LINE"
);
},
{
closed = 0;
nodes = (
"70 350 LINE",
"440 350 LINE"
);
}
);
width = 600;
},
{
associatedMasterId = "E2083702-67E7-471D-AE09-DB685EF5235E";
layerId = "0619B2C6-E6AB-4E88-9F58-145FFC17906C";
name = "Nov 21 18, 17:09";
paths = (
{
closed = 0;
nodes = (
"80 665 LINE",
"80 35 LINE"
);
},
{
closed = 0;
nodes = (
"430 350 LINE",
"80 350 LINE"
);
},
{
closed = 0;
nodes = (
"430 35 LINE",
"430 665 LINE"
);
}
);
width = 600;
}
);
unicode = 0048;
},
{
color = 3;
glyphname = I;
lastChange = "2019-01-25 15:45:45 +0000";
layers = (
{
layerId = "E2083702-67E7-471D-AE09-DB685EF5235E";
paths = (
{
closed = 1;
nodes = (
"84 0 OFFCURVE",
"100 16 OFFCURVE",
"100 35 CURVE SMOOTH",
"100 665 LINE SMOOTH",
"100 684 OFFCURVE",
"84 700 OFFCURVE",
"65 700 CURVE SMOOTH",
"46 700 OFFCURVE",
"30 684 OFFCURVE",
"30 665 CURVE SMOOTH",
"30 35 LINE SMOOTH",
"30 16 OFFCURVE",
"46 0 OFFCURVE",
"65 0 CURVE SMOOTH"
);
}
);
width = 130;
},
{
associatedMasterId = "E2083702-67E7-471D-AE09-DB685EF5235E";
layerId = "7AC97260-73DB-4960-93F3-9564DABD8E9F";
name = "Nov 13 18, 14:52";
paths = (
{
closed = 0;
nodes = (
"200 665 LINE",
"200 35 LINE"
);
}
);
width = 600;
}
);
unicode = 0049;
},
{
color = 3;
glyphname = J;
lastChange = "2019-01-25 15:45:45 +0000";
layers = (
{
layerId = "E2083702-67E7-471D-AE09-DB685EF5235E";
paths = (
{
closed = 1;
nodes = (
"197 700 LINE SMOOTH",
"178 700 OFFCURVE",
"162 684 OFFCURVE",
"162 665 CURVE SMOOTH",
"162 646 OFFCURVE",
"178 630 OFFCURVE",
"197 630 CURVE SMOOTH",
"320 630 LINE",
"320 250 LINE SMOOTH",
"320 126 OFFCURVE",
"281 70 OFFCURVE",
"200 70 CURVE SMOOTH",
"155 70 OFFCURVE",
"117 92 OFFCURVE",
"96 131 CURVE SMOOTH",
"90 142 OFFCURVE",
"78 150 OFFCURVE",
"65 150 CURVE SMOOTH",
"46 150 OFFCURVE",
"30 134 OFFCURVE",
"30 115 CURVE SMOOTH",
"30 109 OFFCURVE",
"32 103 OFFCURVE",
"35 98 CURVE SMOOTH",
"68 37 OFFCURVE",
"130 0 OFFCURVE",
"200 0 CURVE SMOOTH",
"324 0 OFFCURVE",
"390 90 OFFCURVE",
"390 250 CURVE SMOOTH",
"390 665 LINE SMOOTH",
"390 684 OFFCURVE",
"374 700 OFFCURVE",
"355 700 CURVE SMOOTH"
);
}
);
width = 420;
},
{
associatedMasterId = "E2083702-67E7-471D-AE09-DB685EF5235E";
layerId = "213C35F4-7BF8-44CA-8EE2-B9F502FC8E99";
name = "Nov 13 18, 21:42";
paths = (
{
closed = 0;
nodes = (
"0 230 LINE SMOOTH",
"0 90 OFFCURVE",
"35 0 OFFCURVE",
"175 0 CURVE SMOOTH",
"315 0 OFFCURVE",
"350 90 OFFCURVE",
"350 230 CURVE",
"350 700 LINE",
"175 700 LINE"
);
}
);
width = 600;
},
{
associatedMasterId = "E2083702-67E7-471D-AE09-DB685EF5235E";
layerId = "C6BA09ED-5982-40A0-BAD9-3B530231A690";
name = "Nov 21 18, 17:13";
paths = (
{
closed = 0;
nodes = (
"29 158 LINE",
"32 143 OFFCURVE",
"37 129 OFFCURVE",
"43 115 CURVE SMOOTH",
"68 69 OFFCURVE",
"116 35 OFFCURVE",
"178 35 CURVE SMOOTH",
"258 35 OFFCURVE",
"333 80 OFFCURVE",
"333 250 CURVE",
"333 665 LINE",
"175 665 LINE"
);
}
);
width = 600;
},
{
associatedMasterId = "E2083702-67E7-471D-AE09-DB685EF5235E";
layerId = "8AE4C866-B1D1-4AC5-9AC5-DD64F07ABD48";
name = "Nov 21 18, 17:15";
paths = (
{
closed = 0;
nodes = (
"43 115 LINE",
"68 69 OFFCURVE",
"116 35 OFFCURVE",
"178 35 CURVE SMOOTH",
"258 35 OFFCURVE",
"333 80 OFFCURVE",
"333 250 CURVE",
"333 665 LINE",
"175 665 LINE"
);
}
);
width = 600;
}
);
unicode = 004A;
},
{
color = 3;
glyphname = K;
lastChange = "2019-01-25 15:45:46 +0000";
layers = (
{
layerId = "E2083702-67E7-471D-AE09-DB685EF5235E";
paths = (
{
closed = 1;
nodes = (
"84 0 OFFCURVE",
"100 16 OFFCURVE",
"100 35 CURVE SMOOTH",
"100 284 LINE",
"142 326 LINE",
"419 12 LINE SMOOTH",
"425 5 OFFCURVE",
"435 0 OFFCURVE",
"445 0 CURVE SMOOTH",
"464 0 OFFCURVE",
"480 16 OFFCURVE",
"480 35 CURVE SMOOTH",
"480 44 OFFCURVE",
"477 52 OFFCURVE",
"471 58 CURVE SMOOTH",
"192 375 LINE",
"460 640 LINE SMOOTH",
"466 646 OFFCURVE",
"470 655 OFFCURVE",
"470 665 CURVE SMOOTH",
"470 684 OFFCURVE",
"454 700 OFFCURVE",
"435 700 CURVE SMOOTH",
"425 700 OFFCURVE",
"417 696 OFFCURVE",
"410 690 CURVE SMOOTH",
"100 383 LINE",
"100 665 LINE SMOOTH",
"100 684 OFFCURVE",
"84 700 OFFCURVE",
"65 700 CURVE SMOOTH",
"46 700 OFFCURVE",
"30 684 OFFCURVE",
"30 665 CURVE SMOOTH",
"30 35 LINE SMOOTH",
"30 16 OFFCURVE",
"46 0 OFFCURVE",
"65 0 CURVE SMOOTH"
);
}
);
width = 510;
},
{
associatedMasterId = "E2083702-67E7-471D-AE09-DB685EF5235E";
layerId = "B85A98B3-1513-4614-9B0B-A1CF6198F6F5";
name = "Nov 13 18, 14:59";
paths = (
{
closed = 0;
nodes = (
"110 700 LINE",
"110 0 LINE",
"177 240 OFFCURVE",
"261 493 OFFCURVE",
"525 702 CURVE"
);
},
{
closed = 0;
nodes = (
"450 0 LINE",
"250 366 LINE"
);
}
);
width = 600;
},
{
associatedMasterId = "E2083702-67E7-471D-AE09-DB685EF5235E";
layerId = "6BB73F11-8E3B-4C19-8230-446DE04BC412";
name = "Nov 21 18, 17:16";
paths = (
{
closed = 0;
nodes = (
"110 665 LINE",
"110 35 LINE",
"495 667 LINE"
);
},
{
closed = 0;
nodes = (
"420 35 LINE",
"281 306 LINE"
);
}
);
width = 600;
},
{
associatedMasterId = "E2083702-67E7-471D-AE09-DB685EF5235E";
layerId = "B85AAE8B-28CE-4451-86F6-76001AB5F600";
name = "Nov 21 18, 17:17";
paths = (
{
closed = 0;
nodes = (
"110 665 LINE",
"110 35 LINE"
);
},
{
closed = 0;
nodes = (
"440 35 LINE",
"246 414 LINE"
);
},
{
closed = 0;
nodes = (
"440 665 LINE",
"110 250 LINE"
);
}
);
width = 600;
},
{
associatedMasterId = "E2083702-67E7-471D-AE09-DB685EF5235E";
layerId = "1A2A9C20-0C38-44E7-A15C-6A035251FE60";
name = "Dec 11 18, 13:43";
paths = (
{
closed = 0;
nodes = (
"110 665 LINE",
"110 35 LINE"
);
},
{
closed = 0;
nodes = (
"440 35 LINE",
"132 350 LINE",
"440 665 LINE"
);
}
);
width = 600;
},
{
associatedMasterId = "E2083702-67E7-471D-AE09-DB685EF5235E";
layerId = "476C78D6-9D1D-47C7-8F45-BFE6946D1479";
name = "Dec 11 18, 13:44";
paths = (
{
closed = 0;
nodes = (
"110 665 LINE",
"110 35 LINE"
);
},
{
closed = 0;
nodes = (
"110 299 LINE",
"480 665 LINE"
);
},
{
closed = 0;
nodes = (
"490 35 LINE",
"189 376 LINE"
);
}
);
width = 600;
}
);
unicode = 004B;
},
{
color = 3;
glyphname = L;
lastChange = "2019-01-25 15:45:45 +0000";
layers = (
{
layerId = "E2083702-67E7-471D-AE09-DB685EF5235E";
paths = (
{
closed = 1;
nodes = (
"30 16 OFFCURVE",
"46 0 OFFCURVE",
"65 0 CURVE SMOOTH",
"365 0 LINE SMOOTH",
"384 0 OFFCURVE",
"400 16 OFFCURVE",
"400 35 CURVE SMOOTH",
"400 54 OFFCURVE",
"384 70 OFFCURVE",
"365 70 CURVE SMOOTH",
"100 70 LINE",
"100 665 LINE SMOOTH",
"100 684 OFFCURVE",
"84 700 OFFCURVE",
"65 700 CURVE SMOOTH",
"46 700 OFFCURVE",
"30 684 OFFCURVE",
"30 665 CURVE SMOOTH",
"30 35 LINE SMOOTH"
);
}
);
width = 430;
},
{
associatedMasterId = "E2083702-67E7-471D-AE09-DB685EF5235E";
layerId = "48974C2F-28E4-466C-999A-BDF634041D7A";
name = "Nov 13 18, 14:49";
paths = (
{
closed = 0;
nodes = (
"90 700 LINE",
"90 0 LINE",
"340 0 LINE"
);
}
);
width = 600;
},
{
associatedMasterId = "E2083702-67E7-471D-AE09-DB685EF5235E";
layerId = "293E6F2F-7BA3-4273-9C83-74AF1B376721";
name = "Nov 21 18, 17:18";
paths = (
{
closed = 0;
nodes = (
"80 665 LINE",
"80 35 LINE",
"430 35 LINE"
);
}
);
visible = 1;
width = 600;
}
);
unicode = 004C;
},
{
color = 3;
glyphname = M;
lastChange = "2019-01-25 15:45:45 +0000";
layers = (
{
layerId = "E2083702-67E7-471D-AE09-DB685EF5235E";
paths = (
{
closed = 1;
nodes = (
"84 0 OFFCURVE",
"100 16 OFFCURVE",
"100 35 CURVE SMOOTH",
"100 526 LINE",
"291 170 LINE SMOOTH",
"300 153 OFFCURVE",
"313 145 OFFCURVE",
"332 145 CURVE SMOOTH",
"338 145 LINE SMOOTH",
"357 145 OFFCURVE",
"370 153 OFFCURVE",
"379 170 CURVE SMOOTH",
"570 526 LINE",
"570 35 LINE SMOOTH",
"570 16 OFFCURVE",
"586 0 OFFCURVE",
"605 0 CURVE SMOOTH",
"624 0 OFFCURVE",
"640 16 OFFCURVE",
"640 35 CURVE SMOOTH",
"640 634 LINE SMOOTH",
"640 655 OFFCURVE",
"630 667 OFFCURVE",
"610 673 CURVE SMOOTH",
"604 674 LINE SMOOTH",
"584 679 OFFCURVE",
"569 673 OFFCURVE",
"559 654 CURVE SMOOTH",
"335 236 LINE",
"111 654 LINE SMOOTH",
"101 673 OFFCURVE",
"86 679 OFFCURVE",
"66 674 CURVE SMOOTH",
"60 673 LINE SMOOTH",
"40 667 OFFCURVE",
"30 655 OFFCURVE",
"30 634 CURVE SMOOTH",
"30 35 LINE SMOOTH",
"30 16 OFFCURVE",
"46 0 OFFCURVE",
"65 0 CURVE SMOOTH"
);
}
);
width = 670;
},
{
associatedMasterId = "E2083702-67E7-471D-AE09-DB685EF5235E";
layerId = "4C1D43DF-8501-476F-8396-FC16AF097F88";
name = "Nov 13 18, 14:23";
paths = (
{
closed = 0;
nodes = (
"30 35 LINE",
"30 665 LINE",
"300 162 LINE",
"570 665 LINE",
"570 35 LINE"
);
}
);
width = 600;
}
);
unicode = 004D;
},
{
color = 3;
glyphname = N;
lastChange = "2019-01-25 15:45:45 +0000";
layers = (
{
layerId = "E2083702-67E7-471D-AE09-DB685EF5235E";
paths = (
{
closed = 1;
nodes = (
"529 26 LINE SMOOTH",
"549 32 OFFCURVE",
"558 45 OFFCURVE",
"558 65 CURVE SMOOTH",
"558 630 LINE SMOOTH",
"558 653 OFFCURVE",
"546 665 OFFCURVE",
"523 665 CURVE SMOOTH",
"500 665 OFFCURVE",
"488 653 OFFCURVE",
"488 630 CURVE SMOOTH",
"488 143 LINE",
"111 661 LINE SMOOTH",
"99 678 OFFCURVE",
"84 683 OFFCURVE",
"65 676 CURVE SMOOTH",
"59 674 LINE SMOOTH",
"39 668 OFFCURVE",
"30 655 OFFCURVE",
"30 635 CURVE SMOOTH",
"30 70 LINE SMOOTH",
"30 47 OFFCURVE",
"42 35 OFFCURVE",
"65 35 CURVE SMOOTH",
"88 35 OFFCURVE",
"100 47 OFFCURVE",
"100 70 CURVE SMOOTH",
"100 557 LINE",
"477 39 LINE SMOOTH",
"489 22 OFFCURVE",
"504 17 OFFCURVE",
"523 24 CURVE SMOOTH"
);
}
);
width = 588;
},
{
associatedMasterId = "E2083702-67E7-471D-AE09-DB685EF5235E";
layerId = "F81F1C6B-D17F-454A-B24E-25465580DC09";
name = "Nov 13 18, 14:24";
paths = (
{
closed = 1;
nodes = (
"529 35 LINE",
"71 665 LINE",
"71 35 LINE",
"71 665 LINE",
"529 35 LINE",
"529 665 LINE"
);
}
);
visible = 1;
width = 600;
}
);
unicode = 004E;
},
{
color = 3;
glyphname = O;
lastChange = "2019-01-25 15:45:45 +0000";
layers = (
{
layerId = "E2083702-67E7-471D-AE09-DB685EF5235E";
paths = (
{
closed = 1;
nodes = (
"552 0 OFFCURVE",
"691 148 OFFCURVE",
"691 350 CURVE SMOOTH",
"691 552 OFFCURVE",
"552 700 OFFCURVE",
"362 700 CURVE SMOOTH",
"170 700 OFFCURVE",
"30 553 OFFCURVE",
"30 350 CURVE SMOOTH",
"30 147 OFFCURVE",
"170 0 OFFCURVE",
"362 0 CURVE SMOOTH"
);
},
{
closed = 1;
nodes = (
"209 70 OFFCURVE",
"100 185 OFFCURVE",
"100 350 CURVE SMOOTH",
"100 515 OFFCURVE",
"209 630 OFFCURVE",
"362 630 CURVE SMOOTH",
"513 630 OFFCURVE",
"621 514 OFFCURVE",
"621 350 CURVE SMOOTH",
"621 186 OFFCURVE",
"513 70 OFFCURVE",
"362 70 CURVE SMOOTH"
);
}
);
width = 721;
},
{
associatedMasterId = "E2083702-67E7-471D-AE09-DB685EF5235E";
layerId = "1A375AFC-51D4-4005-B0A6-3EFE269D326C";
name = "Nov 13 18, 15:02";
paths = (
{
closed = 1;
nodes = (
"486 0 OFFCURVE",
"682 157 OFFCURVE",
"682 350 CURVE SMOOTH",
"682 543 OFFCURVE",
"486 700 OFFCURVE",
"248 700 CURVE SMOOTH",
"7 700 OFFCURVE",
"-189 543 OFFCURVE",
"-189 350 CURVE SMOOTH",
"-189 157 OFFCURVE",
"7 0 OFFCURVE",
"248 0 CURVE SMOOTH"
);
}
);
width = 600;
},
{
associatedMasterId = "E2083702-67E7-471D-AE09-DB685EF5235E";
layerId = "3A155FA4-8AF7-49FA-855F-D9E0BC720D79";
name = "Nov 13 18, 15:02";
paths = (
{
closed = 1;
nodes = (
"408 35 OFFCURVE",
"542 156 OFFCURVE",
"542 350 CURVE SMOOTH",
"542 544 OFFCURVE",
"408 665 OFFCURVE",
"248 665 CURVE SMOOTH",
"85 665 OFFCURVE",
"-49 544 OFFCURVE",
"-49 350 CURVE SMOOTH",
"-49 156 OFFCURVE",
"85 35 OFFCURVE",
"248 35 CURVE SMOOTH"
);
}
);
width = 600;
}
);
unicode = 004F;
},
{
color = 3;
glyphname = P;
lastChange = "2019-01-25 15:45:45 +0000";
layers = (
{
layerId = "E2083702-67E7-471D-AE09-DB685EF5235E";
paths = (
{
closed = 1;
nodes = (
"84 0 OFFCURVE",
"100 16 OFFCURVE",
"100 35 CURVE SMOOTH",
"100 280 LINE",
"271 280 LINE SMOOTH",
"416 281 OFFCURVE",
"505 361 OFFCURVE",
"505 490 CURVE SMOOTH",
"505 616 OFFCURVE",
"411 700 OFFCURVE",
"271 700 CURVE SMOOTH",
"90 700 LINE SMOOTH",
"72 700 OFFCURVE",
"60 695 OFFCURVE",
"48 683 CURVE SMOOTH",
"35 670 OFFCURVE",
"30 658 OFFCURVE",
"30 640 CURVE SMOOTH",
"30 35 LINE SMOOTH",
"30 16 OFFCURVE",
"46 0 OFFCURVE",
"65 0 CURVE SMOOTH"
);
},
{
closed = 1;
nodes = (
"100 350 LINE",
"100 630 LINE",
"271 630 LINE SMOOTH",
"372 630 OFFCURVE",
"435 576 OFFCURVE",
"435 490 CURVE SMOOTH",
"435 400 OFFCURVE",
"378 351 OFFCURVE",
"271 350 CURVE SMOOTH"
);
}
);
width = 535;
},
{
associatedMasterId = "E2083702-67E7-471D-AE09-DB685EF5235E";
layerId = "180A0195-082D-416D-9F9B-BACBE38B396F";
name = "Nov 13 18, 14:55";
paths = (
{
closed = 0;
nodes = (
"123 35 LINE",
"123 665 LINE",
"329 665 LINE",
"436 665 OFFCURVE",
"528 607 OFFCURVE",
"528 490 CURVE SMOOTH",
"528 373 OFFCURVE",
"446 316 OFFCURVE",
"329 315 CURVE",
"123 315 LINE"
);
}
);
width = 600;
}
);
unicode = 0050;
},
{
color = 3;
glyphname = Q;
lastChange = "2019-01-25 15:45:45 +0000";
layers = (
{
layerId = "E2083702-67E7-471D-AE09-DB685EF5235E";
paths = (
{
closed = 1;
nodes = (
"717 -101 OFFCURVE",
"733 -85 OFFCURVE",
"733 -66 CURVE SMOOTH",
"733 -56 OFFCURVE",
"729 -48 OFFCURVE",
"723 -41 CURVE SMOOTH",
"617 65 LINE",
"711 128 OFFCURVE",
"773 233 OFFCURVE",
"773 350 CURVE SMOOTH",
"773 542 OFFCURVE",
"606 700 OFFCURVE",
"403 700 CURVE SMOOTH",
"198 700 OFFCURVE",
"30 543 OFFCURVE",
"30 350 CURVE SMOOTH",
"30 157 OFFCURVE",
"198 0 OFFCURVE",
"403 0 CURVE SMOOTH",
"456 0 OFFCURVE",
"507 11 OFFCURVE",
"552 30 CURVE",
"673 -91 LINE SMOOTH",
"680 -97 OFFCURVE",
"688 -101 OFFCURVE",
"698 -101 CURVE SMOOTH"
);
},
{
closed = 1;
nodes = (
"236 70 OFFCURVE",
"100 196 OFFCURVE",
"100 350 CURVE SMOOTH",
"100 504 OFFCURVE",
"236 630 OFFCURVE",
"403 630 CURVE SMOOTH",
"568 630 OFFCURVE",
"703 503 OFFCURVE",
"703 350 CURVE SMOOTH",
"703 197 OFFCURVE",
"568 70 OFFCURVE",
"403 70 CURVE SMOOTH"
);
}
);
width = 803;
},
{
associatedMasterId = "E2083702-67E7-471D-AE09-DB685EF5235E";
layerId = "D6FBA8EC-4400-4532-AD41-61F20D3DFAEF";
name = "Nov 13 18, 15:01";
paths = (
{
closed = 1;
nodes = (
"486 0 OFFCURVE",
"682 157 OFFCURVE",
"682 350 CURVE SMOOTH",
"682 543 OFFCURVE",
"486 700 OFFCURVE",
"248 700 CURVE SMOOTH",
"7 700 OFFCURVE",
"-189 543 OFFCURVE",
"-189 350 CURVE SMOOTH",
"-189 157 OFFCURVE",
"7 0 OFFCURVE",
"248 0 CURVE SMOOTH"
);
},
{
closed = 0;
nodes = (
"334 176 LINE",
"599 -114 LINE"
);
}
);
width = 600;
},
{
associatedMasterId = "E2083702-67E7-471D-AE09-DB685EF5235E";
layerId = "481F7791-05C1-41A5-8C54-44BB9185EB13";
name = "Nov 13 18, 15:01";
paths = (
{
closed = 1;
nodes = (
"424 0 OFFCURVE",
"540 157 OFFCURVE",
"540 350 CURVE SMOOTH",
"540 543 OFFCURVE",
"424 700 OFFCURVE",
"280 700 CURVE SMOOTH",
"138 700 OFFCURVE",
"20 543 OFFCURVE",
"20 350 CURVE SMOOTH",
"20 157 OFFCURVE",
"138 0 OFFCURVE",
"280 0 CURVE SMOOTH"
);
},
{
closed = 0;
nodes = (
"385 153 LINE",
"510 -101 LINE"
);
}
);
width = 600;
},
{
associatedMasterId = "E2083702-67E7-471D-AE09-DB685EF5235E";
layerId = "004006FC-1029-4EB9-82D6-A337714B89EF";
name = "Nov 21 18, 17:27";
paths = (
{
closed = 1;
nodes = (
"404 35 OFFCURVE",
"533 176 OFFCURVE",
"533 350 CURVE SMOOTH",
"533 524 OFFCURVE",
"404 665 OFFCURVE",
"248 665 CURVE SMOOTH",
"89 665 OFFCURVE",
"-40 524 OFFCURVE",
"-40 350 CURVE SMOOTH",
"-40 176 OFFCURVE",
"89 35 OFFCURVE",
"248 35 CURVE SMOOTH"
);
},
{
closed = 0;
nodes = (
"469 -79 LINE",
"334 192 LINE"
);
}
);
width = 600;
},
{
associatedMasterId = "E2083702-67E7-471D-AE09-DB685EF5235E";
layerId = "72FB2094-2150-4308-AFB9-3B17FA3AA09D";
name = "Dec 11 18, 13:46";
paths = (
{
closed = 1;
nodes = (
"431 35 OFFCURVE",
"583 176 OFFCURVE",
"583 350 CURVE SMOOTH",
"583 524 OFFCURVE",
"431 665 OFFCURVE",
"248 665 CURVE SMOOTH",
"62 665 OFFCURVE",
"-90 524 OFFCURVE",
"-90 350 CURVE SMOOTH",
"-90 176 OFFCURVE",
"62 35 OFFCURVE",
"248 35 CURVE SMOOTH"
);
},
{
closed = 0;
nodes = (
"302 259 LINE",
"318 147 OFFCURVE",
"358 38 OFFCURVE",
"476 -69 CURVE"
);
}
);
width = 600;
},
{
associatedMasterId = "E2083702-67E7-471D-AE09-DB685EF5235E";
layerId = "05536308-DF49-49E6-9140-A99AD4A9065C";
name = "Dec 11 18, 13:47";
paths = (
{
closed = 1;
nodes = (
"431 35 OFFCURVE",
"583 176 OFFCURVE",
"583 350 CURVE SMOOTH",
"583 524 OFFCURVE",
"431 665 OFFCURVE",
"248 665 CURVE SMOOTH",
"62 665 OFFCURVE",
"-90 524 OFFCURVE",
"-90 350 CURVE SMOOTH",
"-90 176 OFFCURVE",
"62 35 OFFCURVE",
"248 35 CURVE SMOOTH"
);
},
{
closed = 0;
nodes = (
"404 73 LINE",
"543 -66 LINE"
);
}
);
width = 600;
}
);
unicode = 0051;
},
{
color = 3;
glyphname = R;
lastChange = "2019-01-25 15:45:45 +0000";
layers = (
{
layerId = "E2083702-67E7-471D-AE09-DB685EF5235E";
paths = (
{
closed = 1;
nodes = (
"84 0 OFFCURVE",
"100 16 OFFCURVE",
"100 35 CURVE SMOOTH",
"100 280 LINE",
"251 280 LINE",
"399 18 LINE SMOOTH",
"405 7 OFFCURVE",
"417 0 OFFCURVE",
"430 0 CURVE SMOOTH",
"449 0 OFFCURVE",
"465 16 OFFCURVE",
"465 35 CURVE SMOOTH",
"465 42 OFFCURVE",
"463 48 OFFCURVE",
"460 53 CURVE SMOOTH",
"328 285 LINE",
"439 304 OFFCURVE",
"505 379 OFFCURVE",
"505 490 CURVE SMOOTH",
"505 616 OFFCURVE",
"411 700 OFFCURVE",
"271 700 CURVE SMOOTH",
"90 700 LINE SMOOTH",
"72 700 OFFCURVE",
"60 695 OFFCURVE",
"48 683 CURVE SMOOTH",
"35 670 OFFCURVE",
"30 658 OFFCURVE",
"30 640 CURVE SMOOTH",
"30 35 LINE SMOOTH",
"30 16 OFFCURVE",
"46 0 OFFCURVE",
"65 0 CURVE SMOOTH"
);
},
{
closed = 1;
nodes = (
"100 630 LINE",
"271 630 LINE SMOOTH",
"372 630 OFFCURVE",
"435 576 OFFCURVE",
"435 490 CURVE SMOOTH",
"435 400 OFFCURVE",
"378 351 OFFCURVE",
"271 350 CURVE SMOOTH",
"100 350 LINE"
);
}
);
width = 535;
},
{
associatedMasterId = "E2083702-67E7-471D-AE09-DB685EF5235E";
layerId = "EB38D675-20E6-4F3B-8FE9-CF3EECA854A2";
name = "Nov 13 18, 14:56";
paths = (
{
closed = 0;
nodes = (
"100 0 LINE",
"100 700 LINE",
"340 700 LINE",
"415 700 OFFCURVE",
"551 670 OFFCURVE",
"551 540 CURVE SMOOTH",
"551 410 OFFCURVE",
"426 381 OFFCURVE",
"340 380 CURVE",
"100 380 LINE",
"500 0 LINE"
);
}
);
width = 600;
},
{
associatedMasterId = "E2083702-67E7-471D-AE09-DB685EF5235E";
layerId = "5EB139FE-F4C4-44AD-AF27-8BF8B78790F0";
name = "Nov 13 18, 14:57";
paths = (
{
closed = 0;
nodes = (
"100 0 LINE",
"100 700 LINE",
"340 700 LINE",
"415 700 OFFCURVE",
"551 670 OFFCURVE",
"551 540 CURVE SMOOTH",
"551 410 OFFCURVE",
"426 381 OFFCURVE",
"340 380 CURVE",
"100 380 LINE"
);
},
{
closed = 0;
nodes = (
"320 380 LINE",
"500 0 LINE"
);
}
);
width = 600;
},
{
associatedMasterId = "E2083702-67E7-471D-AE09-DB685EF5235E";
layerId = "9CC9877C-CAEB-471B-B363-595903AD9364";
name = "Nov 13 18, 14:57";
paths = (
{
closed = 0;
nodes = (
"100 0 LINE",
"100 700 LINE",
"340 700 LINE",
"415 700 OFFCURVE",
"551 670 OFFCURVE",
"551 540 CURVE SMOOTH",
"551 410 OFFCURVE",
"426 381 OFFCURVE",
"340 380 CURVE",
"100 380 LINE"
);
},
{
closed = 0;
nodes = (
"376 380 LINE",
"500 0 LINE"
);
}
);
width = 600;
},
{
associatedMasterId = "E2083702-67E7-471D-AE09-DB685EF5235E";
layerId = "333E1D6F-43B1-4C76-81AC-F8E77CDDC639";
name = "Nov 21 18, 17:26";
paths = (
{
closed = 0;
nodes = (
"123 35 LINE",
"123 665 LINE",
"329 665 LINE",
"444 665 OFFCURVE",
"528 582 OFFCURVE",
"528 465 CURVE SMOOTH",
"528 348 OFFCURVE",
"444 251 OFFCURVE",
"329 250 CURVE",
"123 250 LINE"
);
},
{
closed = 0;
nodes = (
"488 35 LINE",
"329 250 LINE"
);
}
);
width = 600;
}
);
unicode = 0052;
},
{
color = 3;
glyphname = S;
lastChange = "2019-01-25 15:45:45 +0000";
layers = (
{
layerId = "E2083702-67E7-471D-AE09-DB685EF5235E";
paths = (
{
closed = 1;
nodes = (
"416 0 LINE SMOOTH",
"557 0 OFFCURVE",
"640 71 OFFCURVE",
"640 192 CURVE SMOOTH",
"640 314 OFFCURVE",
"557 385 OFFCURVE",
"416 385 CURVE SMOOTH",
"254 385 LINE SMOOTH",
"151 385 OFFCURVE",
"100 426 OFFCURVE",
"100 508 CURVE SMOOTH",
"100 589 OFFCURVE",
"151 630 OFFCURVE",
"254 630 CURVE SMOOTH",
"565 630 LINE SMOOTH",
"584 630 OFFCURVE",
"600 646 OFFCURVE",
"600 665 CURVE SMOOTH",
"600 684 OFFCURVE",
"584 700 OFFCURVE",
"565 700 CURVE SMOOTH",
"254 700 LINE SMOOTH",
"113 700 OFFCURVE",
"30 629 OFFCURVE",
"30 508 CURVE SMOOTH",
"30 386 OFFCURVE",
"113 315 OFFCURVE",
"254 315 CURVE SMOOTH",
"416 315 LINE SMOOTH",
"519 315 OFFCURVE",
"570 274 OFFCURVE",
"570 192 CURVE SMOOTH",
"570 111 OFFCURVE",
"519 70 OFFCURVE",
"416 70 CURVE SMOOTH",
"105 70 LINE SMOOTH",
"86 70 OFFCURVE",
"70 54 OFFCURVE",
"70 35 CURVE SMOOTH",
"70 16 OFFCURVE",
"86 0 OFFCURVE",
"105 0 CURVE SMOOTH"
);
}
);
width = 670;
},
{
associatedMasterId = "E2083702-67E7-471D-AE09-DB685EF5235E";
layerId = "C94531BF-8A1B-4112-BFBB-AEF82BB2DC67";
name = "Nov 13 18, 15:15";
paths = (
{
closed = 0;
nodes = (
"570 665 LINE",
"219 665 LINE",
"66 665 OFFCURVE",
"30 580 OFFCURVE",
"30 508 CURVE SMOOTH",
"30 436 OFFCURVE",
"66 350 OFFCURVE",
"219 350 CURVE SMOOTH",
"381 350 LINE",
"534 350 OFFCURVE",
"570 264 OFFCURVE",
"570 192 CURVE SMOOTH",
"570 120 OFFCURVE",
"534 35 OFFCURVE",
"381 35 CURVE",
"30 35 LINE"
);
}
);
width = 600;
}
);
unicode = 0053;
},
{
color = 3;
glyphname = T;
lastChange = "2019-01-25 15:45:46 +0000";
layers = (
{
layerId = "E2083702-67E7-471D-AE09-DB685EF5235E";
paths = (
{
closed = 1;
nodes = (
"320 0 OFFCURVE",
"336 16 OFFCURVE",
"336 35 CURVE SMOOTH",
"336 630 LINE",
"537 630 LINE SMOOTH",
"556 630 OFFCURVE",
"572 646 OFFCURVE",
"572 665 CURVE SMOOTH",
"572 684 OFFCURVE",
"556 700 OFFCURVE",
"537 700 CURVE SMOOTH",
"65 700 LINE SMOOTH",
"46 700 OFFCURVE",
"30 684 OFFCURVE",
"30 665 CURVE SMOOTH",
"30 646 OFFCURVE",
"46 630 OFFCURVE",
"65 630 CURVE SMOOTH",
"266 630 LINE",
"266 35 LINE SMOOTH",
"266 16 OFFCURVE",
"282 0 OFFCURVE",
"301 0 CURVE SMOOTH"
);
}
);
width = 602;
},
{
associatedMasterId = "E2083702-67E7-471D-AE09-DB685EF5235E";
layerId = "08E7ADD7-D767-42B6-BD24-3B99489F0A33";
name = "Nov 13 18, 14:51";
paths = (
{
closed = 0;
nodes = (
"27 665 LINE",
"459 665 LINE"
);
},
{
closed = 0;
nodes = (
"243 665 LINE",
"243 35 LINE"
);
}
);
width = 600;
}
);
unicode = 0054;
},
{
color = 3;
glyphname = U;
lastChange = "2019-01-25 15:45:45 +0000";
layers = (
{
layerId = "E2083702-67E7-471D-AE09-DB685EF5235E";
paths = (
{
closed = 1;
nodes = (
"461 0 OFFCURVE",
"565 107 OFFCURVE",
"565 278 CURVE SMOOTH",
"565 665 LINE SMOOTH",
"565 684 OFFCURVE",
"549 700 OFFCURVE",
"530 700 CURVE SMOOTH",
"511 700 OFFCURVE",
"495 684 OFFCURVE",
"495 665 CURVE SMOOTH",
"495 278 LINE SMOOTH",
"495 145 OFFCURVE",
"422 70 OFFCURVE",
"297 70 CURVE SMOOTH",
"172 70 OFFCURVE",
"100 145 OFFCURVE",
"100 278 CURVE SMOOTH",
"100 665 LINE SMOOTH",
"100 684 OFFCURVE",
"84 700 OFFCURVE",
"65 700 CURVE SMOOTH",
"46 700 OFFCURVE",
"30 684 OFFCURVE",
"30 665 CURVE SMOOTH",
"30 278 LINE SMOOTH",
"30 107 OFFCURVE",
"134 0 OFFCURVE",
"297 0 CURVE SMOOTH"
);
}
);
width = 595;
},
{
associatedMasterId = "E2083702-67E7-471D-AE09-DB685EF5235E";
layerId = "FD64301D-D6FC-4AA3-AE3B-A5DD74C9D93A";
name = "Nov 13 18, 21:38";
paths = (
{
closed = 0;
nodes = (
"23 665 LINE",
"23 278 LINE",
"23 99 OFFCURVE",
"139 35 OFFCURVE",
"255 35 CURVE SMOOTH",
"371 35 OFFCURVE",
"488 99 OFFCURVE",
"488 278 CURVE",
"488 665 LINE"
);
}
);
visible = 1;
width = 600;
}
);
unicode = 0055;
},
{
color = 3;
glyphname = V;
lastChange = "2019-01-25 15:45:45 +0000";
layers = (
{
layerId = "E2083702-67E7-471D-AE09-DB685EF5235E";
paths = (
{
closed = 1;
nodes = (
"294 23 LINE SMOOTH",
"314 23 OFFCURVE",
"327 32 OFFCURVE",
"334 51 CURVE SMOOTH",
"550 652 LINE SMOOTH",
"551 656 OFFCURVE",
"552 661 OFFCURVE",
"552 665 CURVE SMOOTH",
"552 684 OFFCURVE",
"536 700 OFFCURVE",
"517 700 CURVE SMOOTH",
"502 700 OFFCURVE",
"488 690 OFFCURVE",
"484 676 CURVE SMOOTH",
"291 139 LINE",
"98 676 LINE SMOOTH",
"94 690 OFFCURVE",
"80 700 OFFCURVE",
"65 700 CURVE SMOOTH",
"46 700 OFFCURVE",
"30 684 OFFCURVE",
"30 665 CURVE SMOOTH",
"30 661 OFFCURVE",
"31 656 OFFCURVE",
"32 652 CURVE SMOOTH",
"248 51 LINE SMOOTH",
"255 32 OFFCURVE",
"268 23 OFFCURVE",
"288 23 CURVE SMOOTH"
);
},
{
closed = 1;
nodes = (
"310 0 OFFCURVE",
"326 16 OFFCURVE",
"326 35 CURVE SMOOTH",
"326 54 OFFCURVE",
"345 70 OFFCURVE",
"291 70 CURVE SMOOTH",
"237 70 OFFCURVE",
"256 54 OFFCURVE",
"256 35 CURVE SMOOTH",
"256 16 OFFCURVE",
"272 0 OFFCURVE",
"291 0 CURVE SMOOTH"
);
}
);
width = 582;
},
{
associatedMasterId = "E2083702-67E7-471D-AE09-DB685EF5235E";
layerId = "8BD46472-D327-4283-A90B-8CC36B68D156";
name = "Nov 13 18, 14:53";
paths = (
{
closed = 0;
nodes = (
"0 665 LINE",
"226 35 LINE",
"452 665 LINE"
);
}
);
width = 600;
}
);
unicode = 0056;
},
{
color = 3;
glyphname = W;
lastChange = "2019-01-25 15:45:45 +0000";
layers = (
{
layerId = "E2083702-67E7-471D-AE09-DB685EF5235E";
paths = (
{
closed = 1;
nodes = (
"646 23 LINE SMOOTH",
"666 25 OFFCURVE",
"678 34 OFFCURVE",
"684 54 CURVE SMOOTH",
"860 654 LINE SMOOTH",
"861 658 OFFCURVE",
"862 661 OFFCURVE",
"862 665 CURVE SMOOTH",
"862 684 OFFCURVE",
"846 700 OFFCURVE",
"827 700 CURVE SMOOTH",
"811 700 OFFCURVE",
"797 689 OFFCURVE",
"793 674 CURVE SMOOTH",
"636 137 LINE",
"490 472 LINE SMOOTH",
"482 491 OFFCURVE",
"469 499 OFFCURVE",
"449 499 CURVE SMOOTH",
"443 499 LINE SMOOTH",
"423 499 OFFCURVE",
"410 491 OFFCURVE",
"402 472 CURVE SMOOTH",
"256 137 LINE",
"99 674 LINE SMOOTH",
"95 689 OFFCURVE",
"81 700 OFFCURVE",
"65 700 CURVE SMOOTH",
"46 700 OFFCURVE",
"30 684 OFFCURVE",
"30 665 CURVE SMOOTH",
"30 661 OFFCURVE",
"31 658 OFFCURVE",
"32 654 CURVE SMOOTH",
"208 54 LINE SMOOTH",
"214 34 OFFCURVE",
"226 25 OFFCURVE",
"246 23 CURVE SMOOTH",
"252 23 LINE SMOOTH",
"273 22 OFFCURVE",
"286 30 OFFCURVE",
"294 48 CURVE SMOOTH",
"446 397 LINE",
"598 48 LINE SMOOTH",
"606 30 OFFCURVE",
"619 22 OFFCURVE",
"640 23 CURVE SMOOTH"
);
}
);
width = 892;
},
{
associatedMasterId = "E2083702-67E7-471D-AE09-DB685EF5235E";
layerId = "49BE54BD-C761-4B6E-B7D2-BFFBEE779F42";
name = "Nov 13 18, 14:18";
paths = (
{
closed = 0;
nodes = (
"-81 665 LINE",
"104 35 LINE",
"300 485 LINE",
"496 35 LINE",
"681 665 LINE"
);
}
);
width = 600;
}
);
unicode = 0057;
},
{
color = 3;
glyphname = X;
lastChange = "2019-01-25 15:45:45 +0000";
layers = (
{
layerId = "E2083702-67E7-471D-AE09-DB685EF5235E";
paths = (
{
closed = 1;
nodes = (
"77 0 OFFCURVE",
"88 6 OFFCURVE",
"94 15 CURVE SMOOTH",
"288 289 LINE",
"482 15 LINE SMOOTH",
"488 6 OFFCURVE",
"499 0 OFFCURVE",
"511 0 CURVE SMOOTH",
"530 0 OFFCURVE",
"546 16 OFFCURVE",
"546 35 CURVE SMOOTH",
"546 43 OFFCURVE",
"544 50 OFFCURVE",
"539 56 CURVE SMOOTH",
"331 350 LINE",
"539 644 LINE SMOOTH",
"544 650 OFFCURVE",
"546 657 OFFCURVE",
"546 665 CURVE SMOOTH",
"546 684 OFFCURVE",
"530 700 OFFCURVE",
"511 700 CURVE SMOOTH",
"499 700 OFFCURVE",
"488 694 OFFCURVE",
"482 685 CURVE SMOOTH",
"288 411 LINE",
"94 685 LINE SMOOTH",
"88 694 OFFCURVE",
"77 700 OFFCURVE",
"65 700 CURVE SMOOTH",
"46 700 OFFCURVE",
"30 684 OFFCURVE",
"30 665 CURVE SMOOTH",
"30 657 OFFCURVE",
"32 650 OFFCURVE",
"37 644 CURVE SMOOTH",
"245 350 LINE",
"37 56 LINE SMOOTH",
"32 50 OFFCURVE",
"30 43 OFFCURVE",
"30 35 CURVE SMOOTH",
"30 16 OFFCURVE",
"46 0 OFFCURVE",
"65 0 CURVE SMOOTH"
);
}
);
width = 576;
},
{
associatedMasterId = "E2083702-67E7-471D-AE09-DB685EF5235E";
layerId = "D40434FF-A0A1-4DF5-A32B-D6E4AA7E2B8D";
name = "Nov 13 18, 14:16";
paths = (
{
closed = 1;
nodes = (
"75 0 OFFCURVE",
"84 4 OFFCURVE",
"90 11 CURVE SMOOTH",
"370 300 LINE",
"650 11 LINE SMOOTH",
"656 4 OFFCURVE",
"665 0 OFFCURVE",
"675 0 CURVE SMOOTH",
"694 0 OFFCURVE",
"710 16 OFFCURVE",
"710 35 CURVE SMOOTH",
"710 44 OFFCURVE",
"706 53 OFFCURVE",
"700 59 CURVE SMOOTH",
"419 350 LINE",
"700 641 LINE SMOOTH",
"706 647 OFFCURVE",
"710 656 OFFCURVE",
"710 665 CURVE SMOOTH",
"710 684 OFFCURVE",
"694 700 OFFCURVE",
"675 700 CURVE SMOOTH",
"665 700 OFFCURVE",
"656 696 OFFCURVE",
"650 689 CURVE SMOOTH",
"370 400 LINE",
"90 689 LINE SMOOTH",
"84 696 OFFCURVE",
"75 700 OFFCURVE",
"65 700 CURVE SMOOTH",
"46 700 OFFCURVE",
"30 684 OFFCURVE",
"30 665 CURVE SMOOTH",
"30 656 OFFCURVE",
"34 647 OFFCURVE",
"40 641 CURVE SMOOTH",
"321 350 LINE",
"40 59 LINE SMOOTH",
"34 53 OFFCURVE",
"30 44 OFFCURVE",
"30 35 CURVE SMOOTH",
"30 16 OFFCURVE",
"46 0 OFFCURVE",
"65 0 CURVE SMOOTH"
);
}
);
width = 740;
},
{
associatedMasterId = "E2083702-67E7-471D-AE09-DB685EF5235E";
layerId = "F4E7C032-A627-407A-B6E0-BA404CE6E604";
name = "Dec 13 18, 17:27";
paths = (
{
closed = 0;
nodes = (
"-30 665 LINE",
"580 35 LINE"
);
},
{
closed = 0;
nodes = (
"580 665 LINE",
"-30 35 LINE"
);
}
);
width = 600;
}
);
unicode = 0058;
},
{
color = 3;
glyphname = Y;
lastChange = "2019-01-25 15:45:45 +0000";
layers = (
{
layerId = "E2083702-67E7-471D-AE09-DB685EF5235E";
paths = (
{
closed = 1;
nodes = (
"289 0 OFFCURVE",
"305 16 OFFCURVE",
"305 35 CURVE SMOOTH",
"305 331 LINE",
"504 644 LINE SMOOTH",
"508 649 OFFCURVE",
"510 656 OFFCURVE",
"510 663 CURVE SMOOTH",
"510 682 OFFCURVE",
"494 698 OFFCURVE",
"475 698 CURVE SMOOTH",
"462 698 OFFCURVE",
"451 691 OFFCURVE",
"445 681 CURVE SMOOTH",
"270 406 LINE",
"95 683 LINE SMOOTH",
"89 693 OFFCURVE",
"78 700 OFFCURVE",
"65 700 CURVE SMOOTH",
"46 700 OFFCURVE",
"30 684 OFFCURVE",
"30 665 CURVE SMOOTH",
"30 658 OFFCURVE",
"32 651 OFFCURVE",
"36 646 CURVE SMOOTH",
"235 331 LINE",
"235 35 LINE SMOOTH",
"235 16 OFFCURVE",
"251 0 OFFCURVE",
"270 0 CURVE SMOOTH"
);
}
);
width = 540;
},
{
associatedMasterId = "E2083702-67E7-471D-AE09-DB685EF5235E";
layerId = "B3A3B4FC-B4D0-4B18-9ADF-B49242FFB769";
name = "Nov 13 18, 14:16";
paths = (
{
closed = 0;
nodes = (
"65 665 LINE",
"270 341 LINE",
"270 35 LINE"
);
},
{
closed = 0;
nodes = (
"475 663 LINE",
"270 341 LINE"
);
}
);
width = 600;
}
);
unicode = 0059;
},
{
color = 3;
glyphname = Z;
lastChange = "2019-01-25 15:45:45 +0000";
layers = (
{
layerId = "E2083702-67E7-471D-AE09-DB685EF5235E";
paths = (
{
closed = 1;
nodes = (
"545 0 LINE SMOOTH",
"564 0 OFFCURVE",
"580 16 OFFCURVE",
"580 35 CURVE SMOOTH",
"580 54 OFFCURVE",
"564 70 OFFCURVE",
"545 70 CURVE SMOOTH",
"136 70 LINE",
"556 621 LINE SMOOTH",
"567 637 OFFCURVE",
"569 652 OFFCURVE",
"560 669 CURVE SMOOTH",
"558 674 LINE SMOOTH",
"549 692 OFFCURVE",
"536 700 OFFCURVE",
"516 700 CURVE SMOOTH",
"65 700 LINE SMOOTH",
"46 700 OFFCURVE",
"30 684 OFFCURVE",
"30 665 CURVE SMOOTH",
"30 646 OFFCURVE",
"46 630 OFFCURVE",
"65 630 CURVE SMOOTH",
"474 630 LINE",
"54 79 LINE SMOOTH",
"43 63 OFFCURVE",
"41 48 OFFCURVE",
"50 31 CURVE SMOOTH",
"52 26 LINE SMOOTH",
"61 8 OFFCURVE",
"74 0 OFFCURVE",
"94 0 CURVE SMOOTH"
);
}
);
width = 610;
},
{
associatedMasterId = "E2083702-67E7-471D-AE09-DB685EF5235E";
layerId = "98E33D45-E6B2-4A98-817F-922772B55828";
name = "Nov 13 18, 13:01";
paths = (
{
closed = 0;
nodes = (
"40 665 LINE",
"520 665 LINE",
"40 35 LINE",
"520 35 LINE"
);
}
);
width = 600;
}
);
unicode = 005A;
},
{
color = 3;
glyphname = C.alt1;
lastChange = "2019-01-25 15:45:45 +0000";
layers = (
{
layerId = "E2083702-67E7-471D-AE09-DB685EF5235E";
paths = (
{
closed = 1;
nodes = (
"526 0 OFFCURVE",
"664 61 OFFCURVE",
"732 146 CURVE SMOOTH",
"737 152 OFFCURVE",
"740 160 OFFCURVE",
"740 168 CURVE SMOOTH",
"740 187 OFFCURVE",
"724 203 OFFCURVE",
"705 203 CURVE SMOOTH",
"694 203 OFFCURVE",
"684 198 OFFCURVE",
"678 190 CURVE SMOOTH",
"623 122 OFFCURVE",
"506 70 OFFCURVE",
"405 70 CURVE SMOOTH",
"232 70 OFFCURVE",
"100 192 OFFCURVE",
"100 350 CURVE SMOOTH",
"100 508 OFFCURVE",
"232 630 OFFCURVE",
"405 630 CURVE SMOOTH",
"513 630 OFFCURVE",
"603 600 OFFCURVE",
"660 546 CURVE",
"475 419 LINE SMOOTH",
"466 413 OFFCURVE",
"460 402 OFFCURVE",
"460 390 CURVE SMOOTH",
"460 371 OFFCURVE",
"476 355 OFFCURVE",
"495 355 CURVE SMOOTH",
"503 355 OFFCURVE",
"510 357 OFFCURVE",
"515 361 CURVE SMOOTH",
"711 497 LINE SMOOTH",
"726 507 OFFCURVE",
"733 518 OFFCURVE",
"736 536 CURVE SMOOTH",
"739 554 OFFCURVE",
"736 567 OFFCURVE",
"724 581 CURVE SMOOTH",
"655 657 OFFCURVE",
"540 700 OFFCURVE",
"405 700 CURVE SMOOTH",
"194 700 OFFCURVE",
"30 548 OFFCURVE",
"30 350 CURVE SMOOTH",
"30 152 OFFCURVE",
"194 0 OFFCURVE",
"405 0 CURVE SMOOTH"
);
}
);
width = 770;
},
{
associatedMasterId = "E2083702-67E7-471D-AE09-DB685EF5235E";
layerId = "935A29D4-80F0-448A-9611-E0ADBFF24E71";
name = path;
paths = (
{
closed = 0;
nodes = (
"825 159 LINE",
"748 59 OFFCURVE",
"613 0 OFFCURVE",
"458 0 CURVE SMOOTH",
"221 0 OFFCURVE",
"20 157 OFFCURVE",
"20 350 CURVE SMOOTH",
"20 543 OFFCURVE",
"221 700 OFFCURVE",
"458 700 CURVE SMOOTH",
"591 700 OFFCURVE",
"710 651 OFFCURVE",
"789 574 CURVE",
"577 421 LINE"
);
}
);
width = 845;
},
{
associatedMasterId = "E2083702-67E7-471D-AE09-DB685EF5235E";
layerId = "A321D4EC-67AE-4E1B-8BA9-B540B13C32C0";
name = "Nov 21 18, 15:02";
paths = (
{
closed = 0;
nodes = (
"690 168 LINE",
"633 97 OFFCURVE",
"509 35 OFFCURVE",
"390 35 CURVE SMOOTH",
"200 35 OFFCURVE",
"50 170 OFFCURVE",
"50 350 CURVE SMOOTH",
"50 530 OFFCURVE",
"200 665 OFFCURVE",
"390 665 CURVE SMOOTH",
"540 665 OFFCURVE",
"644 611 OFFCURVE",
"697 540 CURVE",
"480 390 LINE"
);
}
);
visible = 1;
width = 845;
}
);
},
{
color = 1;
glyphname = G.alt1;
lastChange = "2019-01-25 15:45:45 +0000";
layers = (
{
layerId = "E2083702-67E7-471D-AE09-DB685EF5235E";
paths = (
{
closed = 1;
nodes = (
"521 0 OFFCURVE",
"615 39 OFFCURVE",
"678 111 CURVE",
"678 38 LINE SMOOTH",
"678 19 OFFCURVE",
"694 3 OFFCURVE",
"713 3 CURVE SMOOTH",
"732 3 OFFCURVE",
"748 19 OFFCURVE",
"748 38 CURVE SMOOTH",
"748 225 LINE SMOOTH",
"748 243 OFFCURVE",
"743 255 OFFCURVE",
"731 268 CURVE SMOOTH",
"718 280 OFFCURVE",
"706 285 OFFCURVE",
"688 285 CURVE SMOOTH",
"419 285 LINE SMOOTH",
"400 285 OFFCURVE",
"384 269 OFFCURVE",
"384 250 CURVE SMOOTH",
"384 231 OFFCURVE",
"400 215 OFFCURVE",
"419 215 CURVE SMOOTH",
"663 215 LINE",
"619 121 OFFCURVE",
"529 70 OFFCURVE",
"405 70 CURVE SMOOTH",
"232 70 OFFCURVE",
"100 192 OFFCURVE",
"100 350 CURVE SMOOTH",
"100 508 OFFCURVE",
"232 630 OFFCURVE",
"405 630 CURVE SMOOTH",
"530 630 OFFCURVE",
"631 590 OFFCURVE",
"684 519 CURVE SMOOTH",
"690 511 OFFCURVE",
"700 505 OFFCURVE",
"712 505 CURVE SMOOTH",
"731 505 OFFCURVE",
"747 521 OFFCURVE",
"747 540 CURVE SMOOTH",
"747 548 OFFCURVE",
"744 555 OFFCURVE",
"740 561 CURVE SMOOTH",
"674 650 OFFCURVE",
"551 700 OFFCURVE",
"405 700 CURVE SMOOTH",
"194 700 OFFCURVE",
"30 548 OFFCURVE",
"30 350 CURVE SMOOTH",
"30 152 OFFCURVE",
"194 0 OFFCURVE",
"405 0 CURVE SMOOTH"
);
}
);
width = 778;
},
{
associatedMasterId = "E2083702-67E7-471D-AE09-DB685EF5235E";
layerId = "D866EB9B-F772-4146-AE64-071B688D13A8";
name = "Nov 13 18, 15:05";
paths = (
{
closed = 0;
nodes = (
"628 519 LINE",
"553 627 OFFCURVE",
"410 700 OFFCURVE",
"248 700 CURVE SMOOTH",
"7 700 OFFCURVE",
"-189 543 OFFCURVE",
"-189 350 CURVE SMOOTH",
"-189 157 OFFCURVE",
"7 0 OFFCURVE",
"248 0 CURVE SMOOTH",
"454 0 OFFCURVE",
"629 118 OFFCURVE",
"672 275 CURVE"
);
},
{
closed = 0;
nodes = (
"365 275 LINE",
"672 275 LINE",
"672 0 LINE"
);
}
);
width = 600;
},
{
associatedMasterId = "E2083702-67E7-471D-AE09-DB685EF5235E";
layerId = "C6E4E874-C93A-4D9D-A8FC-FC1141E81A02";
name = "Nov 21 18, 17:47";
paths = (
{
closed = 0;
nodes = (
"475 539 LINE",
"423 616 OFFCURVE",
"340 665 OFFCURVE",
"248 665 CURVE SMOOTH",
"89 665 OFFCURVE",
"-40 524 OFFCURVE",
"-40 350 CURVE SMOOTH",
"-40 176 OFFCURVE",
"89 35 OFFCURVE",
"248 35 CURVE SMOOTH",
"393 35 OFFCURVE",
"480 125 OFFCURVE",
"518 250 CURVE SMOOTH"
);
},
{
closed = 0;
nodes = (
"322 250 LINE",
"518 250 LINE",
"518 35 LINE"
);
}
);
width = 600;
},
{
associatedMasterId = "E2083702-67E7-471D-AE09-DB685EF5235E";
layerId = "E3772F98-F62C-48B2-8FD7-A24D96706F00";
name = "Dec 11 18, 13:49";
paths = (
{
closed = 0;
nodes = (
"698 250 LINE",
"651 83 OFFCURVE",
"509 35 OFFCURVE",
"390 35 CURVE SMOOTH",
"200 35 OFFCURVE",
"50 170 OFFCURVE",
"50 350 CURVE SMOOTH",
"50 530 OFFCURVE",
"200 665 OFFCURVE",
"390 665 CURVE SMOOTH",
"540 665 OFFCURVE",
"644 611 OFFCURVE",
"697 540 CURVE"
);
},
{
closed = 0;
nodes = (
"404 250 LINE",
"698 250 LINE",
"698 38 LINE"
);
}
);
width = 600;
},
{
associatedMasterId = "E2083702-67E7-471D-AE09-DB685EF5235E";
layerId = "736CF884-BDBA-4653-A1EE-11CE06142D8E";
name = "Dec 11 18, 13:51";
paths = (
{
closed = 0;
nodes = (
"404 290 LINE",
"708 290 LINE",
"686 122 OFFCURVE",
"518 35 OFFCURVE",
"390 35 CURVE SMOOTH",
"200 35 OFFCURVE",
"50 170 OFFCURVE",
"50 350 CURVE SMOOTH",
"50 530 OFFCURVE",
"200 665 OFFCURVE",
"390 665 CURVE SMOOTH",
"540 665 OFFCURVE",
"644 611 OFFCURVE",
"697 540 CURVE"
);
}
);
width = 600;
}
);
},
{
color = 3;
glyphname = a;
lastChange = "2019-01-25 15:45:45 +0000";
layers = (
{
associatedMasterId = "E2083702-67E7-471D-AE09-DB685EF5235E";
guideLines = (
{
position = "{10, 465}";
}
);
layerId = "441AC55D-FD61-4426-97C9-5D046A2C2A7D";
name = path;
paths = (
{
closed = 0;
nodes = (
"117 465 LINE",
"458 465 LINE",
"572 0 LINE"
);
},
{
closed = 1;
nodes = (
"390 0 OFFCURVE",
"505 71 OFFCURVE",
"505 155 CURVE SMOOTH",
"505 239 OFFCURVE",
"390 310 OFFCURVE",
"250 310 CURVE SMOOTH",
"110 310 OFFCURVE",
"-5 239 OFFCURVE",
"-5 155 CURVE SMOOTH",
"-5 71 OFFCURVE",
"110 0 OFFCURVE",
"250 0 CURVE SMOOTH"
);
}
);
width = 587;
},
{
associatedMasterId = "E2083702-67E7-471D-AE09-DB685EF5235E";
layerId = "F8FF1924-0357-49B5-BD40-E20E5B0D948C";
name = "Nov 20 18, 10:27";
paths = (
{
closed = 1;
nodes = (
"584 524 OFFCURVE",
"569 544 OFFCURVE",
"544 544 CURVE SMOOTH",
"82 545 LINE SMOOTH",
"57 545 OFFCURVE",
"37 525 OFFCURVE",
"37 500 CURVE SMOOTH",
"37 475 OFFCURVE",
"57 455 OFFCURVE",
"82 455 CURVE SMOOTH",
"506 455 LINE",
"520 369 LINE",
"473 395 OFFCURVE",
"406 410 OFFCURVE",
"345 410 CURVE SMOOTH",
"178 410 OFFCURVE",
"15 312 OFFCURVE",
"15 182 CURVE SMOOTH",
"15 53 OFFCURVE",
"178 -45 OFFCURVE",
"345 -45 CURVE SMOOTH",
"442 -45 OFFCURVE",
"537 -8 OFFCURVE",
"591 50 CURVE",
"603 -8 LINE SMOOTH",
"607 -29 OFFCURVE",
"625 -45 OFFCURVE",
"647 -45 CURVE SMOOTH",
"672 -45 OFFCURVE",
"692 -25 OFFCURVE",
"692 0 CURVE SMOOTH",
"692 3 OFFCURVE",
"692 7 OFFCURVE",
"691 10 CURVE SMOOTH",
"589 499 LINE"
);
},
{
closed = 1;
nodes = (
"229 45 OFFCURVE",
"105 106 OFFCURVE",
"105 182 CURVE SMOOTH",
"105 259 OFFCURVE",
"228 320 OFFCURVE",
"345 320 CURVE SMOOTH",
"458 320 OFFCURVE",
"558 262 OFFCURVE",
"558 182 CURVE SMOOTH",
"558 102 OFFCURVE",
"457 45 OFFCURVE",
"345 45 CURVE SMOOTH"
);
}
);
width = 707;
},
{
guideLines = (
{
position = "{147, 465}";
}
);
layerId = "E2083702-67E7-471D-AE09-DB685EF5235E";
paths = (
{
closed = 1;
nodes = (
"431 0 OFFCURVE",
"536 54 OFFCURVE",
"570 133 CURVE",
"602 26 LINE SMOOTH",
"606 11 OFFCURVE",
"620 0 OFFCURVE",
"636 0 CURVE SMOOTH",
"655 0 OFFCURVE",
"671 16 OFFCURVE",
"671 35 CURVE SMOOTH",
"671 39 OFFCURVE",
"670 42 OFFCURVE",
"669 46 CURVE SMOOTH",
"546 452 LINE SMOOTH",
"541 469 OFFCURVE",
"535 479 OFFCURVE",
"523 488 CURVE SMOOTH",
"511 497 OFFCURVE",
"499 500 OFFCURVE",
"482 500 CURVE SMOOTH",
"183 500 LINE SMOOTH",
"164 500 OFFCURVE",
"148 484 OFFCURVE",
"148 465 CURVE SMOOTH",
"148 446 OFFCURVE",
"164 430 OFFCURVE",
"183 430 CURVE SMOOTH",
"480 430 LINE",
"516 312 LINE",
"465 352 OFFCURVE",
"390 377 OFFCURVE",
"305 377 CURVE SMOOTH",
"151 377 OFFCURVE",
"30 295 OFFCURVE",
"30 188 CURVE SMOOTH",
"30 82 OFFCURVE",
"152 0 OFFCURVE",
"305 0 CURVE SMOOTH"
);
},
{
closed = 1;
nodes = (
"191 70 OFFCURVE",
"100 125 OFFCURVE",
"100 188 CURVE SMOOTH",
"100 252 OFFCURVE",
"190 307 OFFCURVE",
"305 307 CURVE SMOOTH",
"421 307 OFFCURVE",
"511 252 OFFCURVE",
"511 188 CURVE SMOOTH",
"511 125 OFFCURVE",
"420 70 OFFCURVE",
"305 70 CURVE SMOOTH"
);
}
);
visible = 1;
width = 701;
},
{
associatedMasterId = "E2083702-67E7-471D-AE09-DB685EF5235E";
guideLines = (
{
position = "{10, 465}";
}
);
layerId = "7829CC06-9A3C-4204-A892-2D94D4A5DB86";
name = "Nov 21 18, 14:58";
paths = (
{
closed = 0;
nodes = (
"175 465 LINE",
"458 465 LINE",
"588 35 LINE"
);
},
{
closed = 1;
nodes = (
"396 35 OFFCURVE",
"498 105 OFFCURVE",
"498 188 CURVE SMOOTH",
"498 272 OFFCURVE",
"396 342 OFFCURVE",
"257 342 CURVE SMOOTH",
"120 342 OFFCURVE",
"17 272 OFFCURVE",
"17 188 CURVE SMOOTH",
"17 105 OFFCURVE",
"120 35 OFFCURVE",
"257 35 CURVE SMOOTH"
);
}
);
visible = 1;
width = 587;
}
);
unicode = 0061;
},
{
color = 3;
glyphname = b;
lastChange = "2019-01-25 15:45:45 +0000";
layers = (
{
layerId = "E2083702-67E7-471D-AE09-DB685EF5235E";
paths = (
{
closed = 1;
nodes = (
"84 0 OFFCURVE",
"100 16 OFFCURVE",
"100 35 CURVE SMOOTH",
"100 87 LINE",
"154 34 OFFCURVE",
"233 0 OFFCURVE",
"322 0 CURVE SMOOTH",
"483 0 OFFCURVE",
"615 111 OFFCURVE",
"615 249 CURVE SMOOTH",
"615 389 OFFCURVE",
"484 500 OFFCURVE",
"322 500 CURVE SMOOTH",
"233 500 OFFCURVE",
"154 466 OFFCURVE",
"100 413 CURVE",
"100 665 LINE SMOOTH",
"100 684 OFFCURVE",
"84 700 OFFCURVE",
"65 700 CURVE SMOOTH",
"46 700 OFFCURVE",
"30 684 OFFCURVE",
"30 665 CURVE SMOOTH",
"30 35 LINE SMOOTH",
"30 16 OFFCURVE",
"46 0 OFFCURVE",
"65 0 CURVE SMOOTH"
);
},
{
closed = 1;
nodes = (
"199 70 OFFCURVE",
"100 151 OFFCURVE",
"100 249 CURVE SMOOTH",
"100 349 OFFCURVE",
"198 430 OFFCURVE",
"322 430 CURVE SMOOTH",
"446 430 OFFCURVE",
"545 349 OFFCURVE",
"545 249 CURVE SMOOTH",
"545 151 OFFCURVE",
"446 70 OFFCURVE",
"322 70 CURVE SMOOTH"
);
}
);
width = 645;
},
{
associatedMasterId = "E2083702-67E7-471D-AE09-DB685EF5235E";
layerId = "60DB8FA5-510D-4F00-9783-72B2FEA28266";
name = path;
paths = (
{
closed = 0;
nodes = (
"20 700 LINE",
"112 700 LINE",
"112 0 LINE"
);
},
{
closed = 1;
nodes = (
"612 0 OFFCURVE",
"756 112 OFFCURVE",
"756 251 CURVE SMOOTH",
"756 388 OFFCURVE",
"612 500 OFFCURVE",
"435 500 CURVE SMOOTH",
"256 500 OFFCURVE",
"112 388 OFFCURVE",
"112 251 CURVE SMOOTH",
"112 112 OFFCURVE",
"256 0 OFFCURVE",
"435 0 CURVE SMOOTH"
);
}
);
width = 600;
},
{
associatedMasterId = "E2083702-67E7-471D-AE09-DB685EF5235E";
layerId = "D411F134-D193-4F36-8E38-BE1F2F04C544";
name = "Nov 21 18, 16:07";
paths = (
{
closed = 1;
nodes = (
"141 35 OFFCURVE",
"35 131 OFFCURVE",
"35 249 CURVE SMOOTH",
"35 369 OFFCURVE",
"141 465 OFFCURVE",
"273 465 CURVE SMOOTH",
"406 465 OFFCURVE",
"512 369 OFFCURVE",
"512 249 CURVE SMOOTH",
"512 131 OFFCURVE",
"406 35 OFFCURVE",
"273 35 CURVE SMOOTH"
);
},
{
closed = 0;
nodes = (
"35 665 LINE",
"35 35 LINE",
"-27 35 LINE"
);
}
);
width = 600;
},
{
associatedMasterId = "E2083702-67E7-471D-AE09-DB685EF5235E";
layerId = "B6C67D4A-122C-4622-BDF5-6DB897A29EFD";
name = "Dec 11 18, 13:05";
paths = (
{
closed = 1;
nodes = (
"149 35 OFFCURVE",
"35 131 OFFCURVE",
"35 249 CURVE SMOOTH",
"35 369 OFFCURVE",
"149 465 OFFCURVE",
"292 465 CURVE SMOOTH",
"435 465 OFFCURVE",
"550 369 OFFCURVE",
"550 249 CURVE SMOOTH",
"550 131 OFFCURVE",
"435 35 OFFCURVE",
"292 35 CURVE SMOOTH"
);
},
{
closed = 0;
nodes = (
"35 665 LINE",
"35 35 LINE",
"-27 35 LINE"
);
}
);
width = 600;
}
);
unicode = 0062;
},
{
color = 3;
glyphname = c;
lastChange = "2019-01-25 15:45:45 +0000";
layers = (
{
layerId = "E2083702-67E7-471D-AE09-DB685EF5235E";
paths = (
{
closed = 1;
nodes = (
"418 0 OFFCURVE",
"465 7 OFFCURVE",
"508 22 CURVE SMOOTH",
"523 26 OFFCURVE",
"533 39 OFFCURVE",
"533 55 CURVE SMOOTH",
"533 74 OFFCURVE",
"517 90 OFFCURVE",
"498 90 CURVE SMOOTH",
"494 90 OFFCURVE",
"490 89 OFFCURVE",
"486 88 CURVE SMOOTH",
"450 76 OFFCURVE",
"411 70 OFFCURVE",
"368 70 CURVE SMOOTH",
"219 70 OFFCURVE",
"100 151 OFFCURVE",
"100 250 CURVE SMOOTH",
"100 349 OFFCURVE",
"219 430 OFFCURVE",
"368 430 CURVE SMOOTH",
"411 430 OFFCURVE",
"450 424 OFFCURVE",
"486 412 CURVE SMOOTH",
"490 411 OFFCURVE",
"494 410 OFFCURVE",
"498 410 CURVE SMOOTH",
"517 410 OFFCURVE",
"533 426 OFFCURVE",
"533 445 CURVE SMOOTH",
"533 461 OFFCURVE",
"523 474 OFFCURVE",
"508 478 CURVE SMOOTH",
"465 493 OFFCURVE",
"417 500 OFFCURVE",
"368 500 CURVE SMOOTH",
"180 500 OFFCURVE",
"30 391 OFFCURVE",
"30 250 CURVE SMOOTH",
"30 109 OFFCURVE",
"180 0 OFFCURVE",
"368 0 CURVE SMOOTH"
);
}
);
width = 563;
},
{
associatedMasterId = "E2083702-67E7-471D-AE09-DB685EF5235E";
guideLines = (
{
angle = 90;
position = "{590, 0}";
}
);
layerId = "738EFDE7-0FFF-448D-9DCD-219418812E48";
name = path;
paths = (
{
closed = 0;
nodes = (
"588 459 LINE"
);
},
{
closed = 0;
nodes = (
"588 459 LINE",
"534 485 OFFCURVE",
"470 500 OFFCURVE",
"400 500 CURVE SMOOTH",
"209 500 OFFCURVE",
"54 388 OFFCURVE",
"54 251 CURVE SMOOTH",
"54 112 OFFCURVE",
"209 0 OFFCURVE",
"400 0 CURVE SMOOTH",
"470 0 OFFCURVE",
"534 15 OFFCURVE",
"588 41 CURVE"
);
},
{
closed = 0;
nodes = (
"588 41 LINE"
);
}
);
width = 600;
},
{
associatedMasterId = "E2083702-67E7-471D-AE09-DB685EF5235E";
guideLines = (
{
angle = 90;
position = "{409, 62}";
}
);
layerId = "43C59B1A-9FF7-4CC0-9569-24A82F9D5D2E";
name = "Nov 12 18, 15:10";
paths = (
{
closed = 0;
nodes = (
"525 395 LINE",
"482 438 OFFCURVE",
"420 465 OFFCURVE",
"347 465 CURVE SMOOTH",
"210 465 OFFCURVE",
"108 367 OFFCURVE",
"108 250 CURVE SMOOTH",
"108 133 OFFCURVE",
"210 35 OFFCURVE",
"347 35 CURVE SMOOTH",
"420 35 OFFCURVE",
"482 62 OFFCURVE",
"525 105 CURVE SMOOTH"
);
}
);
width = 600;
},
{
associatedMasterId = "E2083702-67E7-471D-AE09-DB685EF5235E";
guideLines = (
{
angle = 90;
position = "{726, 71}";
}
);
layerId = "4CB4EB62-4490-4593-B272-30E4E9B473C9";
name = "Nov 21 18, 16:01";
paths = (
{
closed = 0;
nodes = (
"481 429 LINE",
"444 452 OFFCURVE",
"398 465 OFFCURVE",
"347 465 CURVE SMOOTH",
"210 465 OFFCURVE",
"108 367 OFFCURVE",
"108 250 CURVE SMOOTH",
"108 133 OFFCURVE",
"210 35 OFFCURVE",
"347 35 CURVE SMOOTH",
"398 35 OFFCURVE",
"444 48 OFFCURVE",
"481 71 CURVE"
);
}
);
width = 600;
},
{
associatedMasterId = "E2083702-67E7-471D-AE09-DB685EF5235E";
guideLines = (
{
angle = 90;
position = "{726, 71}";
}
);
layerId = "2FA776F9-1311-4170-8E9F-FA0AEC51AF37";
name = "Nov 21 18, 16:02";
paths = (
{
closed = 0;
nodes = (
"468 55 LINE"
);
},
{
closed = 0;
nodes = (
"532 517 LINE"
);
},
{
closed = 0;
nodes = (
"468 445 LINE",
"429 458 OFFCURVE",
"385 465 OFFCURVE",
"338 465 CURVE SMOOTH",
"165 465 OFFCURVE",
"35 367 OFFCURVE",
"35 250 CURVE SMOOTH",
"35 133 OFFCURVE",
"165 35 OFFCURVE",
"338 35 CURVE SMOOTH",
"386 35 OFFCURVE",
"429 42 OFFCURVE",
"468 55 CURVE"
);
}
);
width = 600;
},
{
associatedMasterId = "E2083702-67E7-471D-AE09-DB685EF5235E";
guideLines = (
{
angle = 90;
position = "{741, 71}";
}
);
layerId = "54814999-DB40-43A4-8A1A-BCE03A019339";
name = "Nov 21 18, 16:04";
paths = (
{
closed = 1;
nodes = (
"403 0 OFFCURVE",
"450 7 OFFCURVE",
"493 22 CURVE SMOOTH",
"508 26 OFFCURVE",
"518 39 OFFCURVE",
"518 55 CURVE SMOOTH",
"518 74 OFFCURVE",
"502 90 OFFCURVE",
"483 90 CURVE SMOOTH",
"479 90 OFFCURVE",
"475 89 OFFCURVE",
"471 88 CURVE SMOOTH",
"435 76 OFFCURVE",
"396 70 OFFCURVE",
"353 70 CURVE SMOOTH",
"204 70 OFFCURVE",
"85 151 OFFCURVE",
"85 250 CURVE SMOOTH",
"85 349 OFFCURVE",
"204 430 OFFCURVE",
"353 430 CURVE SMOOTH",
"396 430 OFFCURVE",
"435 424 OFFCURVE",
"471 412 CURVE SMOOTH",
"475 411 OFFCURVE",
"479 410 OFFCURVE",
"483 410 CURVE SMOOTH",
"502 410 OFFCURVE",
"518 426 OFFCURVE",
"518 445 CURVE SMOOTH",
"518 461 OFFCURVE",
"508 474 OFFCURVE",
"493 478 CURVE SMOOTH",
"450 493 OFFCURVE",
"402 500 OFFCURVE",
"353 500 CURVE SMOOTH",
"165 500 OFFCURVE",
"15 391 OFFCURVE",
"15 250 CURVE SMOOTH",
"15 109 OFFCURVE",
"165 0 OFFCURVE",
"353 0 CURVE SMOOTH"
);
}
);
width = 533;
}
);
unicode = 0063;
},
{
color = 3;
glyphname = d;
lastChange = "2019-01-25 15:45:45 +0000";
layers = (
{
layerId = "E2083702-67E7-471D-AE09-DB685EF5235E";
paths = (
{
closed = 1;
nodes = (
"412 0 OFFCURVE",
"491 34 OFFCURVE",
"545 87 CURVE",
"545 35 LINE SMOOTH",
"545 16 OFFCURVE",
"561 0 OFFCURVE",
"580 0 CURVE SMOOTH",
"599 0 OFFCURVE",
"615 16 OFFCURVE",
"615 35 CURVE SMOOTH",
"615 665 LINE SMOOTH",
"615 684 OFFCURVE",
"599 700 OFFCURVE",
"580 700 CURVE SMOOTH",
"561 700 OFFCURVE",
"545 684 OFFCURVE",
"545 665 CURVE SMOOTH",
"545 413 LINE",
"491 466 OFFCURVE",
"412 500 OFFCURVE",
"323 500 CURVE SMOOTH",
"161 500 OFFCURVE",
"30 389 OFFCURVE",
"30 249 CURVE SMOOTH",
"30 111 OFFCURVE",
"162 0 OFFCURVE",
"323 0 CURVE SMOOTH"
);
},
{
closed = 1;
nodes = (
"199 70 OFFCURVE",
"100 151 OFFCURVE",
"100 249 CURVE SMOOTH",
"100 349 OFFCURVE",
"199 430 OFFCURVE",
"323 430 CURVE SMOOTH",
"447 430 OFFCURVE",
"545 349 OFFCURVE",
"545 249 CURVE SMOOTH",
"545 151 OFFCURVE",
"446 70 OFFCURVE",
"323 70 CURVE SMOOTH"
);
}
);
width = 645;
},
{
associatedMasterId = "E2083702-67E7-471D-AE09-DB685EF5235E";
layerId = "EF2FCA36-867C-4A07-B4F3-C5BEAE85D3C3";
name = path;
paths = (
{
closed = 0;
nodes = (
"572 700 LINE",
"664 700 LINE",
"664 0 LINE"
);
},
{
closed = 1;
nodes = (
"520 0 OFFCURVE",
"664 112 OFFCURVE",
"664 251 CURVE SMOOTH",
"664 388 OFFCURVE",
"520 500 OFFCURVE",
"341 500 CURVE SMOOTH",
"164 500 OFFCURVE",
"20 388 OFFCURVE",
"20 251 CURVE SMOOTH",
"20 112 OFFCURVE",
"164 0 OFFCURVE",
"341 0 CURVE SMOOTH"
);
}
);
width = 600;
},
{
associatedMasterId = "E2083702-67E7-471D-AE09-DB685EF5235E";
layerId = "C7DDCB2B-C104-43B3-B336-D44BEC517F67";
name = "Nov 21 18, 16:06";
paths = (
{
closed = 1;
nodes = (
"370 35 OFFCURVE",
"466 131 OFFCURVE",
"466 249 CURVE SMOOTH",
"466 369 OFFCURVE",
"370 465 OFFCURVE",
"251 465 CURVE SMOOTH",
"131 465 OFFCURVE",
"35 369 OFFCURVE",
"35 249 CURVE SMOOTH",
"35 131 OFFCURVE",
"131 35 OFFCURVE",
"251 35 CURVE SMOOTH"
);
},
{
closed = 0;
nodes = (
"466 665 LINE",
"466 35 LINE"
);
}
);
width = 600;
},
{
associatedMasterId = "E2083702-67E7-471D-AE09-DB685EF5235E";
layerId = "FB2C3258-C2B5-470C-BED7-32A1A1B127E9";
name = "Dec 11 18, 12:54";
paths = (
{
closed = 1;
nodes = (
"79 35 OFFCURVE",
"-27 131 OFFCURVE",
"-27 249 CURVE SMOOTH",
"-27 369 OFFCURVE",
"79 465 OFFCURVE",
"212 465 CURVE SMOOTH",
"344 465 OFFCURVE",
"450 369 OFFCURVE",
"450 249 CURVE SMOOTH",
"450 131 OFFCURVE",
"344 35 OFFCURVE",
"212 35 CURVE SMOOTH"
);
},
{
closed = 0;
nodes = (
"450 35 LINE",
"450 665 LINE",
"401 665 LINE"
);
}
);
width = 600;
},
{
associatedMasterId = "E2083702-67E7-471D-AE09-DB685EF5235E";
layerId = "68725C9D-55AD-47D1-A3D6-57955B1B864A";
name = "Dec 11 18, 13:06";
paths = (
{
closed = 1;
nodes = (
"150 35 OFFCURVE",
"35 131 OFFCURVE",
"35 249 CURVE SMOOTH",
"35 369 OFFCURVE",
"150 465 OFFCURVE",
"293 465 CURVE SMOOTH",
"436 465 OFFCURVE",
"550 369 OFFCURVE",
"550 249 CURVE SMOOTH",
"550 131 OFFCURVE",
"436 35 OFFCURVE",
"293 35 CURVE SMOOTH"
);
},
{
closed = 0;
nodes = (
"550 665 LINE",
"550 35 LINE"
);
}
);
width = 600;
}
);
unicode = 0064;
},
{
color = 3;
glyphname = e;
lastChange = "2019-01-25 15:45:45 +0000";
layers = (
{
layerId = "E2083702-67E7-471D-AE09-DB685EF5235E";
paths = (
{
closed = 1;
nodes = (
"420 0 OFFCURVE",
"494 20 OFFCURVE",
"550 56 CURVE SMOOTH",
"559 63 OFFCURVE",
"566 73 OFFCURVE",
"566 86 CURVE SMOOTH",
"566 105 OFFCURVE",
"550 121 OFFCURVE",
"531 121 CURVE SMOOTH",
"524 121 OFFCURVE",
"517 119 OFFCURVE",
"512 115 CURVE SMOOTH",
"466 86 OFFCURVE",
"409 70 OFFCURVE",
"346 70 CURVE SMOOTH",
"221 70 OFFCURVE",
"125 131 OFFCURVE",
"104 216 CURVE",
"600 216 LINE SMOOTH",
"618 216 OFFCURVE",
"630 221 OFFCURVE",
"643 234 CURVE SMOOTH",
"655 246 OFFCURVE",
"661 258 OFFCURVE",
"659 276 CURVE SMOOTH",
"644 407 OFFCURVE",
"514 500 OFFCURVE",
"346 500 CURVE SMOOTH",
"166 500 OFFCURVE",
"30 394 OFFCURVE",
"30 251 CURVE SMOOTH",
"30 107 OFFCURVE",
"167 0 OFFCURVE",
"346 0 CURVE SMOOTH"
);
},
{
closed = 1;
nodes = (
"125 370 OFFCURVE",
"221 430 OFFCURVE",
"346 430 CURVE SMOOTH",
"471 430 OFFCURVE",
"565 370 OFFCURVE",
"586 286 CURVE",
"104 286 LINE"
);
}
);
width = 689;
},
{
associatedMasterId = "E2083702-67E7-471D-AE09-DB685EF5235E";
layerId = "66068E05-C79F-4D4B-857A-F3C5C9DECE3A";
name = "Nov 20 18, 09:56";
paths = (
{
closed = 0;
nodes = (
"710 219 LINE SMOOTH",
"710 114 OFFCURVE",
"578 5 OFFCURVE",
"355 0 CURVE SMOOTH",
"164 -4 OFFCURVE",
"54 112 OFFCURVE",
"54 251 CURVE SMOOTH",
"54 358 OFFCURVE",
"147 477 OFFCURVE",
"339 511 CURVE SMOOTH",
"496 539 OFFCURVE",
"654 500 OFFCURVE",
"716 350 CURVE",
"68 188 LINE"
);
}
);
width = 600;
},
{
associatedMasterId = "E2083702-67E7-471D-AE09-DB685EF5235E";
layerId = "F58303C7-845D-4617-B401-B630913E8449";
name = "Nov 21 18, 15:51";
paths = (
{
closed = 0;
nodes = (
"35 250 LINE",
"643 250 LINE",
"643 272 OFFCURVE",
"639 293 OFFCURVE",
"630 313 CURVE SMOOTH",
"622 332 OFFCURVE",
"610 350 OFFCURVE",
"595 367 CURVE SMOOTH",
"542 426 OFFCURVE",
"450 465 OFFCURVE",
"338 465 CURVE SMOOTH",
"165 465 OFFCURVE",
"35 367 OFFCURVE",
"35 250 CURVE SMOOTH",
"35 133 OFFCURVE",
"165 35 OFFCURVE",
"338 35 CURVE SMOOTH",
"431 35 OFFCURVE",
"510 62 OFFCURVE",
"565 105 CURVE SMOOTH"
);
}
);
width = 729;
},
{
associatedMasterId = "E2083702-67E7-471D-AE09-DB685EF5235E";
layerId = "AC06C02B-D898-4268-A87F-38E3DE68D4EF";
name = "Nov 21 18, 15:55";
paths = (
{
closed = 0;
nodes = (
"35 250 LINE",
"514 250 LINE",
"514 272 OFFCURVE",
"511 293 OFFCURVE",
"503 313 CURVE SMOOTH",
"497 332 OFFCURVE",
"488 350 OFFCURVE",
"476 367 CURVE SMOOTH",
"434 426 OFFCURVE",
"362 465 OFFCURVE",
"274 465 CURVE SMOOTH",
"137 465 OFFCURVE",
"35 367 OFFCURVE",
"35 250 CURVE SMOOTH",
"35 133 OFFCURVE",
"137 35 OFFCURVE",
"274 35 CURVE SMOOTH",
"347 35 OFFCURVE",
"409 62 OFFCURVE",
"452 105 CURVE SMOOTH"
);
}
);
width = 729;
},
{
associatedMasterId = "E2083702-67E7-471D-AE09-DB685EF5235E";
layerId = "04B3C5BC-8DD0-4B6B-8D2B-60AD41A7359A";
name = "Dec 11 18, 13:15";
paths = (
{
closed = 0;
nodes = (
"74 251 LINE",
"634 251 LINE",
"634 378 OFFCURVE",
"510 465 OFFCURVE",
"355 465 CURVE SMOOTH",
"200 465 OFFCURVE",
"74 378 OFFCURVE",
"74 251 CURVE SMOOTH",
"74 123 OFFCURVE",
"200 35 OFFCURVE",
"355 35 CURVE SMOOTH",
"426 35 OFFCURVE",
"491 54 OFFCURVE",
"540 86 CURVE SMOOTH"
);
}
);
width = 729;
},
{
associatedMasterId = "E2083702-67E7-471D-AE09-DB685EF5235E";
layerId = "901AA7D8-C67A-40DC-930F-87DDDFADAF5A";
name = "Dec 11 18, 13:38";
paths = (
{
closed = 0;
nodes = (
"108 140 LINE",
"592 369 LINE",
"542 429 OFFCURVE",
"455 465 OFFCURVE",
"355 465 CURVE SMOOTH",
"200 465 OFFCURVE",
"74 378 OFFCURVE",
"74 251 CURVE SMOOTH",
"74 123 OFFCURVE",
"200 35 OFFCURVE",
"355 35 CURVE SMOOTH",
"426 35 OFFCURVE",
"491 54 OFFCURVE",
"540 86 CURVE SMOOTH"
);
}
);
width = 729;
}
);
unicode = 0065;
},
{
color = 3;
glyphname = f;
lastChange = "2018-12-11 11:59:56 +0000";
layers = (
{
layerId = "E2083702-67E7-471D-AE09-DB685EF5235E";
paths = (
{
closed = 1;
nodes = (
"154 0 OFFCURVE",
"170 16 OFFCURVE",
"170 35 CURVE SMOOTH",
"170 430 LINE",
"282 430 LINE SMOOTH",
"301 430 OFFCURVE",
"317 446 OFFCURVE",
"317 465 CURVE SMOOTH",
"317 484 OFFCURVE",
"301 500 OFFCURVE",
"282 500 CURVE SMOOTH",
"170 500 LINE",
"170 607 OFFCURVE",
"191 630 OFFCURVE",
"282 630 CURVE SMOOTH",
"301 630 OFFCURVE",
"317 646 OFFCURVE",
"317 665 CURVE SMOOTH",
"317 684 OFFCURVE",
"301 700 OFFCURVE",
"282 700 CURVE SMOOTH",
"150 700 OFFCURVE",
"100 645 OFFCURVE",
"100 500 CURVE",
"65 500 LINE SMOOTH",
"46 500 OFFCURVE",
"30 484 OFFCURVE",
"30 465 CURVE SMOOTH",
"30 446 OFFCURVE",
"46 430 OFFCURVE",
"65 430 CURVE SMOOTH",
"100 430 LINE",
"100 35 LINE SMOOTH",
"100 16 OFFCURVE",
"116 0 OFFCURVE",
"135 0 CURVE SMOOTH"
);
}
);
width = 347;
},
{
associatedMasterId = "E2083702-67E7-471D-AE09-DB685EF5235E";
layerId = "DDA63AAA-C452-4822-B46F-6AAF757A48B0";
name = "Nov 13 18, 12:56";
paths = (
{
closed = 0;
nodes = (
"269 0 LINE",
"269 500 LINE",
"269 570 OFFCURVE",
"268 700 OFFCURVE",
"405 700 CURVE"
);
},
{
closed = 0;
nodes = (
"200 500 LINE",
"405 500 LINE"
);
}
);
width = 600;
},
{
associatedMasterId = "E2083702-67E7-471D-AE09-DB685EF5235E";
layerId = "2CC718A4-0850-4D68-B65D-19FF9BC3F946";
name = "Nov 21 18, 15:45";
paths = (
{
closed = 0;
nodes = (
"148 465 LINE",
"348 465 LINE"
);
},
{
closed = 0;
nodes = (
"395 665 LINE",
"290 665 OFFCURVE",
"248 633 OFFCURVE",
"248 500 CURVE SMOOTH",
"248 35 LINE"
);
}
);
visible = 1;
width = 600;
}
);
unicode = 0066;
},
{
color = 3;
glyphname = g;
lastChange = "2019-01-25 15:45:45 +0000";
layers = (
{
guideLines = (
{
angle = 90;
position = "{50, 307}";
},
{
position = "{50, 50}";
}
);
layerId = "E2083702-67E7-471D-AE09-DB685EF5235E";
paths = (
{
closed = 1;
nodes = (
"395 -200 OFFCURVE",
"498 -136 OFFCURVE",
"498 -47 CURVE SMOOTH",
"498 45 OFFCURVE",
"419 93 OFFCURVE",
"275 93 CURVE SMOOTH",
"258 93 OFFCURVE",
"239 93 OFFCURVE",
"220 91 CURVE",
"281 130 LINE",
"401 135 OFFCURVE",
"498 215 OFFCURVE",
"498 315 CURVE SMOOTH",
"498 359 OFFCURVE",
"480 399 OFFCURVE",
"449 430 CURVE",
"556 430 LINE SMOOTH",
"575 430 OFFCURVE",
"591 446 OFFCURVE",
"591 465 CURVE SMOOTH",
"591 484 OFFCURVE",
"575 500 OFFCURVE",
"556 500 CURVE SMOOTH",
"271 500 LINE SMOOTH",
"141 500 OFFCURVE",
"30 416 OFFCURVE",
"30 315 CURVE SMOOTH",
"30 241 OFFCURVE",
"91 175 OFFCURVE",
"175 146 CURVE",
"73 82 LINE SMOOTH",
"55 70 OFFCURVE",
"50 55 OFFCURVE",
"58 35 CURVE SMOOTH",
"60 30 LINE SMOOTH",
"68 10 OFFCURVE",
"82 3 OFFCURVE",
"103 6 CURVE SMOOTH",
"169 18 OFFCURVE",
"227 23 OFFCURVE",
"275 23 CURVE SMOOTH",
"380 23 OFFCURVE",
"428 -1 OFFCURVE",
"428 -47 CURVE SMOOTH",
"428 -92 OFFCURVE",
"355 -130 OFFCURVE",
"258 -130 CURVE SMOOTH",
"194 -130 OFFCURVE",
"133 -114 OFFCURVE",
"84 -83 CURVE SMOOTH",
"79 -79 OFFCURVE",
"72 -77 OFFCURVE",
"65 -77 CURVE SMOOTH",
"46 -77 OFFCURVE",
"30 -93 OFFCURVE",
"30 -112 CURVE SMOOTH",
"30 -125 OFFCURVE",
"37 -136 OFFCURVE",
"47 -142 CURVE SMOOTH",
"106 -179 OFFCURVE",
"183 -200 OFFCURVE",
"258 -200 CURVE SMOOTH"
);
},
{
closed = 1;
nodes = (
"181 200 OFFCURVE",
"100 256 OFFCURVE",
"100 315 CURVE SMOOTH",
"100 374 OFFCURVE",
"180 430 OFFCURVE",
"271 430 CURVE SMOOTH",
"358 430 OFFCURVE",
"428 378 OFFCURVE",
"428 315 CURVE SMOOTH",
"428 253 OFFCURVE",
"357 200 OFFCURVE",
"271 200 CURVE SMOOTH"
);
}
);
width = 621;
},
{
associatedMasterId = "E2083702-67E7-471D-AE09-DB685EF5235E";
guideLines = (
{
angle = 90;
position = "{20, 307}";
},
{
position = "{20, 50}";
}
);
layerId = "6C6770F9-3C19-4111-B591-AEBD7F578EDF";
name = path;
paths = (
{
closed = 1;
nodes = (
"533 201 OFFCURVE",
"422 115 OFFCURVE",
"285 115 CURVE SMOOTH",
"148 115 OFFCURVE",
"20 201 OFFCURVE",
"20 307 CURVE SMOOTH",
"20 414 OFFCURVE",
"148 500 OFFCURVE",
"285 500 CURVE SMOOTH",
"422 500 OFFCURVE",
"533 414 OFFCURVE",
"533 307 CURVE SMOOTH"
);
},
{
closed = 0;
nodes = (
"600 500 LINE",
"285 500 LINE"
);
},
{
closed = 0;
nodes = (
"285 115 LINE",
"20 50 LINE",
"285 95 OFFCURVE",
"533 87 OFFCURVE",
"533 -75 CURVE SMOOTH",
"533 -200 OFFCURVE",
"285 -248 OFFCURVE",
"20 -138 CURVE SMOOTH"
);
}
);
width = 600;
},
{
associatedMasterId = "E2083702-67E7-471D-AE09-DB685EF5235E";
guideLines = (
{
angle = 90;
position = "{20, 307}";
},
{
position = "{20, 50}";
}
);
layerId = "2999F988-BFD4-4308-98DD-4EF3E4F2E25E";
name = "Nov 12 18, 13:55";
paths = (
{
closed = 1;
nodes = (
"433 233 OFFCURVE",
"347 165 OFFCURVE",
"241 165 CURVE SMOOTH",
"135 165 OFFCURVE",
"35 233 OFFCURVE",
"35 315 CURVE SMOOTH",
"35 398 OFFCURVE",
"135 465 OFFCURVE",
"241 465 CURVE SMOOTH",
"347 465 OFFCURVE",
"433 398 OFFCURVE",
"433 315 CURVE SMOOTH"
);
},
{
closed = 0;
nodes = (
"526 465 LINE",
"241 465 LINE"
);
},
{
closed = 0;
nodes = (
"241 165 LINE",
"35 35 LINE",
"287 83 OFFCURVE",
"433 58 OFFCURVE",
"433 -47 CURVE SMOOTH",
"433 -161 OFFCURVE",
"192 -211 OFFCURVE",
"35 -112 CURVE SMOOTH"
);
}
);
width = 600;
}
);
unicode = 0067;
},
{
color = 3;
glyphname = h;
lastChange = "2019-01-25 15:45:45 +0000";
layers = (
{
layerId = "E2083702-67E7-471D-AE09-DB685EF5235E";
paths = (
{
closed = 1;
nodes = (
"84 0 OFFCURVE",
"100 16 OFFCURVE",
"100 35 CURVE SMOOTH",
"100 346 LINE",
"158 369 OFFCURVE",
"319 430 OFFCURVE",
"415 430 CURVE SMOOTH",
"437 430 OFFCURVE",
"438 428 OFFCURVE",
"438 415 CURVE SMOOTH",
"438 35 LINE SMOOTH",
"438 16 OFFCURVE",
"454 0 OFFCURVE",
"473 0 CURVE SMOOTH",
"492 0 OFFCURVE",
"508 16 OFFCURVE",
"508 35 CURVE SMOOTH",
"508 415 LINE SMOOTH",
"508 470 OFFCURVE",
"474 500 OFFCURVE",
"415 500 CURVE SMOOTH",
"320 500 OFFCURVE",
"175 449 OFFCURVE",
"100 421 CURVE",
"100 665 LINE SMOOTH",
"100 684 OFFCURVE",
"84 700 OFFCURVE",
"65 700 CURVE SMOOTH",
"46 700 OFFCURVE",
"30 684 OFFCURVE",
"30 665 CURVE SMOOTH",
"30 35 LINE SMOOTH",
"30 16 OFFCURVE",
"46 0 OFFCURVE",
"65 0 CURVE SMOOTH"
);
}
);
width = 538;
},
{
associatedMasterId = "E2083702-67E7-471D-AE09-DB685EF5235E";
layerId = "EFDAC659-7265-40BD-AE35-103FB483E2DF";
name = path;
paths = (
{
closed = 0;
nodes = (
"20 700 LINE",
"112 700 LINE",
"112 0 LINE"
);
},
{
closed = 0;
nodes = (
"112 404 LINE",
"112 404 OFFCURVE",
"195 500 OFFCURVE",
"462 500 CURVE SMOOTH",
"478 500 OFFCURVE",
"520 492 OFFCURVE",
"520 450 CURVE SMOOTH",
"520 0 LINE"
);
},
{
closed = 0;
nodes = (
"520 417 LINE"
);
}
);
width = 600;
},
{
associatedMasterId = "E2083702-67E7-471D-AE09-DB685EF5235E";
layerId = "3DC347E8-623B-4504-98BD-9548161EB2A4";
name = "Nov 21 18, 15:09";
paths = (
{
closed = 0;
nodes = (
"10 665 LINE",
"122 665 LINE",
"122 35 LINE"
);
},
{
closed = 0;
nodes = (
"480 35 LINE",
"480 415 LINE SMOOTH",
"480 450 OFFCURVE",
"457 465 OFFCURVE",
"422 465 CURVE",
"313 465 LINE",
"243 465 OFFCURVE",
"163 421 OFFCURVE",
"122 354 CURVE"
);
}
);
width = 600;
},
{
associatedMasterId = "E2083702-67E7-471D-AE09-DB685EF5235E";
layerId = "5914B7B9-391C-48D8-8B14-F41158E58A26";
name = "Dec 11 18, 12:52";
paths = (
{
closed = 0;
nodes = (
"113 665 LINE",
"113 35 LINE"
);
},
{
closed = 0;
nodes = (
"113 369 LINE",
"113 369 OFFCURVE",
"338 465 OFFCURVE",
"463 465 CURVE SMOOTH",
"489 465 OFFCURVE",
"521 460 OFFCURVE",
"521 415 CURVE SMOOTH",
"521 35 LINE"
);
}
);
width = 600;
}
);
unicode = 0068;
},
{
color = 3;
glyphname = i;
lastChange = "2019-01-25 15:45:45 +0000";
layers = (
{
layerId = "E2083702-67E7-471D-AE09-DB685EF5235E";
paths = (
{
closed = 1;
nodes = (
"99 0 OFFCURVE",
"115 16 OFFCURVE",
"115 35 CURVE SMOOTH",
"115 465 LINE SMOOTH",
"115 484 OFFCURVE",
"99 500 OFFCURVE",
"80 500 CURVE SMOOTH",
"61 500 OFFCURVE",
"45 484 OFFCURVE",
"45 465 CURVE SMOOTH",
"45 35 LINE SMOOTH",
"45 16 OFFCURVE",
"61 0 OFFCURVE",
"80 0 CURVE SMOOTH"
);
},
{
closed = 1;
nodes = (
"108 600 OFFCURVE",
"130 623 OFFCURVE",
"130 650 CURVE SMOOTH",
"130 678 OFFCURVE",
"107 700 OFFCURVE",
"80 700 CURVE SMOOTH",
"53 700 OFFCURVE",
"30 677 OFFCURVE",
"30 650 CURVE SMOOTH",
"30 623 OFFCURVE",
"53 600 OFFCURVE",
"80 600 CURVE SMOOTH"
);
}
);
width = 160;
},
{
associatedMasterId = "E2083702-67E7-471D-AE09-DB685EF5235E";
layerId = "425CDDA3-6754-46D4-A5DF-134E56D6C5DA";
name = path;
paths = (
{
closed = 0;
nodes = (
"300 500 LINE",
"300 0 LINE"
);
}
);
width = 600;
},
{
associatedMasterId = "E2083702-67E7-471D-AE09-DB685EF5235E";
layerId = "BB68987F-433E-492C-91FA-283B145D86BD";
name = "Nov 21 18, 15:27";
paths = (
{
closed = 0;
nodes = (
"122 465 LINE",
"122 35 LINE"
);
},
{
closed = 1;
nodes = (
"130 635 OFFCURVE",
"137 642 OFFCURVE",
"137 650 CURVE SMOOTH",
"137 658 OFFCURVE",
"130 665 OFFCURVE",
"122 665 CURVE SMOOTH",
"114 665 OFFCURVE",
"107 658 OFFCURVE",
"107 650 CURVE SMOOTH",
"107 642 OFFCURVE",
"114 635 OFFCURVE",
"122 635 CURVE SMOOTH"
);
}
);
width = 180;
}
);
unicode = 0069;
},
{
color = 3;
glyphname = j;
lastChange = "2019-01-25 15:45:45 +0000";
layers = (
{
guideLines = (
{
angle = 90;
position = "{216, 500}";
}
);
layerId = "E2083702-67E7-471D-AE09-DB685EF5235E";
paths = (
{
closed = 1;
nodes = (
"186 -200 OFFCURVE",
"262 -109 OFFCURVE",
"262 35 CURVE SMOOTH",
"262 465 LINE SMOOTH",
"262 484 OFFCURVE",
"246 500 OFFCURVE",
"227 500 CURVE SMOOTH",
"208 500 OFFCURVE",
"192 484 OFFCURVE",
"192 465 CURVE SMOOTH",
"192 35 LINE SMOOTH",
"192 -71 OFFCURVE",
"145 -130 OFFCURVE",
"65 -130 CURVE SMOOTH",
"46 -130 OFFCURVE",
"30 -146 OFFCURVE",
"30 -165 CURVE SMOOTH",
"30 -184 OFFCURVE",
"46 -200 OFFCURVE",
"65 -200 CURVE SMOOTH"
);
},
{
closed = 1;
nodes = (
"255 600 OFFCURVE",
"277 623 OFFCURVE",
"277 650 CURVE SMOOTH",
"277 678 OFFCURVE",
"254 700 OFFCURVE",
"227 700 CURVE SMOOTH",
"200 700 OFFCURVE",
"177 677 OFFCURVE",
"177 650 CURVE SMOOTH",
"177 623 OFFCURVE",
"200 600 OFFCURVE",
"227 600 CURVE SMOOTH"
);
}
);
width = 307;
},
{
associatedMasterId = "E2083702-67E7-471D-AE09-DB685EF5235E";
layerId = "1769E6A0-73F0-4935-ABEB-DCAEEFB260A9";
name = path;
paths = (
{
closed = 0;
nodes = (
"300 500 LINE",
"300 40 LINE",
"300 -49 OFFCURVE",
"269 -79 OFFCURVE",
"219 -120 CURVE"
);
}
);
visible = 1;
width = 600;
},
{
associatedMasterId = "E2083702-67E7-471D-AE09-DB685EF5235E";
layerId = "3F040B68-E9F8-4457-B272-774D94542C8F";
name = "Nov 22 18, 13:38";
paths = (
{
closed = 0;
nodes = (
"122 465 LINE",
"122 35 LINE SMOOTH",
"122 -86 OFFCURVE",
"64 -165 OFFCURVE",
"-40 -165 CURVE"
);
},
{
closed = 1;
nodes = (
"130 635 OFFCURVE",
"137 642 OFFCURVE",
"137 650 CURVE SMOOTH",
"137 658 OFFCURVE",
"130 665 OFFCURVE",
"122 665 CURVE SMOOTH",
"114 665 OFFCURVE",
"107 658 OFFCURVE",
"107 650 CURVE SMOOTH",
"107 642 OFFCURVE",
"114 635 OFFCURVE",
"122 635 CURVE SMOOTH"
);
}
);
width = 600;
}
);
unicode = 006A;
},
{
color = 3;
glyphname = k;
lastChange = "2019-01-25 15:45:46 +0000";
layers = (
{
layerId = "E2083702-67E7-471D-AE09-DB685EF5235E";
paths = (
{
closed = 1;
nodes = (
"84 0 OFFCURVE",
"100 16 OFFCURVE",
"100 35 CURVE SMOOTH",
"100 235 LINE",
"165 284 LINE",
"320 18 LINE SMOOTH",
"326 7 OFFCURVE",
"338 0 OFFCURVE",
"351 0 CURVE SMOOTH",
"370 0 OFFCURVE",
"386 16 OFFCURVE",
"386 35 CURVE SMOOTH",
"386 42 OFFCURVE",
"384 48 OFFCURVE",
"381 53 CURVE SMOOTH",
"222 326 LINE",
"369 437 LINE SMOOTH",
"377 443 OFFCURVE",
"383 453 OFFCURVE",
"383 465 CURVE SMOOTH",
"383 484 OFFCURVE",
"367 500 OFFCURVE",
"348 500 CURVE SMOOTH",
"340 500 OFFCURVE",
"333 497 OFFCURVE",
"327 493 CURVE SMOOTH",
"100 322 LINE",
"100 665 LINE SMOOTH",
"100 684 OFFCURVE",
"84 700 OFFCURVE",
"65 700 CURVE SMOOTH",
"46 700 OFFCURVE",
"30 684 OFFCURVE",
"30 665 CURVE SMOOTH",
"30 35 LINE SMOOTH",
"30 16 OFFCURVE",
"46 0 OFFCURVE",
"65 0 CURVE SMOOTH"
);
}
);
width = 416;
},
{
associatedMasterId = "E2083702-67E7-471D-AE09-DB685EF5235E";
layerId = "2279075C-0BB8-4478-BF11-DD480D1A2C6E";
name = "Nov 21 18, 16:57";
paths = (
{
closed = 0;
nodes = (
"160 35 LINE",
"160 665 LINE"
);
},
{
closed = 0;
nodes = (
"160 250 LINE",
"352 465 LINE"
);
},
{
closed = 0;
nodes = (
"352 35 LINE",
"192 286 LINE"
);
}
);
width = 600;
},
{
associatedMasterId = "E2083702-67E7-471D-AE09-DB685EF5235E";
layerId = "AEEBDDFF-C93F-4557-9B68-CB6778CA4CB8";
name = "Nov 21 18, 16:57";
paths = (
{
closed = 0;
nodes = (
"160 35 LINE",
"160 665 LINE"
);
},
{
closed = 0;
nodes = (
"160 250 LINE",
"352 465 LINE"
);
},
{
closed = 0;
nodes = (
"402 35 LINE",
"228 326 LINE"
);
}
);
width = 600;
},
{
associatedMasterId = "E2083702-67E7-471D-AE09-DB685EF5235E";
layerId = "5D4E7AE5-4C47-4AFD-A247-039F8AC3BBCF";
name = "Nov 21 18, 16:57";
paths = (
{
closed = 0;
nodes = (
"160 35 LINE",
"160 665 LINE"
);
},
{
closed = 0;
nodes = (
"350 35 LINE",
"160 250 LINE",
"350 465 LINE"
);
}
);
width = 600;
},
{
associatedMasterId = "E2083702-67E7-471D-AE09-DB685EF5235E";
layerId = "39436670-762B-453A-8962-B1B8F2DEF808";
name = "Nov 21 18, 16:58";
paths = (
{
closed = 0;
nodes = (
"160 35 LINE",
"160 665 LINE"
);
},
{
closed = 0;
nodes = (
"160 250 LINE",
"382 465 LINE"
);
},
{
closed = 0;
nodes = (
"370 35 LINE",
"232 318 LINE"
);
}
);
width = 600;
},
{
associatedMasterId = "E2083702-67E7-471D-AE09-DB685EF5235E";
layerId = "A3493477-67F1-45A6-A6E0-9AE699BF794D";
name = "Dec 11 18, 13:32";
paths = (
{
closed = 0;
nodes = (
"35 665 LINE",
"35 35 LINE"
);
},
{
closed = 0;
nodes = (
"318 465 LINE",
"36 253 LINE",
"91 294 OFFCURVE",
"170 320 OFFCURVE",
"220 276 CURVE SMOOTH",
"270 232 OFFCURVE",
"325 101 OFFCURVE",
"340 35 CURVE SMOOTH"
);
}
);
width = 600;
},
{
associatedMasterId = "E2083702-67E7-471D-AE09-DB685EF5235E";
layerId = "12E11D05-4DD8-4110-A811-B1B7ED1F3CE6";
name = "Dec 13 18, 10:51";
paths = (
{
closed = 0;
nodes = (
"35 665 LINE",
"35 35 LINE"
);
},
{
closed = 0;
nodes = (
"318 465 LINE",
"36 253 LINE"
);
},
{
closed = 0;
nodes = (
"146 335 LINE",
"321 35 LINE"
);
}
);
width = 600;
}
);
unicode = 006B;
},
{
color = 3;
glyphname = l;
lastChange = "2019-01-25 15:45:45 +0000";
layers = (
{
layerId = "E2083702-67E7-471D-AE09-DB685EF5235E";
paths = (
{
closed = 1;
nodes = (
"84 0 OFFCURVE",
"100 16 OFFCURVE",
"100 35 CURVE SMOOTH",
"100 665 LINE SMOOTH",
"100 684 OFFCURVE",
"84 700 OFFCURVE",
"65 700 CURVE SMOOTH",
"46 700 OFFCURVE",
"30 684 OFFCURVE",
"30 665 CURVE SMOOTH",
"30 35 LINE SMOOTH",
"30 16 OFFCURVE",
"46 0 OFFCURVE",
"65 0 CURVE SMOOTH"
);
}
);
width = 130;
},
{
associatedMasterId = "E2083702-67E7-471D-AE09-DB685EF5235E";
layerId = "8896AB9E-187E-4671-A1FC-AD298ED553AB";
name = path;
paths = (
{
closed = 0;
nodes = (
"300 700 LINE",
"300 0 LINE"
);
}
);
width = 600;
},
{
associatedMasterId = "E2083702-67E7-471D-AE09-DB685EF5235E";
layerId = "24E4DAD8-79D6-4339-AEA5-4400A6DAB6F7";
name = "Nov 21 18, 15:42";
paths = (
{
closed = 0;
nodes = (
"300 665 LINE",
"300 35 LINE"
);
}
);
width = 600;
}
);
unicode = 006C;
},
{
color = 3;
glyphname = m;
lastChange = "2019-01-25 15:45:45 +0000";
layers = (
{
layerId = "E2083702-67E7-471D-AE09-DB685EF5235E";
paths = (
{
closed = 1;
nodes = (
"84 0 OFFCURVE",
"100 16 OFFCURVE",
"100 35 CURVE SMOOTH",
"100 346 LINE",
"158 369 OFFCURVE",
"319 430 OFFCURVE",
"415 430 CURVE SMOOTH",
"437 430 OFFCURVE",
"438 428 OFFCURVE",
"438 415 CURVE SMOOTH",
"438 35 LINE SMOOTH",
"438 16 OFFCURVE",
"454 0 OFFCURVE",
"473 0 CURVE SMOOTH",
"492 0 OFFCURVE",
"508 16 OFFCURVE",
"508 35 CURVE SMOOTH",
"508 346 LINE",
"566 369 OFFCURVE",
"727 430 OFFCURVE",
"823 430 CURVE SMOOTH",
"845 430 OFFCURVE",
"846 428 OFFCURVE",
"846 415 CURVE SMOOTH",
"846 35 LINE SMOOTH",
"846 16 OFFCURVE",
"862 0 OFFCURVE",
"881 0 CURVE SMOOTH",
"900 0 OFFCURVE",
"916 16 OFFCURVE",
"916 35 CURVE SMOOTH",
"916 415 LINE SMOOTH",
"916 470 OFFCURVE",
"882 500 OFFCURVE",
"823 500 CURVE SMOOTH",
"728 500 OFFCURVE",
"583 449 OFFCURVE",
"508 421 CURVE",
"506 472 OFFCURVE",
"472 500 OFFCURVE",
"415 500 CURVE SMOOTH",
"320 500 OFFCURVE",
"175 449 OFFCURVE",
"100 421 CURVE",
"100 465 LINE SMOOTH",
"100 484 OFFCURVE",
"84 500 OFFCURVE",
"65 500 CURVE SMOOTH",
"46 500 OFFCURVE",
"30 484 OFFCURVE",
"30 465 CURVE SMOOTH",
"30 35 LINE SMOOTH",
"30 16 OFFCURVE",
"46 0 OFFCURVE",
"65 0 CURVE SMOOTH"
);
}
);
width = 946;
},
{
associatedMasterId = "E2083702-67E7-471D-AE09-DB685EF5235E";
layerId = "57A5EC8D-AD82-46A5-B562-6115CD37BFE2";
name = "Dec 11 18, 12:47";
paths = (
{
closed = 0;
nodes = (
"21 465 LINE",
"113 465 LINE",
"113 35 LINE"
);
},
{
closed = 0;
nodes = (
"113 369 LINE",
"113 369 OFFCURVE",
"338 465 OFFCURVE",
"463 465 CURVE SMOOTH",
"489 465 OFFCURVE",
"521 460 OFFCURVE",
"521 415 CURVE SMOOTH",
"521 35 LINE"
);
},
{
closed = 0;
nodes = (
"521 369 LINE",
"521 369 OFFCURVE",
"746 465 OFFCURVE",
"871 465 CURVE SMOOTH",
"897 465 OFFCURVE",
"929 460 OFFCURVE",
"929 415 CURVE SMOOTH",
"929 35 LINE"
);
},
{
closed = 0;
nodes = (
"21 465 LINE",
"113 465 LINE",
"113 35 LINE"
);
},
{
closed = 0;
nodes = (
"113 369 LINE",
"113 369 OFFCURVE",
"338 465 OFFCURVE",
"463 465 CURVE SMOOTH",
"489 465 OFFCURVE",
"521 460 OFFCURVE",
"521 415 CURVE SMOOTH",
"521 35 LINE"
);
},
{
closed = 0;
nodes = (
"521 369 LINE",
"521 369 OFFCURVE",
"746 465 OFFCURVE",
"871 465 CURVE SMOOTH",
"897 465 OFFCURVE",
"929 460 OFFCURVE",
"929 415 CURVE SMOOTH",
"929 35 LINE"
);
}
);
width = 600;
},
{
associatedMasterId = "E2083702-67E7-471D-AE09-DB685EF5235E";
layerId = "3C67D7E5-AEB7-4E20-9DF0-4BE293111E06";
name = "Dec 11 18, 13:20";
paths = (
{
closed = 0;
nodes = (
"113 465 LINE",
"113 35 LINE"
);
},
{
closed = 0;
nodes = (
"113 369 LINE",
"113 369 OFFCURVE",
"338 465 OFFCURVE",
"463 465 CURVE SMOOTH",
"489 465 OFFCURVE",
"521 460 OFFCURVE",
"521 415 CURVE SMOOTH",
"521 35 LINE"
);
},
{
closed = 0;
nodes = (
"521 369 LINE",
"521 369 OFFCURVE",
"746 465 OFFCURVE",
"871 465 CURVE SMOOTH",
"897 465 OFFCURVE",
"929 460 OFFCURVE",
"929 415 CURVE SMOOTH",
"929 35 LINE"
);
},
{
closed = 0;
nodes = (
"113 465 LINE",
"113 35 LINE"
);
},
{
closed = 0;
nodes = (
"113 369 LINE",
"113 369 OFFCURVE",
"338 465 OFFCURVE",
"463 465 CURVE SMOOTH",
"489 465 OFFCURVE",
"521 460 OFFCURVE",
"521 415 CURVE SMOOTH",
"521 35 LINE"
);
},
{
closed = 0;
nodes = (
"521 369 LINE",
"521 369 OFFCURVE",
"746 465 OFFCURVE",
"871 465 CURVE SMOOTH",
"897 465 OFFCURVE",
"929 460 OFFCURVE",
"929 415 CURVE SMOOTH",
"929 35 LINE"
);
}
);
width = 600;
}
);
unicode = 006D;
},
{
color = 3;
glyphname = n;
lastChange = "2019-01-25 15:45:45 +0000";
layers = (
{
layerId = "E2083702-67E7-471D-AE09-DB685EF5235E";
paths = (
{
closed = 1;
nodes = (
"84 0 OFFCURVE",
"100 16 OFFCURVE",
"100 35 CURVE SMOOTH",
"100 346 LINE",
"158 369 OFFCURVE",
"319 430 OFFCURVE",
"415 430 CURVE SMOOTH",
"437 430 OFFCURVE",
"438 428 OFFCURVE",
"438 415 CURVE SMOOTH",
"438 35 LINE SMOOTH",
"438 16 OFFCURVE",
"454 0 OFFCURVE",
"473 0 CURVE SMOOTH",
"492 0 OFFCURVE",
"508 16 OFFCURVE",
"508 35 CURVE SMOOTH",
"508 415 LINE SMOOTH",
"508 470 OFFCURVE",
"474 500 OFFCURVE",
"415 500 CURVE SMOOTH",
"320 500 OFFCURVE",
"175 449 OFFCURVE",
"100 421 CURVE",
"100 465 LINE SMOOTH",
"100 484 OFFCURVE",
"84 500 OFFCURVE",
"65 500 CURVE SMOOTH",
"46 500 OFFCURVE",
"30 484 OFFCURVE",
"30 465 CURVE SMOOTH",
"30 35 LINE SMOOTH",
"30 16 OFFCURVE",
"46 0 OFFCURVE",
"65 0 CURVE SMOOTH"
);
}
);
width = 538;
},
{
associatedMasterId = "E2083702-67E7-471D-AE09-DB685EF5235E";
layerId = "0D6C8E10-9BBD-431D-8335-67A5A57CD8F9";
name = "Nov 28 18, 15:10";
paths = (
{
closed = 0;
nodes = (
"21 500 LINE",
"113 500 LINE",
"113 0 LINE"
);
},
{
closed = 0;
nodes = (
"113 404 LINE",
"113 402 OFFCURVE",
"196 500 OFFCURVE",
"463 500 CURVE SMOOTH",
"479 500 OFFCURVE",
"521 492 OFFCURVE",
"521 450 CURVE SMOOTH",
"521 0 LINE"
);
},
{
closed = 0;
nodes = (
"521 417 LINE"
);
}
);
width = 600;
},
{
associatedMasterId = "E2083702-67E7-471D-AE09-DB685EF5235E";
layerId = "B5622AB2-AEBA-4518-931C-7F7518ADCE37";
name = "Nov 28 18, 15:11";
paths = (
{
closed = 0;
nodes = (
"21 500 LINE",
"113 500 LINE",
"113 0 LINE"
);
},
{
closed = 0;
nodes = (
"113 404 LINE",
"113 404 OFFCURVE",
"338 500 OFFCURVE",
"463 500 CURVE SMOOTH",
"489 500 OFFCURVE",
"521 495 OFFCURVE",
"521 450 CURVE SMOOTH",
"521 0 LINE"
);
},
{
closed = 0;
nodes = (
"521 417 LINE"
);
}
);
visible = 1;
width = 600;
},
{
associatedMasterId = "E2083702-67E7-471D-AE09-DB685EF5235E";
layerId = "7DEB1A91-9AC6-4A48-A4C9-CDC4C0D1FC69";
name = "Dec 11 18, 13:00";
paths = (
{
closed = 0;
nodes = (
"21 465 LINE",
"113 465 LINE",
"113 35 LINE"
);
},
{
closed = 0;
nodes = (
"113 369 LINE",
"113 369 OFFCURVE",
"338 465 OFFCURVE",
"463 465 CURVE SMOOTH",
"489 465 OFFCURVE",
"521 460 OFFCURVE",
"521 415 CURVE SMOOTH",
"521 35 LINE"
);
}
);
width = 600;
}
);
unicode = 006E;
},
{
color = 3;
glyphname = o;
lastChange = "2019-01-25 15:45:45 +0000";
layers = (
{
layerId = "E2083702-67E7-471D-AE09-DB685EF5235E";
paths = (
{
closed = 1;
nodes = (
"525 0 OFFCURVE",
"660 106 OFFCURVE",
"660 251 CURVE SMOOTH",
"660 394 OFFCURVE",
"525 500 OFFCURVE",
"346 500 CURVE SMOOTH",
"166 500 OFFCURVE",
"30 394 OFFCURVE",
"30 251 CURVE SMOOTH",
"30 107 OFFCURVE",
"167 0 OFFCURVE",
"346 0 CURVE SMOOTH"
);
},
{
closed = 1;
nodes = (
"204 70 OFFCURVE",
"100 148 OFFCURVE",
"100 251 CURVE SMOOTH",
"100 353 OFFCURVE",
"204 430 OFFCURVE",
"346 430 CURVE SMOOTH",
"487 430 OFFCURVE",
"590 353 OFFCURVE",
"590 251 CURVE SMOOTH",
"590 148 OFFCURVE",
"487 70 OFFCURVE",
"346 70 CURVE SMOOTH"
);
}
);
width = 690;
},
{
associatedMasterId = "E2083702-67E7-471D-AE09-DB685EF5235E";
layerId = "18696772-2C68-43D2-825F-685E0B0831F2";
name = "Dec 11 18, 12:45";
paths = (
{
closed = 1;
nodes = (
"579 0 OFFCURVE",
"724 112 OFFCURVE",
"724 251 CURVE SMOOTH",
"724 388 OFFCURVE",
"579 500 OFFCURVE",
"400 500 CURVE SMOOTH",
"220 500 OFFCURVE",
"74 388 OFFCURVE",
"74 251 CURVE SMOOTH",
"74 112 OFFCURVE",
"220 0 OFFCURVE",
"400 0 CURVE SMOOTH"
);
}
);
width = 600;
},
{
associatedMasterId = "E2083702-67E7-471D-AE09-DB685EF5235E";
layerId = "83AC7D1F-D561-4B76-B3CE-FF5CF6D53DD6";
name = "Dec 11 18, 12:48";
paths = (
{
closed = 1;
nodes = (
"510 35 OFFCURVE",
"634 123 OFFCURVE",
"634 251 CURVE SMOOTH",
"634 378 OFFCURVE",
"510 465 OFFCURVE",
"355 465 CURVE SMOOTH",
"200 465 OFFCURVE",
"74 378 OFFCURVE",
"74 251 CURVE SMOOTH",
"74 123 OFFCURVE",
"200 35 OFFCURVE",
"355 35 CURVE SMOOTH"
);
}
);
width = 600;
}
);
unicode = 006F;
},
{
color = 3;
glyphname = p;
lastChange = "2019-01-25 15:45:45 +0000";
layers = (
{
layerId = "E2083702-67E7-471D-AE09-DB685EF5235E";
paths = (
{
closed = 1;
nodes = (
"84 -200 OFFCURVE",
"100 -184 OFFCURVE",
"100 -165 CURVE SMOOTH",
"100 91 LINE",
"157 35 OFFCURVE",
"242 0 OFFCURVE",
"338 0 CURVE SMOOTH",
"510 0 OFFCURVE",
"648 111 OFFCURVE",
"648 251 CURVE SMOOTH",
"648 390 OFFCURVE",
"510 500 OFFCURVE",
"338 500 CURVE SMOOTH",
"242 500 OFFCURVE",
"156 465 OFFCURVE",
"100 409 CURVE",
"100 465 LINE SMOOTH",
"100 484 OFFCURVE",
"84 500 OFFCURVE",
"65 500 CURVE SMOOTH",
"46 500 OFFCURVE",
"30 484 OFFCURVE",
"30 465 CURVE SMOOTH",
"30 -165 LINE SMOOTH",
"30 -184 OFFCURVE",
"46 -200 OFFCURVE",
"65 -200 CURVE SMOOTH"
);
},
{
closed = 1;
nodes = (
"206 70 OFFCURVE",
"100 152 OFFCURVE",
"100 251 CURVE SMOOTH",
"100 349 OFFCURVE",
"206 430 OFFCURVE",
"338 430 CURVE SMOOTH",
"471 430 OFFCURVE",
"578 349 OFFCURVE",
"578 251 CURVE SMOOTH",
"578 151 OFFCURVE",
"472 70 OFFCURVE",
"338 70 CURVE SMOOTH"
);
}
);
width = 678;
},
{
associatedMasterId = "E2083702-67E7-471D-AE09-DB685EF5235E";
layerId = "B5781A85-D598-42AD-A3D0-BB78A3262FD2";
name = path;
paths = (
{
closed = 0;
nodes = (
"20 500 LINE",
"112 500 LINE",
"112 -200 LINE"
);
},
{
closed = 1;
nodes = (
"612 0 OFFCURVE",
"756 112 OFFCURVE",
"756 251 CURVE SMOOTH",
"756 388 OFFCURVE",
"612 500 OFFCURVE",
"435 500 CURVE SMOOTH",
"256 500 OFFCURVE",
"112 388 OFFCURVE",
"112 251 CURVE SMOOTH",
"112 112 OFFCURVE",
"256 0 OFFCURVE",
"435 0 CURVE SMOOTH"
);
}
);
width = 600;
},
{
associatedMasterId = "E2083702-67E7-471D-AE09-DB685EF5235E";
layerId = "C28EB538-7C33-4A2F-8993-60824F184106";
name = "path 2";
paths = (
{
closed = 0;
nodes = (
"15 500 LINE",
"380 500 LINE SMOOTH",
"565 500 OFFCURVE",
"691 415 OFFCURVE",
"691 251 CURVE SMOOTH",
"691 112 OFFCURVE",
"587 0 OFFCURVE",
"410 0 CURVE SMOOTH",
"213 0 OFFCURVE",
"107 174 OFFCURVE",
"107 363 CURVE"
);
},
{
closed = 0;
nodes = (
"107 -200 LINE",
"107 500 LINE"
);
}
);
width = 721;
},
{
associatedMasterId = "E2083702-67E7-471D-AE09-DB685EF5235E";
layerId = "0B5589CC-A2B0-4B9D-BC6D-E08D927910B9";
name = "NUDDLE 2";
paths = (
{
closed = 1;
nodes = (
"152 -245 OFFCURVE",
"172 -225 OFFCURVE",
"172 -200 CURVE SMOOTH",
"172 79 LINE",
"234 1 OFFCURVE",
"344 -45 OFFCURVE",
"450 -45 CURVE SMOOTH",
"641 -45 OFFCURVE",
"776 77 OFFCURVE",
"776 251 CURVE SMOOTH",
"776 433 OFFCURVE",
"619 545 OFFCURVE",
"400 545 CURVE SMOOTH",
"15 545 LINE SMOOTH",
"-9.853 545 OFFCURVE",
"-30 524.853 OFFCURVE",
"-30 500 CURVE SMOOTH",
"-30 475.147 OFFCURVE",
"-9.853 455 OFFCURVE",
"15 455 CURVE SMOOTH",
"82 455 LINE",
"82 -200 LINE SMOOTH",
"82 -225 OFFCURVE",
"102 -245 OFFCURVE",
"127 -245 CURVE SMOOTH"
);
},
{
closed = 1;
nodes = (
"297 45 OFFCURVE",
"172 175 OFFCURVE",
"172 363 CURVE SMOOTH",
"172 455 LINE",
"400 455 LINE SMOOTH",
"571 455 OFFCURVE",
"686 380 OFFCURVE",
"686 251 CURVE SMOOTH",
"686 128 OFFCURVE",
"592 45 OFFCURVE",
"450 45 CURVE SMOOTH"
);
}
);
width = 806;
},
{
associatedMasterId = "E2083702-67E7-471D-AE09-DB685EF5235E";
layerId = "05012E77-73F0-4293-B1AC-F182C915DC8D";
name = "Nov 21 18, 16:07";
paths = (
{
closed = 0;
nodes = (
"35 251 LINE",
"35 131 OFFCURVE",
"131 35 OFFCURVE",
"250 35 CURVE SMOOTH",
"370 35 OFFCURVE",
"466 131 OFFCURVE",
"466 251 CURVE SMOOTH",
"466 369 OFFCURVE",
"370 465 OFFCURVE",
"250 465 CURVE SMOOTH",
"-36 465 LINE"
);
},
{
closed = 0;
nodes = (
"35 465 LINE",
"35 -165 LINE"
);
}
);
width = 806;
},
{
associatedMasterId = "E2083702-67E7-471D-AE09-DB685EF5235E";
layerId = "1859863B-160C-4017-A7FF-52BD099B557C";
name = "Nov 21 18, 16:08";
paths = (
{
closed = 1;
nodes = (
"131 465 OFFCURVE",
"35 369 OFFCURVE",
"35 251 CURVE SMOOTH",
"35 131 OFFCURVE",
"131 35 OFFCURVE",
"250 35 CURVE SMOOTH",
"370 35 OFFCURVE",
"466 131 OFFCURVE",
"466 251 CURVE SMOOTH",
"466 369 OFFCURVE",
"370 465 OFFCURVE",
"250 465 CURVE SMOOTH"
);
},
{
closed = 0;
nodes = (
"35 465 LINE",
"35 -165 LINE"
);
}
);
visible = 1;
width = 806;
},
{
associatedMasterId = "E2083702-67E7-471D-AE09-DB685EF5235E";
layerId = "4021172D-3BEA-4715-97BB-994BA42CEF0D";
name = Nuddle3;
paths = (
{
closed = 1;
nodes = (
"140 -200 OFFCURVE",
"156 -184 OFFCURVE",
"156 -165 CURVE SMOOTH",
"156 77 LINE",
"201 29 OFFCURVE",
"265 0 OFFCURVE",
"336 0 CURVE SMOOTH",
"475 0 OFFCURVE",
"587 112 OFFCURVE",
"587 251 CURVE SMOOTH",
"587 389 OFFCURVE",
"475 500 OFFCURVE",
"336 500 CURVE SMOOTH",
"50 500 LINE SMOOTH",
"31 500 OFFCURVE",
"15 484 OFFCURVE",
"15 465 CURVE SMOOTH",
"15 446 OFFCURVE",
"31 430 OFFCURVE",
"50 430 CURVE SMOOTH",
"86 430 LINE",
"86 -165 LINE SMOOTH",
"86 -184 OFFCURVE",
"102 -200 OFFCURVE",
"121 -200 CURVE SMOOTH"
);
},
{
closed = 1;
nodes = (
"236 70 OFFCURVE",
"156 151 OFFCURVE",
"156 251 CURVE SMOOTH",
"156 430 LINE",
"336 430 LINE SMOOTH",
"436 430 OFFCURVE",
"517 350 OFFCURVE",
"517 251 CURVE SMOOTH",
"517 150 OFFCURVE",
"437 70 OFFCURVE",
"336 70 CURVE SMOOTH"
);
}
);
width = 602;
},
{
associatedMasterId = "E2083702-67E7-471D-AE09-DB685EF5235E";
layerId = "1D59389B-74D1-4718-9F1D-DF97337D5951";
name = "Dec 11 18, 12:56";
paths = (
{
closed = 1;
nodes = (
"484 465 OFFCURVE",
"599 369 OFFCURVE",
"599 251 CURVE SMOOTH",
"599 131 OFFCURVE",
"484 35 OFFCURVE",
"341 35 CURVE SMOOTH",
"198 35 OFFCURVE",
"84 131 OFFCURVE",
"84 251 CURVE SMOOTH",
"84 369 OFFCURVE",
"198 465 OFFCURVE",
"341 465 CURVE SMOOTH"
);
},
{
closed = 0;
nodes = (
"84 -165 LINE",
"84 465 LINE",
"35 465 LINE"
);
}
);
width = 602;
},
{
associatedMasterId = "E2083702-67E7-471D-AE09-DB685EF5235E";
layerId = "C46DFF24-7134-47D5-99EC-6017DB2DA116";
name = "Dec 11 18, 13:06";
paths = (
{
closed = 1;
nodes = (
"426 465 OFFCURVE",
"532 369 OFFCURVE",
"532 251 CURVE SMOOTH",
"532 131 OFFCURVE",
"426 35 OFFCURVE",
"293 35 CURVE SMOOTH",
"161 35 OFFCURVE",
"55 131 OFFCURVE",
"55 251 CURVE SMOOTH",
"55 369 OFFCURVE",
"161 465 OFFCURVE",
"293 465 CURVE SMOOTH"
);
},
{
closed = 0;
nodes = (
"-37 465 LINE",
"55 465 LINE",
"55 -165 LINE"
);
}
);
width = 602;
},
{
associatedMasterId = "E2083702-67E7-471D-AE09-DB685EF5235E";
layerId = "3817F328-0906-4A4D-B455-944B1D25E892";
name = "Dec 11 18, 13:20";
paths = (
{
closed = 1;
nodes = (
"481 465 OFFCURVE",
"603 369 OFFCURVE",
"603 251 CURVE SMOOTH",
"603 131 OFFCURVE",
"481 35 OFFCURVE",
"328 35 CURVE SMOOTH",
"177 35 OFFCURVE",
"55 131 OFFCURVE",
"55 251 CURVE SMOOTH",
"55 369 OFFCURVE",
"177 465 OFFCURVE",
"328 465 CURVE SMOOTH"
);
},
{
closed = 0;
nodes = (
"55 465 LINE",
"55 -165 LINE"
);
}
);
width = 602;
}
);
unicode = 0070;
},
{
color = 3;
glyphname = q;
lastChange = "2019-01-25 15:45:45 +0000";
layers = (
{
layerId = "E2083702-67E7-471D-AE09-DB685EF5235E";
paths = (
{
closed = 1;
nodes = (
"632 -200 OFFCURVE",
"648 -184 OFFCURVE",
"648 -165 CURVE SMOOTH",
"648 465 LINE SMOOTH",
"648 484 OFFCURVE",
"632 500 OFFCURVE",
"613 500 CURVE SMOOTH",
"594 500 OFFCURVE",
"578 484 OFFCURVE",
"578 465 CURVE SMOOTH",
"578 409 LINE",
"522 465 OFFCURVE",
"436 500 OFFCURVE",
"340 500 CURVE SMOOTH",
"168 500 OFFCURVE",
"30 390 OFFCURVE",
"30 251 CURVE SMOOTH",
"30 111 OFFCURVE",
"168 0 OFFCURVE",
"340 0 CURVE SMOOTH",
"436 0 OFFCURVE",
"521 35 OFFCURVE",
"578 91 CURVE",
"578 -165 LINE SMOOTH",
"578 -184 OFFCURVE",
"594 -200 OFFCURVE",
"613 -200 CURVE SMOOTH"
);
},
{
closed = 1;
nodes = (
"206 70 OFFCURVE",
"100 151 OFFCURVE",
"100 251 CURVE SMOOTH",
"100 349 OFFCURVE",
"207 430 OFFCURVE",
"340 430 CURVE SMOOTH",
"472 430 OFFCURVE",
"578 349 OFFCURVE",
"578 251 CURVE SMOOTH",
"578 152 OFFCURVE",
"472 70 OFFCURVE",
"340 70 CURVE SMOOTH"
);
}
);
width = 678;
},
{
associatedMasterId = "E2083702-67E7-471D-AE09-DB685EF5235E";
layerId = "01F9A2BF-854F-4D8F-A1D9-B8216C8CE61C";
name = path;
paths = (
{
closed = 0;
nodes = (
"756 500 LINE",
"664 500 LINE",
"664 -200 LINE"
);
},
{
closed = 1;
nodes = (
"520 0 OFFCURVE",
"664 112 OFFCURVE",
"664 251 CURVE SMOOTH",
"664 388 OFFCURVE",
"520 500 OFFCURVE",
"341 500 CURVE SMOOTH",
"164 500 OFFCURVE",
"20 388 OFFCURVE",
"20 251 CURVE SMOOTH",
"20 112 OFFCURVE",
"164 0 OFFCURVE",
"341 0 CURVE SMOOTH"
);
}
);
width = 600;
},
{
associatedMasterId = "E2083702-67E7-471D-AE09-DB685EF5235E";
layerId = "01AB41BB-20A2-4E3F-AD75-0BA642307F61";
name = "Nov 22 18, 13:38";
paths = (
{
closed = 1;
nodes = (
"131 465 OFFCURVE",
"35 369 OFFCURVE",
"35 251 CURVE SMOOTH",
"35 131 OFFCURVE",
"131 35 OFFCURVE",
"251 35 CURVE SMOOTH",
"370 35 OFFCURVE",
"466 131 OFFCURVE",
"466 251 CURVE SMOOTH",
"466 369 OFFCURVE",
"370 465 OFFCURVE",
"251 465 CURVE SMOOTH"
);
},
{
closed = 0;
nodes = (
"466 465 LINE",
"466 -165 LINE"
);
}
);
width = 600;
},
{
associatedMasterId = "E2083702-67E7-471D-AE09-DB685EF5235E";
layerId = "3DFAD481-667C-493E-B533-F96E6D11F397";
name = "Dec 11 18, 12:57";
paths = (
{
closed = 1;
nodes = (
"364 465 OFFCURVE",
"470 369 OFFCURVE",
"470 251 CURVE SMOOTH",
"470 131 OFFCURVE",
"364 35 OFFCURVE",
"232 35 CURVE SMOOTH",
"99 35 OFFCURVE",
"-7 131 OFFCURVE",
"-7 251 CURVE SMOOTH",
"-7 369 OFFCURVE",
"99 465 OFFCURVE",
"232 465 CURVE SMOOTH"
);
},
{
closed = 0;
nodes = (
"532 465 LINE",
"470 465 LINE",
"470 -165 LINE"
);
}
);
width = 561;
},
{
associatedMasterId = "E2083702-67E7-471D-AE09-DB685EF5235E";
layerId = "D8FCFD14-1C81-4B1D-A243-BC9A6F681B6A";
name = "Dec 11 18, 13:08";
paths = (
{
closed = 1;
nodes = (
"334 465 OFFCURVE",
"440 369 OFFCURVE",
"440 251 CURVE SMOOTH",
"440 131 OFFCURVE",
"334 35 OFFCURVE",
"202 35 CURVE SMOOTH",
"69 35 OFFCURVE",
"-37 131 OFFCURVE",
"-37 251 CURVE SMOOTH",
"-37 369 OFFCURVE",
"69 465 OFFCURVE",
"202 465 CURVE SMOOTH"
);
},
{
closed = 0;
nodes = (
"532 465 LINE",
"440 465 LINE",
"440 -165 LINE"
);
}
);
width = 561;
},
{
associatedMasterId = "E2083702-67E7-471D-AE09-DB685EF5235E";
layerId = "5CBA7F79-675B-4D18-8831-75112A97CED7";
name = "Dec 11 18, 13:31";
paths = (
{
closed = 1;
nodes = (
"481 465 OFFCURVE",
"603 369 OFFCURVE",
"603 251 CURVE SMOOTH",
"603 131 OFFCURVE",
"481 35 OFFCURVE",
"330 35 CURVE SMOOTH",
"177 35 OFFCURVE",
"55 131 OFFCURVE",
"55 251 CURVE SMOOTH",
"55 369 OFFCURVE",
"177 465 OFFCURVE",
"330 465 CURVE SMOOTH"
);
},
{
closed = 0;
nodes = (
"603 465 LINE",
"603 -165 LINE"
);
}
);
width = 561;
}
);
unicode = 0071;
},
{
color = 3;
glyphname = r;
lastChange = "2019-01-25 15:45:45 +0000";
layers = (
{
layerId = "E2083702-67E7-471D-AE09-DB685EF5235E";
paths = (
{
closed = 1;
nodes = (
"84 0 OFFCURVE",
"100 16 OFFCURVE",
"100 35 CURVE SMOOTH",
"100 346 LINE",
"158 369 OFFCURVE",
"319 430 OFFCURVE",
"415 430 CURVE SMOOTH",
"437 430 OFFCURVE",
"438 428 OFFCURVE",
"438 415 CURVE SMOOTH",
"438 334 LINE SMOOTH",
"438 315 OFFCURVE",
"454 299 OFFCURVE",
"473 299 CURVE SMOOTH",
"492 299 OFFCURVE",
"508 315 OFFCURVE",
"508 334 CURVE SMOOTH",
"508 415 LINE SMOOTH",
"508 470 OFFCURVE",
"474 500 OFFCURVE",
"415 500 CURVE SMOOTH",
"320 500 OFFCURVE",
"175 449 OFFCURVE",
"100 421 CURVE",
"100 465 LINE SMOOTH",
"100 484 OFFCURVE",
"84 500 OFFCURVE",
"65 500 CURVE SMOOTH",
"46 500 OFFCURVE",
"30 484 OFFCURVE",
"30 465 CURVE SMOOTH",
"30 35 LINE SMOOTH",
"30 16 OFFCURVE",
"46 0 OFFCURVE",
"65 0 CURVE SMOOTH"
);
}
);
width = 538;
},
{
associatedMasterId = "E2083702-67E7-471D-AE09-DB685EF5235E";
layerId = "C8C77AA6-2452-4EA2-BA87-9FDF4A1E307D";
name = path;
paths = (
{
closed = 0;
nodes = (
"20 500 LINE",
"112 500 LINE",
"112 0 LINE"
);
},
{
closed = 0;
nodes = (
"112 404 LINE",
"112 404 OFFCURVE",
"195 500 OFFCURVE",
"462 500 CURVE SMOOTH",
"478 500 OFFCURVE",
"520 492 OFFCURVE",
"520 450 CURVE SMOOTH",
"520 390 LINE"
);
},
{
closed = 0;
nodes = (
"520 417 LINE"
);
}
);
width = 600;
},
{
associatedMasterId = "E2083702-67E7-471D-AE09-DB685EF5235E";
layerId = "AE0D908A-5072-49DF-8B07-96627CA2600B";
name = "Nov 21 18, 15:10";
paths = (
{
closed = 0;
nodes = (
"10 465 LINE",
"122 465 LINE",
"122 35 LINE"
);
},
{
closed = 0;
nodes = (
"480 354 LINE",
"480 415 LINE SMOOTH",
"480 450 OFFCURVE",
"457 465 OFFCURVE",
"422 465 CURVE",
"313 465 LINE",
"243 465 OFFCURVE",
"163 421 OFFCURVE",
"122 354 CURVE"
);
}
);
width = 600;
},
{
associatedMasterId = "E2083702-67E7-471D-AE09-DB685EF5235E";
layerId = "4E479E5C-1E96-4445-9311-8AA5420E10D8";
name = "Dec 11 18, 12:57";
paths = (
{
closed = 0;
nodes = (
"21 500 LINE",
"113 500 LINE",
"113 0 LINE"
);
},
{
closed = 0;
nodes = (
"113 404 LINE",
"142 429 OFFCURVE",
"230 500 OFFCURVE",
"463 500 CURVE SMOOTH",
"479 500 OFFCURVE",
"521 492 OFFCURVE",
"521 450 CURVE SMOOTH",
"521 370 LINE"
);
}
);
width = 600;
},
{
associatedMasterId = "E2083702-67E7-471D-AE09-DB685EF5235E";
layerId = "8EF74BEB-BD41-42C8-BA68-56A66FE658C7";
name = "Dec 11 18, 13:01";
paths = (
{
closed = 0;
nodes = (
"21 465 LINE",
"113 465 LINE",
"113 35 LINE"
);
},
{
closed = 0;
nodes = (
"113 369 LINE",
"113 369 OFFCURVE",
"338 465 OFFCURVE",
"463 465 CURVE SMOOTH",
"489 465 OFFCURVE",
"521 460 OFFCURVE",
"521 415 CURVE SMOOTH",
"521 334 LINE"
);
}
);
width = 600;
},
{
associatedMasterId = "E2083702-67E7-471D-AE09-DB685EF5235E";
layerId = "286352A9-36A0-42DA-9853-E4F6F803BAC3";
name = "Dec 11 18, 13:34";
paths = (
{
closed = 0;
nodes = (
"113 465 LINE",
"113 35 LINE"
);
},
{
closed = 0;
nodes = (
"113 369 LINE",
"113 369 OFFCURVE",
"338 465 OFFCURVE",
"463 465 CURVE SMOOTH",
"489 465 OFFCURVE",
"521 460 OFFCURVE",
"521 415 CURVE SMOOTH",
"521 334 LINE"
);
}
);
width = 600;
}
);
unicode = 0072;
},
{
color = 3;
glyphname = s;
lastChange = "2019-01-25 15:45:45 +0000";
layers = (
{
layerId = "E2083702-67E7-471D-AE09-DB685EF5235E";
paths = (
{
closed = 1;
nodes = (
"163 -14 OFFCURVE",
"551 -40 OFFCURVE",
"551 141 CURVE SMOOTH",
"551 245 OFFCURVE",
"475 285 OFFCURVE",
"293 285 CURVE SMOOTH",
"147 285 OFFCURVE",
"104 305 OFFCURVE",
"104 360 CURVE SMOOTH",
"104 439 OFFCURVE",
"377 460 OFFCURVE",
"502 389 CURVE SMOOTH",
"507 386 OFFCURVE",
"513 384 OFFCURVE",
"520 384 CURVE SMOOTH",
"539 384 OFFCURVE",
"555 400 OFFCURVE",
"555 419 CURVE SMOOTH",
"555 432 OFFCURVE",
"548 444 OFFCURVE",
"537 450 CURVE SMOOTH",
"422 515 OFFCURVE",
"34 537 OFFCURVE",
"34 360 CURVE SMOOTH",
"34 255 OFFCURVE",
"110 215 OFFCURVE",
"293 215 CURVE SMOOTH",
"438 215 OFFCURVE",
"481 195 OFFCURVE",
"481 141 CURVE SMOOTH",
"481 60 OFFCURVE",
"210 39 OFFCURVE",
"83 112 CURVE SMOOTH",
"78 115 OFFCURVE",
"72 117 OFFCURVE",
"65 117 CURVE SMOOTH",
"46 117 OFFCURVE",
"30 101 OFFCURVE",
"30 82 CURVE SMOOTH",
"30 69 OFFCURVE",
"37 57 OFFCURVE",
"48 51 CURVE SMOOTH"
);
}
);
width = 585;
},
{
associatedMasterId = "E2083702-67E7-471D-AE09-DB685EF5235E";
layerId = "FB3CD60A-C32F-48F3-B8D7-A1D2C2CDA7E5";
name = "Dec 11 18, 13:25";
paths = (
{
closed = 0;
nodes = (
"465 389 LINE",
"372 502 OFFCURVE",
"106 482 OFFCURVE",
"106 360 CURVE SMOOTH",
"106 273 OFFCURVE",
"191 250 OFFCURVE",
"288 250 CURVE SMOOTH",
"386 250 OFFCURVE",
"470 228 OFFCURVE",
"470 141 CURVE SMOOTH",
"470 19 OFFCURVE",
"204 -1 OFFCURVE",
"111 112 CURVE"
);
}
);
width = 600;
},
{
associatedMasterId = "E2083702-67E7-471D-AE09-DB685EF5235E";
layerId = "D91E254F-523B-4DB6-8B1B-017FCCBBA0A9";
name = "Dec 11 18, 13:25";
paths = (
{
closed = 0;
nodes = (
"567 419 LINE",
"460 480 OFFCURVE",
"116 500 OFFCURVE",
"116 360 CURVE SMOOTH",
"116 270 OFFCURVE",
"195 250 OFFCURVE",
"340 250 CURVE SMOOTH",
"484 250 OFFCURVE",
"563 230 OFFCURVE",
"563 141 CURVE SMOOTH",
"563 -3 OFFCURVE",
"219 20 OFFCURVE",
"112 82 CURVE"
);
}
);
width = 600;
}
);
unicode = 0073;
},
{
glyphname = germandbls;
lastChange = "2019-01-25 15:45:46 +0000";
layers = (
{
layerId = "E2083702-67E7-471D-AE09-DB685EF5235E";
paths = (
{
closed = 1;
nodes = (
"173 315 OFFCURVE",
"157 331 OFFCURVE",
"157 350 CURVE SMOOTH",
"157 369 OFFCURVE",
"173 385 OFFCURVE",
"192 385 CURVE SMOOTH",
"228 386 LINE",
"324 392 OFFCURVE",
"362 426 OFFCURVE",
"362 500 CURVE SMOOTH",
"362 672 OFFCURVE",
"102 674 OFFCURVE",
"102 500 CURVE SMOOTH",
"100 35 LINE SMOOTH",
"100 16 OFFCURVE",
"84 0 OFFCURVE",
"65 0 CURVE SMOOTH",
"46 0 OFFCURVE",
"30 16 OFFCURVE",
"30 35 CURVE SMOOTH",
"32 500 LINE SMOOTH",
"32 766 OFFCURVE",
"432 764 OFFCURVE",
"432 500 CURVE SMOOTH",
"432 430 OFFCURVE",
"407 380 OFFCURVE",
"357 350 CURVE",
"419 317 OFFCURVE",
"452 260 OFFCURVE",
"452 181 CURVE SMOOTH",
"452 65 OFFCURVE",
"358 0 OFFCURVE",
"192 0 CURVE SMOOTH",
"173 0 OFFCURVE",
"157 16 OFFCURVE",
"157 35 CURVE SMOOTH",
"157 54 OFFCURVE",
"173 70 OFFCURVE",
"192 70 CURVE SMOOTH",
"320 70 OFFCURVE",
"382 108 OFFCURVE",
"382 181 CURVE SMOOTH",
"382 262 OFFCURVE",
"335 305 OFFCURVE",
"227 313 CURVE SMOOTH",
"192 315 LINE"
);
}
);
width = 482;
},
{
associatedMasterId = "E2083702-67E7-471D-AE09-DB685EF5235E";
layerId = "7D6F8B87-5C02-4C48-B56F-FAC337F528F8";
name = "Dec 13 18, 10:56";
paths = (
{
closed = 0;
nodes = (
"135 35 LINE",
"137 500 LINE",
"137 720 OFFCURVE",
"447 720 OFFCURVE",
"447 500 CURVE SMOOTH",
"447 366 OFFCURVE",
"335 350 OFFCURVE",
"242 350 CURVE",
"405 348 OFFCURVE",
"467 273 OFFCURVE",
"467 181 CURVE SMOOTH",
"467 80 OFFCURVE",
"394 35 OFFCURVE",
"242 35 CURVE SMOOTH"
);
}
);
width = 600;
},
{
associatedMasterId = "E2083702-67E7-471D-AE09-DB685EF5235E";
layerId = "963318CB-14E7-43F8-9306-02D57ABB1227";
name = "Dec 13 18, 10:59";
paths = (
{
closed = 0;
nodes = (
"135 35 LINE",
"137 500 LINE",
"137 720 OFFCURVE",
"467 718 OFFCURVE",
"467 500 CURVE SMOOTH",
"467 366 OFFCURVE",
"355 350 OFFCURVE",
"262 350 CURVE",
"425 348 OFFCURVE",
"487 283 OFFCURVE",
"487 181 CURVE SMOOTH",
"487 79 OFFCURVE",
"398 35 OFFCURVE",
"262 35 CURVE SMOOTH"
);
}
);
visible = 1;
width = 600;
},
{
associatedMasterId = "E2083702-67E7-471D-AE09-DB685EF5235E";
layerId = "BA8613F4-CEED-41A2-A9EF-167CAC2B392C";
name = "Dec 13 18, 11:01";
paths = (
{
closed = 0;
nodes = (
"135 35 LINE",
"137 500 LINE",
"137 720 OFFCURVE",
"467 718 OFFCURVE",
"467 500 CURVE SMOOTH",
"467 366 OFFCURVE",
"355 350 OFFCURVE",
"262 350 CURVE",
"425 348 OFFCURVE",
"487 283 OFFCURVE",
"487 181 CURVE SMOOTH",
"487 79 OFFCURVE",
"398 35 OFFCURVE",
"262 35 CURVE SMOOTH"
);
}
);
width = 600;
}
);
unicode = 00DF;
},
{
color = 3;
glyphname = t;
lastChange = "2018-11-22 17:49:56 +0000";
layers = (
{
layerId = "E2083702-67E7-471D-AE09-DB685EF5235E";
paths = (
{
closed = 1;
nodes = (
"184 0 OFFCURVE",
"200 16 OFFCURVE",
"200 35 CURVE SMOOTH",
"200 430 LINE",
"265 430 LINE SMOOTH",
"284 430 OFFCURVE",
"300 446 OFFCURVE",
"300 465 CURVE SMOOTH",
"300 484 OFFCURVE",
"284 500 OFFCURVE",
"265 500 CURVE SMOOTH",
"200 500 LINE",
"200 665 LINE SMOOTH",
"200 684 OFFCURVE",
"184 700 OFFCURVE",
"165 700 CURVE SMOOTH",
"146 700 OFFCURVE",
"130 684 OFFCURVE",
"130 665 CURVE SMOOTH",
"130 500 LINE",
"65 500 LINE SMOOTH",
"46 500 OFFCURVE",
"30 484 OFFCURVE",
"30 465 CURVE SMOOTH",
"30 446 OFFCURVE",
"46 430 OFFCURVE",
"65 430 CURVE SMOOTH",
"130 430 LINE",
"130 35 LINE SMOOTH",
"130 16 OFFCURVE",
"146 0 OFFCURVE",
"165 0 CURVE SMOOTH"
);
}
);
width = 330;
},
{
associatedMasterId = "E2083702-67E7-471D-AE09-DB685EF5235E";
layerId = "201F9C78-BD20-459E-9FA4-E1A1782FEB86";
name = path;
paths = (
{
closed = 0;
nodes = (
"250 700 LINE",
"250 0 LINE"
);
},
{
closed = 0;
nodes = (
"200 500 LINE",
"350 500 LINE"
);
}
);
width = 600;
},
{
associatedMasterId = "E2083702-67E7-471D-AE09-DB685EF5235E";
layerId = "B9DC0809-50F3-4A50-A4FD-1A732ED11CC0";
name = "Nov 21 18, 15:11";
paths = (
{
closed = 0;
nodes = (
"248 665 LINE",
"248 35 LINE"
);
},
{
closed = 0;
nodes = (
"148 465 LINE",
"348 465 LINE"
);
}
);
width = 600;
}
);
unicode = 0074;
},
{
color = 3;
glyphname = u;
lastChange = "2019-01-25 15:45:45 +0000";
layers = (
{
layerId = "E2083702-67E7-471D-AE09-DB685EF5235E";
paths = (
{
closed = 1;
nodes = (
"218 0 OFFCURVE",
"363 51 OFFCURVE",
"438 79 CURVE",
"438 35 LINE SMOOTH",
"438 16 OFFCURVE",
"454 0 OFFCURVE",
"473 0 CURVE SMOOTH",
"492 0 OFFCURVE",
"508 16 OFFCURVE",
"508 35 CURVE SMOOTH",
"508 465 LINE SMOOTH",
"508 484 OFFCURVE",
"492 500 OFFCURVE",
"473 500 CURVE SMOOTH",
"454 500 OFFCURVE",
"438 484 OFFCURVE",
"438 465 CURVE SMOOTH",
"438 154 LINE",
"380 131 OFFCURVE",
"219 70 OFFCURVE",
"123 70 CURVE SMOOTH",
"101 70 OFFCURVE",
"100 72 OFFCURVE",
"100 85 CURVE SMOOTH",
"100 465 LINE SMOOTH",
"100 484 OFFCURVE",
"84 500 OFFCURVE",
"65 500 CURVE SMOOTH",
"46 500 OFFCURVE",
"30 484 OFFCURVE",
"30 465 CURVE SMOOTH",
"30 85 LINE SMOOTH",
"30 30 OFFCURVE",
"64 0 OFFCURVE",
"123 0 CURVE SMOOTH"
);
}
);
width = 538;
},
{
associatedMasterId = "E2083702-67E7-471D-AE09-DB685EF5235E";
layerId = "1B6F7660-4901-4BEF-A70E-C110ACAF9F9C";
name = path;
paths = (
{
closed = 0;
nodes = (
"468 500 LINE",
"468 0 LINE",
"560 0 LINE"
);
},
{
closed = 0;
nodes = (
"60 500 LINE",
"60 50 LINE SMOOTH",
"60 8 OFFCURVE",
"102 0 OFFCURVE",
"118 0 CURVE SMOOTH",
"385 0 OFFCURVE",
"468 96 OFFCURVE",
"468 96 CURVE"
);
},
{
closed = 0;
nodes = (
"408 83 LINE"
);
}
);
visible = 1;
width = 600;
},
{
associatedMasterId = "E2083702-67E7-471D-AE09-DB685EF5235E";
layerId = "05FD5D0A-9D56-4805-9CCD-1F3F406A9EAB";
name = "Nov 21 18, 15:04";
paths = (
{
closed = 0;
nodes = (
"505 35 LINE",
"393 35 LINE",
"393 465 LINE"
);
},
{
closed = 0;
nodes = (
"35 465 LINE",
"35 85 LINE SMOOTH",
"35 50 OFFCURVE",
"58 35 OFFCURVE",
"93 35 CURVE",
"202 35 LINE",
"272 35 OFFCURVE",
"352 79 OFFCURVE",
"393 146 CURVE"
);
}
);
width = 600;
},
{
associatedMasterId = "E2083702-67E7-471D-AE09-DB685EF5235E";
layerId = "296BF505-65CB-4CAA-B91D-7FEE3CF96CAB";
name = "Dec 11 18, 13:02";
paths = (
{
closed = 0;
nodes = (
"429 465 LINE",
"429 35 LINE"
);
},
{
closed = 0;
nodes = (
"429 131 LINE",
"429 131 OFFCURVE",
"204 35 OFFCURVE",
"79 35 CURVE SMOOTH",
"53 35 OFFCURVE",
"21 40 OFFCURVE",
"21 85 CURVE SMOOTH",
"21 465 LINE"
);
}
);
width = 600;
}
);
unicode = 0075;
},
{
color = 3;
glyphname = v;
lastChange = "2019-01-25 15:45:45 +0000";
layers = (
{
layerId = "E2083702-67E7-471D-AE09-DB685EF5235E";
paths = (
{
closed = 1;
nodes = (
"298 18 LINE SMOOTH",
"317 18 OFFCURVE",
"330 26 OFFCURVE",
"339 43 CURVE SMOOTH",
"556 448 LINE SMOOTH",
"558 453 OFFCURVE",
"560 459 OFFCURVE",
"560 465 CURVE SMOOTH",
"560 484 OFFCURVE",
"544 500 OFFCURVE",
"525 500 CURVE SMOOTH",
"511 500 OFFCURVE",
"500 492 OFFCURVE",
"494 481 CURVE SMOOTH",
"295 109 LINE",
"96 481 LINE SMOOTH",
"90 492 OFFCURVE",
"79 500 OFFCURVE",
"65 500 CURVE SMOOTH",
"46 500 OFFCURVE",
"30 484 OFFCURVE",
"30 465 CURVE SMOOTH",
"30 459 OFFCURVE",
"32 453 OFFCURVE",
"34 448 CURVE SMOOTH",
"251 43 LINE SMOOTH",
"260 26 OFFCURVE",
"273 18 OFFCURVE",
"292 18 CURVE SMOOTH"
);
}
);
width = 590;
},
{
associatedMasterId = "E2083702-67E7-471D-AE09-DB685EF5235E";
layerId = "FA752F03-5862-45D0-986D-4426F5172C88";
name = path;
paths = (
{
closed = 0;
nodes = (
"0 465 LINE",
"230 35 LINE",
"460 465 LINE"
);
}
);
width = 600;
}
);
unicode = 0076;
},
{
color = 3;
glyphname = w;
lastChange = "2019-01-25 15:45:45 +0000";
layers = (
{
guideLines = (
{
position = "{395, 355}";
}
);
layerId = "E2083702-67E7-471D-AE09-DB685EF5235E";
paths = (
{
closed = 1;
nodes = (
"268 20 OFFCURVE",
"281 28 OFFCURVE",
"289 46 CURVE SMOOTH",
"395 273 LINE",
"501 46 LINE SMOOTH",
"509 28 OFFCURVE",
"522 20 OFFCURVE",
"542 21 CURVE SMOOTH",
"548 21 LINE SMOOTH",
"568 21 OFFCURVE",
"581 30 OFFCURVE",
"588 48 CURVE SMOOTH",
"757 451 LINE SMOOTH",
"759 455 OFFCURVE",
"760 460 OFFCURVE",
"760 465 CURVE SMOOTH",
"760 484 OFFCURVE",
"744 500 OFFCURVE",
"725 500 CURVE SMOOTH",
"710 500 OFFCURVE",
"698 491 OFFCURVE",
"692 478 CURVE SMOOTH",
"543 121 LINE",
"439 344 LINE SMOOTH",
"413 398 OFFCURVE",
"418 370 OFFCURVE",
"398 370 CURVE SMOOTH",
"392 370 LINE SMOOTH",
"372 370 OFFCURVE",
"377 399 OFFCURVE",
"351 344 CURVE SMOOTH",
"247 121 LINE",
"98 478 LINE SMOOTH",
"92 491 OFFCURVE",
"80 500 OFFCURVE",
"65 500 CURVE SMOOTH",
"46 500 OFFCURVE",
"30 484 OFFCURVE",
"30 465 CURVE SMOOTH",
"30 460 OFFCURVE",
"31 455 OFFCURVE",
"33 451 CURVE SMOOTH",
"202 48 LINE SMOOTH",
"209 30 OFFCURVE",
"222 21 OFFCURVE",
"242 21 CURVE SMOOTH",
"248 21 LINE SMOOTH"
);
},
{
closed = 1;
nodes = (
"414 320 OFFCURVE",
"430 336 OFFCURVE",
"430 355 CURVE SMOOTH",
"430 374 OFFCURVE",
"414 390 OFFCURVE",
"395 390 CURVE SMOOTH",
"376 390 OFFCURVE",
"360 374 OFFCURVE",
"360 355 CURVE SMOOTH",
"360 336 OFFCURVE",
"376 320 OFFCURVE",
"395 320 CURVE SMOOTH"
);
}
);
width = 790;
},
{
associatedMasterId = "E2083702-67E7-471D-AE09-DB685EF5235E";
layerId = "1AD590A9-78F3-41CD-BF33-583A5080BD04";
name = path;
paths = (
{
closed = 0;
nodes = (
"0 500 LINE",
"230 0 LINE",
"410 410 LINE",
"590 0 LINE",
"820 500 LINE"
);
}
);
width = 600;
},
{
associatedMasterId = "E2083702-67E7-471D-AE09-DB685EF5235E";
guideLines = (
{
position = "{380, 355}";
}
);
layerId = "863F7E90-1F60-4CE1-96AD-E20572588810";
name = "Nov 21 18, 16:45";
paths = (
{
closed = 0;
nodes = (
"50 465 LINE",
"230 35 LINE",
"380 355 LINE",
"530 35 LINE",
"710 465 LINE"
);
}
);
visible = 1;
width = 600;
}
);
unicode = 0077;
},
{
color = 3;
glyphname = x;
lastChange = "2019-01-25 15:45:45 +0000";
layers = (
{
guideLines = (
{
position = "{892, 250}";
}
);
layerId = "E2083702-67E7-471D-AE09-DB685EF5235E";
paths = (
{
closed = 1;
nodes = (
"74 0 OFFCURVE",
"82 3 OFFCURVE",
"88 9 CURVE SMOOTH",
"309 203 LINE",
"529 9 LINE SMOOTH",
"535 3 OFFCURVE",
"543 0 OFFCURVE",
"552 0 CURVE SMOOTH",
"571 0 OFFCURVE",
"587 16 OFFCURVE",
"587 35 CURVE SMOOTH",
"587 45 OFFCURVE",
"582 55 OFFCURVE",
"575 61 CURVE SMOOTH",
"361 250 LINE",
"575 439 LINE SMOOTH",
"582 445 OFFCURVE",
"587 455 OFFCURVE",
"587 465 CURVE SMOOTH",
"587 484 OFFCURVE",
"571 500 OFFCURVE",
"552 500 CURVE SMOOTH",
"543 500 OFFCURVE",
"535 497 OFFCURVE",
"529 491 CURVE SMOOTH",
"309 297 LINE",
"88 491 LINE SMOOTH",
"82 497 OFFCURVE",
"74 500 OFFCURVE",
"65 500 CURVE SMOOTH",
"46 500 OFFCURVE",
"30 484 OFFCURVE",
"30 465 CURVE SMOOTH",
"30 455 OFFCURVE",
"35 445 OFFCURVE",
"42 439 CURVE SMOOTH",
"256 250 LINE",
"42 61 LINE SMOOTH",
"35 55 OFFCURVE",
"30 45 OFFCURVE",
"30 35 CURVE SMOOTH",
"30 16 OFFCURVE",
"46 0 OFFCURVE",
"65 0 CURVE SMOOTH"
);
}
);
width = 617;
},
{
associatedMasterId = "E2083702-67E7-471D-AE09-DB685EF5235E";
guideLines = (
{
position = "{883, 250}";
}
);
layerId = "BC30D9DE-2C80-4204-A1F8-F4BA9D0E1B27";
name = path;
paths = (
{
closed = 0;
nodes = (
"117 501 LINE",
"465 0 LINE"
);
},
{
closed = 0;
nodes = (
"465 501 LINE",
"117 0 LINE"
);
}
);
width = 600;
},
{
associatedMasterId = "E2083702-67E7-471D-AE09-DB685EF5235E";
guideLines = (
{
position = "{883, 250}";
}
);
layerId = "BE0601A7-933C-4614-96EA-124E3441AF34";
name = "Nov 21 18, 16:48";
paths = (
{
closed = 0;
nodes = (
"86 465 LINE",
"471 35 LINE"
);
},
{
closed = 0;
nodes = (
"471 465 LINE",
"86 35 LINE"
);
}
);
width = 600;
},
{
associatedMasterId = "E2083702-67E7-471D-AE09-DB685EF5235E";
guideLines = (
{
position = "{883, 250}";
}
);
layerId = "656AFD0A-9425-4ECF-9169-6F9FD6F5607C";
name = "Dec 11 18, 13:36";
paths = (
{
closed = 0;
nodes = (
"35 465 LINE",
"522 35 LINE"
);
},
{
closed = 0;
nodes = (
"522 465 LINE",
"35 35 LINE"
);
}
);
width = 600;
}
);
unicode = 0078;
},
{
color = 3;
glyphname = y;
lastChange = "2019-01-25 15:45:45 +0000";
layers = (
{
layerId = "E2083702-67E7-471D-AE09-DB685EF5235E";
paths = (
{
closed = 1;
nodes = (
"233 -200 OFFCURVE",
"256 -115 OFFCURVE",
"280 -53 CURVE SMOOTH",
"280 -52 LINE",
"452 453 LINE SMOOTH",
"453 457 OFFCURVE",
"454 461 OFFCURVE",
"454 465 CURVE SMOOTH",
"454 484 OFFCURVE",
"438 500 OFFCURVE",
"419 500 CURVE SMOOTH",
"403 500 OFFCURVE",
"390 490 OFFCURVE",
"386 476 CURVE SMOOTH",
"257 97 LINE",
"101 478 LINE SMOOTH",
"96 491 OFFCURVE",
"83 500 OFFCURVE",
"68 500 CURVE SMOOTH",
"49 500 OFFCURVE",
"33 484 OFFCURVE",
"33 465 CURVE SMOOTH",
"33 460 OFFCURVE",
"34 455 OFFCURVE",
"36 451 CURVE SMOOTH",
"223 -4 LINE",
"214 -29 LINE",
"190 -93 OFFCURVE",
"179 -130 OFFCURVE",
"65 -130 CURVE SMOOTH",
"46 -130 OFFCURVE",
"30 -146 OFFCURVE",
"30 -165 CURVE SMOOTH",
"30 -184 OFFCURVE",
"46 -200 OFFCURVE",
"65 -200 CURVE SMOOTH"
);
}
);
width = 484;
},
{
associatedMasterId = "E2083702-67E7-471D-AE09-DB685EF5235E";
layerId = "1F0B1C76-18A7-4D7C-8882-0A0A2BBBBC12";
name = path;
paths = (
{
closed = 0;
nodes = (
"486 500 LINE",
"293 -69 LINE",
"247 -186 OFFCURVE",
"157 -200 OFFCURVE",
"51 -200 CURVE SMOOTH"
);
},
{
closed = 0;
nodes = (
"113 500 LINE",
"314 0 LINE"
);
}
);
width = 600;
},
{
associatedMasterId = "E2083702-67E7-471D-AE09-DB685EF5235E";
layerId = "70990854-629B-45EE-B338-C7799E2F22B4";
name = "Nov 12 18, 15:02";
paths = (
{
closed = 0;
nodes = (
"455 465 LINE",
"283 -41 LINE",
"259 -104 OFFCURVE",
"242 -165 OFFCURVE",
"101 -165 CURVE SMOOTH"
);
},
{
closed = 0;
nodes = (
"104 465 LINE",
"295 0 LINE"
);
}
);
width = 600;
}
);
unicode = 0079;
},
{
color = 3;
glyphname = z;
lastChange = "2019-01-25 15:45:45 +0000";
layers = (
{
layerId = "E2083702-67E7-471D-AE09-DB685EF5235E";
paths = (
{
closed = 1;
nodes = (
"503 0 LINE SMOOTH",
"522 0 OFFCURVE",
"538 16 OFFCURVE",
"538 35 CURVE SMOOTH",
"538 54 OFFCURVE",
"522 70 OFFCURVE",
"503 70 CURVE SMOOTH",
"151 70 LINE",
"507 419 LINE SMOOTH",
"521 434 OFFCURVE",
"524 449 OFFCURVE",
"516 467 CURVE SMOOTH",
"514 473 LINE SMOOTH",
"507 491 OFFCURVE",
"494 500 OFFCURVE",
"474 500 CURVE SMOOTH",
"65 500 LINE SMOOTH",
"46 500 OFFCURVE",
"30 484 OFFCURVE",
"30 465 CURVE SMOOTH",
"30 446 OFFCURVE",
"46 430 OFFCURVE",
"65 430 CURVE SMOOTH",
"417 430 LINE",
"61 81 LINE SMOOTH",
"47 66 OFFCURVE",
"44 51 OFFCURVE",
"52 33 CURVE SMOOTH",
"54 27 LINE SMOOTH",
"61 9 OFFCURVE",
"74 0 OFFCURVE",
"94 0 CURVE SMOOTH"
);
}
);
width = 568;
},
{
associatedMasterId = "E2083702-67E7-471D-AE09-DB685EF5235E";
layerId = "823CD064-89A4-43D5-AAE1-3D03679D8805";
name = path;
paths = (
{
closed = 0;
nodes = (
"0 500 LINE",
"480 500 LINE",
"0 0 LINE",
"480 0 LINE"
);
}
);
width = 600;
},
{
associatedMasterId = "E2083702-67E7-471D-AE09-DB685EF5235E";
layerId = "3CE0C99F-120B-4404-963B-1E4D4210F340";
name = "Nov 21 18, 16:51";
paths = (
{
closed = 0;
nodes = (
"0 465 LINE",
"438 465 LINE",
"0 35 LINE",
"438 35 LINE"
);
}
);
width = 600;
}
);
unicode = 007A;
},
{
color = 3;
glyphname = a.alt1;
lastChange = "2019-01-25 15:45:46 +0000";
layers = (
{
layerId = "E2083702-67E7-471D-AE09-DB685EF5235E";
paths = (
{
closed = 1;
nodes = (
"493 0 OFFCURVE",
"612 73 OFFCURVE",
"648 180 CURVE",
"694 26 LINE SMOOTH",
"698 11 OFFCURVE",
"712 0 OFFCURVE",
"728 0 CURVE SMOOTH",
"747 0 OFFCURVE",
"763 16 OFFCURVE",
"763 35 CURVE SMOOTH",
"763 39 OFFCURVE",
"762 42 OFFCURVE",
"761 46 CURVE SMOOTH",
"632 474 LINE SMOOTH",
"628 489 OFFCURVE",
"614 500 OFFCURVE",
"598 500 CURVE SMOOTH",
"579 500 OFFCURVE",
"563 484 OFFCURVE",
"563 465 CURVE SMOOTH",
"563 461 OFFCURVE",
"564 458 OFFCURVE",
"565 454 CURVE SMOOTH",
"573 425 LINE",
"517 472 OFFCURVE",
"437 500 OFFCURVE",
"346 500 CURVE SMOOTH",
"167 500 OFFCURVE",
"30 393 OFFCURVE",
"30 250 CURVE SMOOTH",
"30 107 OFFCURVE",
"167 0 OFFCURVE",
"346 0 CURVE SMOOTH"
);
},
{
closed = 1;
nodes = (
"205 70 OFFCURVE",
"100 148 OFFCURVE",
"100 250 CURVE SMOOTH",
"100 352 OFFCURVE",
"205 430 OFFCURVE",
"346 430 CURVE SMOOTH",
"486 430 OFFCURVE",
"589 352 OFFCURVE",
"589 250 CURVE SMOOTH",
"589 148 OFFCURVE",
"486 70 OFFCURVE",
"346 70 CURVE SMOOTH"
);
}
);
width = 793;
},
{
associatedMasterId = "E2083702-67E7-471D-AE09-DB685EF5235E";
layerId = "312019C3-FB83-4CE7-ADD9-D6290D7BE48A";
name = path;
paths = (
{
closed = 0;
nodes = (
"705 500 LINE",
"794 0 LINE"
);
},
{
closed = 1;
nodes = (
"590 0 OFFCURVE",
"744 112 OFFCURVE",
"744 251 CURVE SMOOTH",
"744 388 OFFCURVE",
"590 500 OFFCURVE",
"400 500 CURVE SMOOTH",
"209 500 OFFCURVE",
"54 388 OFFCURVE",
"54 251 CURVE SMOOTH",
"54 112 OFFCURVE",
"209 0 OFFCURVE",
"400 0 CURVE SMOOTH"
);
}
);
width = 600;
},
{
associatedMasterId = "E2083702-67E7-471D-AE09-DB685EF5235E";
layerId = "7EB2DE72-D74F-48B9-BBF4-92FD3D42EA66";
name = "Nov 21 18, 15:50";
paths = (
{
closed = 0;
nodes = (
"572 465 LINE",
"702 35 LINE"
);
},
{
closed = 1;
nodes = (
"449 35 OFFCURVE",
"592 133 OFFCURVE",
"592 250 CURVE SMOOTH",
"592 367 OFFCURVE",
"449 465 OFFCURVE",
"254 465 CURVE SMOOTH",
"62 465 OFFCURVE",
"-82 367 OFFCURVE",
"-82 250 CURVE SMOOTH",
"-82 133 OFFCURVE",
"62 35 OFFCURVE",
"254 35 CURVE SMOOTH"
);
}
);
width = 818;
},
{
associatedMasterId = "E2083702-67E7-471D-AE09-DB685EF5235E";
layerId = "27C414A9-B55D-4EDD-B8F4-AB1B258325F3";
name = "Nov 22 18, 13:40";
paths = (
{
closed = 0;
nodes = (
"562 465 LINE",
"692 35 LINE"
);
},
{
closed = 1;
nodes = (
"488 35 OFFCURVE",
"592 133 OFFCURVE",
"592 250 CURVE SMOOTH",
"592 367 OFFCURVE",
"488 465 OFFCURVE",
"345 465 CURVE SMOOTH",
"205 465 OFFCURVE",
"100 367 OFFCURVE",
"100 250 CURVE SMOOTH",
"100 133 OFFCURVE",
"205 35 OFFCURVE",
"345 35 CURVE SMOOTH"
);
}
);
width = 818;
},
{
associatedMasterId = "E2083702-67E7-471D-AE09-DB685EF5235E";
layerId = "F8CFC726-4D30-457E-B082-3E13AA59C589";
name = "Dec 11 18, 13:03";
paths = (
{
closed = 0;
nodes = (
"562 465 LINE",
"692 35 LINE"
);
},
{
closed = 1;
nodes = (
"464 35 OFFCURVE",
"588 123 OFFCURVE",
"588 250 CURVE SMOOTH",
"588 377 OFFCURVE",
"464 465 OFFCURVE",
"310 465 CURVE SMOOTH",
"155 465 OFFCURVE",
"29 377 OFFCURVE",
"29 250 CURVE SMOOTH",
"29 123 OFFCURVE",
"155 35 OFFCURVE",
"310 35 CURVE SMOOTH"
);
}
);
width = 818;
}
);
},
{
color = 3;
glyphname = i.alt1;
lastChange = "2019-01-25 15:45:45 +0000";
layers = (
{
layerId = "E2083702-67E7-471D-AE09-DB685EF5235E";
paths = (
{
closed = 1;
nodes = (
"65 500 LINE SMOOTH",
"46 500 OFFCURVE",
"30 484 OFFCURVE",
"30 465 CURVE SMOOTH",
"30 446 OFFCURVE",
"46 430 OFFCURVE",
"65 430 CURVE SMOOTH",
"142 430 LINE",
"142 35 LINE SMOOTH",
"142 16 OFFCURVE",
"158 0 OFFCURVE",
"177 0 CURVE SMOOTH",
"196 0 OFFCURVE",
"212 16 OFFCURVE",
"212 35 CURVE SMOOTH",
"212 465 LINE",
"212 465 LINE SMOOTH",
"212 484 OFFCURVE",
"196 500 OFFCURVE",
"177 500 CURVE SMOOTH"
);
},
{
closed = 1;
nodes = (
"205 600 OFFCURVE",
"227 623 OFFCURVE",
"227 650 CURVE SMOOTH",
"227 678 OFFCURVE",
"204 700 OFFCURVE",
"177 700 CURVE SMOOTH",
"150 700 OFFCURVE",
"127 677 OFFCURVE",
"127 650 CURVE SMOOTH",
"127 623 OFFCURVE",
"150 600 OFFCURVE",
"177 600 CURVE SMOOTH"
);
}
);
width = 257;
},
{
associatedMasterId = "E2083702-67E7-471D-AE09-DB685EF5235E";
layerId = "6735F20E-1E3E-4C44-BB51-1E8AB460EFD1";
name = path;
paths = (
{
closed = 0;
nodes = (
"10 465 LINE",
"122 465 LINE",
"122 35 LINE"
);
},
{
closed = 1;
nodes = (
"130 635 OFFCURVE",
"137 642 OFFCURVE",
"137 650 CURVE SMOOTH",
"137 658 OFFCURVE",
"130 665 OFFCURVE",
"122 665 CURVE SMOOTH",
"114 665 OFFCURVE",
"107 658 OFFCURVE",
"107 650 CURVE SMOOTH",
"107 642 OFFCURVE",
"114 635 OFFCURVE",
"122 635 CURVE SMOOTH"
);
}
);
width = 600;
},
{
associatedMasterId = "E2083702-67E7-471D-AE09-DB685EF5235E";
layerId = "00F82DDB-BFF1-4641-A73A-7EEB453444A0";
name = "Nov 21 18, 15:28";
paths = (
{
closed = 0;
nodes = (
"10 465 LINE",
"122 465 LINE",
"122 35 LINE"
);
},
{
closed = 1;
nodes = (
"130 635 OFFCURVE",
"137 642 OFFCURVE",
"137 650 CURVE SMOOTH",
"137 658 OFFCURVE",
"130 665 OFFCURVE",
"122 665 CURVE SMOOTH",
"114 665 OFFCURVE",
"107 658 OFFCURVE",
"107 650 CURVE SMOOTH",
"107 642 OFFCURVE",
"114 635 OFFCURVE",
"122 635 CURVE SMOOTH"
);
}
);
width = 600;
}
);
},
{
color = 3;
glyphname = j.alt1;
lastChange = "2019-01-25 15:45:45 +0000";
layers = (
{
layerId = "E2083702-67E7-471D-AE09-DB685EF5235E";
paths = (
{
closed = 1;
nodes = (
"349 -115 LINE SMOOTH",
"349 -168 OFFCURVE",
"313 -200 OFFCURVE",
"256 -200 CURVE SMOOTH",
"172 -200 OFFCURVE",
"82 -148 OFFCURVE",
"35 -73 CURVE SMOOTH",
"32 -67 OFFCURVE",
"30 -61 OFFCURVE",
"30 -54 CURVE SMOOTH",
"30 -35 OFFCURVE",
"46 -19 OFFCURVE",
"65 -19 CURVE SMOOTH",
"78 -19 OFFCURVE",
"89 -26 OFFCURVE",
"95 -36 CURVE SMOOTH",
"129 -91 OFFCURVE",
"196 -130 OFFCURVE",
"256 -130 CURVE SMOOTH",
"276 -130 OFFCURVE",
"279 -126 OFFCURVE",
"279 -115 CURVE SMOOTH",
"279 430 LINE",
"202 430 LINE SMOOTH",
"183 430 OFFCURVE",
"167 446 OFFCURVE",
"167 465 CURVE SMOOTH",
"167 484 OFFCURVE",
"183 500 OFFCURVE",
"202 500 CURVE SMOOTH",
"313 500 LINE",
"314 500 LINE SMOOTH",
"333 500 OFFCURVE",
"349 484 OFFCURVE",
"349 465 CURVE SMOOTH"
);
},
{
closed = 1;
nodes = (
"342 600 OFFCURVE",
"364 623 OFFCURVE",
"364 650 CURVE SMOOTH",
"364 678 OFFCURVE",
"341 700 OFFCURVE",
"314 700 CURVE SMOOTH",
"287 700 OFFCURVE",
"264 677 OFFCURVE",
"264 650 CURVE SMOOTH",
"264 623 OFFCURVE",
"287 600 OFFCURVE",
"314 600 CURVE SMOOTH"
);
}
);
width = 394;
},
{
associatedMasterId = "E2083702-67E7-471D-AE09-DB685EF5235E";
layerId = "A4AD8931-EB8F-4785-8334-AF8FCC1EFBD3";
name = path;
paths = (
{
closed = 0;
nodes = (
"172 500 LINE",
"264 500 LINE",
"264 -40 LINE",
"264 -120 OFFCURVE",
"237 -200 OFFCURVE",
"147 -200 CURVE SMOOTH",
"57 -200 OFFCURVE",
"32 -121 OFFCURVE",
"32 -41 CURVE",
"32 0 LINE"
);
}
);
width = 600;
},
{
associatedMasterId = "E2083702-67E7-471D-AE09-DB685EF5235E";
layerId = "A29F26D5-54EF-41EE-B624-A1CC46DC41FA";
name = "Nov 21 18, 15:39";
paths = (
{
closed = 0;
nodes = (
"172 465 LINE",
"284 465 LINE",
"284 -115 LINE SMOOTH",
"284 -150 OFFCURVE",
"261 -165 OFFCURVE",
"226 -165 CURVE SMOOTH",
"156 -165 OFFCURVE",
"76 -121 OFFCURVE",
"35 -54 CURVE"
);
},
{
closed = 1;
nodes = (
"292 635 OFFCURVE",
"299 642 OFFCURVE",
"299 650 CURVE SMOOTH",
"299 658 OFFCURVE",
"292 665 OFFCURVE",
"284 665 CURVE SMOOTH",
"276 665 OFFCURVE",
"269 658 OFFCURVE",
"269 650 CURVE SMOOTH",
"269 642 OFFCURVE",
"276 635 OFFCURVE",
"284 635 CURVE SMOOTH"
);
}
);
width = 600;
}
);
},
{
color = 3;
glyphname = k.alt1;
lastChange = "2019-01-25 15:45:45 +0000";
layers = (
{
guideLines = (
{
angle = 90;
position = "{470, 500}";
},
{
angle = 62.65;
position = "{344, 158}";
}
);
layerId = "E2083702-67E7-471D-AE09-DB685EF5235E";
paths = (
{
closed = 1;
nodes = (
"187 179 LINE",
"367 525 LINE SMOOTH",
"372 537 OFFCURVE",
"384 545 OFFCURVE",
"398 545 CURVE SMOOTH",
"417 545 OFFCURVE",
"433 529 OFFCURVE",
"433 510 CURVE SMOOTH",
"433 504 OFFCURVE",
"431 498 OFFCURVE",
"429 493 CURVE SMOOTH",
"319 281 LINE",
"429 51 LINE SMOOTH",
"432 46 OFFCURVE",
"433 41 OFFCURVE",
"433 35 CURVE SMOOTH",
"433 16 OFFCURVE",
"417 0 OFFCURVE",
"398 0 CURVE SMOOTH",
"384 0 OFFCURVE",
"372 8 OFFCURVE",
"366 21 CURVE SMOOTH",
"278 203 LINE",
"197 47 LINE SMOOTH",
"188 28 OFFCURVE",
"173 21 OFFCURVE",
"153 26 CURVE SMOOTH",
"147 28 LINE SMOOTH",
"127 33 OFFCURVE",
"117 45 OFFCURVE",
"117 66 CURVE SMOOTH",
"117 630 LINE",
"65 630 LINE SMOOTH",
"46 630 OFFCURVE",
"30 646 OFFCURVE",
"30 665 CURVE SMOOTH",
"30 684 OFFCURVE",
"46 700 OFFCURVE",
"65 700 CURVE SMOOTH",
"152 700 LINE SMOOTH",
"171 700 OFFCURVE",
"187 684 OFFCURVE",
"187 665 CURVE SMOOTH"
);
},
{
closed = 1;
nodes = (
"190 80 OFFCURVE",
"221 92 OFFCURVE",
"197 47 CURVE",
"188 28 OFFCURVE",
"177 0 OFFCURVE",
"152 0 CURVE SMOOTH",
"127 0 OFFCURVE",
"117 16 OFFCURVE",
"117 35 CURVE",
"117 109 LINE"
);
}
);
width = 463;
},
{
associatedMasterId = "E2083702-67E7-471D-AE09-DB685EF5235E";
guideLines = (
{
angle = 90;
position = "{370, 500}";
}
);
layerId = "D6BDD128-9906-4D3A-8D4F-166F80C8A568";
name = path;
paths = (
{
closed = 0;
nodes = (
"353 35 LINE",
"235 280 LINE"
);
},
{
closed = 0;
nodes = (
"20 665 LINE",
"107 665 LINE",
"107 35 LINE",
"353 510 LINE"
);
}
);
visible = 1;
width = 600;
}
);
},
{
color = 3;
glyphname = l.alt1;
lastChange = "2019-01-25 15:45:45 +0000";
layers = (
{
layerId = "E2083702-67E7-471D-AE09-DB685EF5235E";
paths = (
{
closed = 1;
nodes = (
"75 745 LINE SMOOTH",
"50 745 OFFCURVE",
"30 725 OFFCURVE",
"30 700 CURVE SMOOTH",
"30 675 OFFCURVE",
"50 655 OFFCURVE",
"75 655 CURVE SMOOTH",
"122 655 LINE",
"122 0 LINE SMOOTH",
"122 -25 OFFCURVE",
"142 -45 OFFCURVE",
"167 -45 CURVE SMOOTH",
"192 -45 OFFCURVE",
"212 -25 OFFCURVE",
"212 0 CURVE SMOOTH",
"212 700 LINE SMOOTH",
"212 725 OFFCURVE",
"192 745 OFFCURVE",
"167 745 CURVE SMOOTH"
);
}
);
width = 242;
},
{
associatedMasterId = "E2083702-67E7-471D-AE09-DB685EF5235E";
layerId = "761B47CD-A5A1-4795-8E15-F817807B5704";
name = path;
paths = (
{
closed = 0;
nodes = (
"32 700 LINE",
"124 700 LINE",
"124 0 LINE"
);
}
);
width = 600;
}
);
},
{
color = 3;
glyphname = o.alt1;
lastChange = "2019-01-25 15:45:45 +0000";
layers = (
{
layerId = "E2083702-67E7-471D-AE09-DB685EF5235E";
paths = (
{
closed = 1;
nodes = (
"419 0 OFFCURVE",
"531 112 OFFCURVE",
"531 249 CURVE SMOOTH",
"531 388 OFFCURVE",
"419 500 OFFCURVE",
"281 500 CURVE SMOOTH",
"142 500 OFFCURVE",
"30 388 OFFCURVE",
"30 249 CURVE SMOOTH",
"30 111 OFFCURVE",
"142 0 OFFCURVE",
"281 0 CURVE SMOOTH"
);
},
{
closed = 1;
nodes = (
"181 70 OFFCURVE",
"100 150 OFFCURVE",
"100 249 CURVE SMOOTH",
"100 350 OFFCURVE",
"180 430 OFFCURVE",
"281 430 CURVE SMOOTH",
"381 430 OFFCURVE",
"461 349 OFFCURVE",
"461 249 CURVE SMOOTH",
"461 150 OFFCURVE",
"380 70 OFFCURVE",
"281 70 CURVE SMOOTH"
);
}
);
width = 561;
},
{
associatedMasterId = "E2083702-67E7-471D-AE09-DB685EF5235E";
layerId = "92FEBD09-292D-47F8-A751-004192770891";
name = path;
paths = (
{
closed = 1;
nodes = (
"590 0 OFFCURVE",
"744 112 OFFCURVE",
"744 251 CURVE SMOOTH",
"744 388 OFFCURVE",
"590 500 OFFCURVE",
"400 500 CURVE SMOOTH",
"209 500 OFFCURVE",
"54 388 OFFCURVE",
"54 251 CURVE SMOOTH",
"54 112 OFFCURVE",
"209 0 OFFCURVE",
"400 0 CURVE SMOOTH"
);
}
);
width = 600;
},
{
associatedMasterId = "E2083702-67E7-471D-AE09-DB685EF5235E";
layerId = "E0F2A5B9-11AC-4B91-9ED8-273BF78EDAC2";
name = "Nov 21 18, 15:04";
paths = (
{
closed = 1;
nodes = (
"370 35 OFFCURVE",
"466 131 OFFCURVE",
"466 249 CURVE SMOOTH",
"466 369 OFFCURVE",
"370 465 OFFCURVE",
"251 465 CURVE SMOOTH",
"131 465 OFFCURVE",
"35 369 OFFCURVE",
"35 249 CURVE SMOOTH",
"35 131 OFFCURVE",
"131 35 OFFCURVE",
"251 35 CURVE SMOOTH"
);
}
);
width = 600;
}
);
},
{
color = 3;
glyphname = s.alt1;
lastChange = "2019-01-25 15:45:45 +0000";
layers = (
{
guideLines = (
{
locked = 1;
position = "{55, 250}";
}
);
layerId = "E2083702-67E7-471D-AE09-DB685EF5235E";
paths = (
{
closed = 1;
nodes = (
"378 0 LINE SMOOTH",
"481 0 OFFCURVE",
"547 55 OFFCURVE",
"547 143 CURVE SMOOTH",
"547 232 OFFCURVE",
"482 285 OFFCURVE",
"378 285 CURVE SMOOTH",
"199 285 LINE SMOOTH",
"131 285 OFFCURVE",
"100 310 OFFCURVE",
"100 358 CURVE SMOOTH",
"100 404 OFFCURVE",
"133 430 OFFCURVE",
"199 430 CURVE SMOOTH",
"512 430 LINE SMOOTH",
"531 430 OFFCURVE",
"547 446 OFFCURVE",
"547 465 CURVE SMOOTH",
"547 484 OFFCURVE",
"531 500 OFFCURVE",
"512 500 CURVE SMOOTH",
"199 500 LINE SMOOTH",
"96 500 OFFCURVE",
"30 446 OFFCURVE",
"30 358 CURVE SMOOTH",
"30 269 OFFCURVE",
"95 215 OFFCURVE",
"199 215 CURVE SMOOTH",
"378 215 LINE SMOOTH",
"445 215 OFFCURVE",
"477 190 OFFCURVE",
"477 143 CURVE SMOOTH",
"477 96 OFFCURVE",
"444 70 OFFCURVE",
"378 70 CURVE SMOOTH",
"65 70 LINE SMOOTH",
"46 70 OFFCURVE",
"30 54 OFFCURVE",
"30 35 CURVE SMOOTH",
"30 16 OFFCURVE",
"46 0 OFFCURVE",
"65 0 CURVE SMOOTH"
);
}
);
width = 577;
},
{
associatedMasterId = "E2083702-67E7-471D-AE09-DB685EF5235E";
guideLines = (
{
locked = 1;
position = "{-50, 250}";
}
);
layerId = "1A06E017-4FC1-42A8-A4AA-D422D6BDFA8E";
name = path;
paths = (
{
closed = 0;
nodes = (
"20 0 LINE",
"364 0 LINE SMOOTH",
"484 0 OFFCURVE",
"520 57 OFFCURVE",
"520 125 CURVE SMOOTH",
"520 195 OFFCURVE",
"484 250 OFFCURVE",
"364 250 CURVE",
"156 250 LINE SMOOTH",
"46 250 OFFCURVE",
"0 305 OFFCURVE",
"0 375 CURVE SMOOTH",
"0 443 OFFCURVE",
"46 500 OFFCURVE",
"156 500 CURVE SMOOTH",
"500 500 LINE"
);
}
);
width = 600;
},
{
associatedMasterId = "E2083702-67E7-471D-AE09-DB685EF5235E";
guideLines = (
{
locked = 1;
position = "{-50, 250}";
}
);
layerId = "A785FA6C-6895-4DE9-8086-4A36EAB319A5";
name = "Nov 21 18, 15:07";
paths = (
{
closed = 0;
nodes = (
"35 35 LINE",
"348 35 LINE SMOOTH",
"443 35 OFFCURVE",
"482 84 OFFCURVE",
"482 143 CURVE SMOOTH",
"482 203 OFFCURVE",
"443 250 OFFCURVE",
"348 250 CURVE",
"169 250 LINE SMOOTH",
"74 250 OFFCURVE",
"35 297 OFFCURVE",
"35 358 CURVE SMOOTH",
"35 416 OFFCURVE",
"74 465 OFFCURVE",
"169 465 CURVE SMOOTH",
"482 465 LINE"
);
}
);
width = 600;
}
);
},
{
color = 3;
glyphname = t.alt1;
lastChange = "2019-01-25 15:45:45 +0000";
layers = (
{
layerId = "E2083702-67E7-471D-AE09-DB685EF5235E";
paths = (
{
closed = 1;
nodes = (
"277 0 OFFCURVE",
"367 52 OFFCURVE",
"414 127 CURVE SMOOTH",
"417 133 OFFCURVE",
"419 139 OFFCURVE",
"419 146 CURVE SMOOTH",
"419 165 OFFCURVE",
"403 181 OFFCURVE",
"384 181 CURVE SMOOTH",
"371 181 OFFCURVE",
"360 174 OFFCURVE",
"354 164 CURVE SMOOTH",
"320 109 OFFCURVE",
"253 70 OFFCURVE",
"193 70 CURVE SMOOTH",
"173 70 OFFCURVE",
"170 74 OFFCURVE",
"170 85 CURVE SMOOTH",
"170 430 LINE",
"335 430 LINE SMOOTH",
"354 430 OFFCURVE",
"370 446 OFFCURVE",
"370 465 CURVE SMOOTH",
"370 484 OFFCURVE",
"354 500 OFFCURVE",
"335 500 CURVE SMOOTH",
"170 500 LINE",
"170 665 LINE SMOOTH",
"170 684 OFFCURVE",
"154 700 OFFCURVE",
"135 700 CURVE SMOOTH",
"116 700 OFFCURVE",
"100 684 OFFCURVE",
"100 665 CURVE SMOOTH",
"100 500 LINE",
"65 500 LINE SMOOTH",
"46 500 OFFCURVE",
"30 484 OFFCURVE",
"30 465 CURVE SMOOTH",
"30 446 OFFCURVE",
"46 430 OFFCURVE",
"65 430 CURVE SMOOTH",
"100 430 LINE",
"100 85 LINE SMOOTH",
"100 32 OFFCURVE",
"136 0 OFFCURVE",
"193 0 CURVE SMOOTH"
);
}
);
width = 449;
},
{
associatedMasterId = "E2083702-67E7-471D-AE09-DB685EF5235E";
layerId = "720B27C0-E942-4ABF-80D4-FDB20DE9D572";
name = "Nov 21 18, 15:14";
paths = (
{
closed = 0;
nodes = (
"248 665 LINE",
"248 85 LINE SMOOTH",
"248 50 OFFCURVE",
"271 35 OFFCURVE",
"306 35 CURVE SMOOTH",
"376 35 OFFCURVE",
"456 79 OFFCURVE",
"497 146 CURVE"
);
},
{
closed = 0;
nodes = (
"178 465 LINE",
"448 465 LINE"
);
}
);
width = 600;
}
);
},
{
glyphname = y.alt1;
lastChange = "2019-01-25 15:45:46 +0000";
layers = (
{
layerId = "E2083702-67E7-471D-AE09-DB685EF5235E";
paths = (
{
closed = 1;
nodes = (
"159 -200 OFFCURVE",
"171 -192 OFFCURVE",
"177 -180 CURVE SMOOTH",
"496 449 LINE SMOOTH",
"499 453 OFFCURVE",
"500 459 OFFCURVE",
"500 465 CURVE SMOOTH",
"500 484 OFFCURVE",
"484 500 OFFCURVE",
"465 500 CURVE SMOOTH",
"451 500 OFFCURVE",
"439 492 OFFCURVE",
"433 480 CURVE SMOOTH",
"249 117 LINE",
"98 478 LINE SMOOTH",
"92 491 OFFCURVE",
"80 500 OFFCURVE",
"65 500 CURVE SMOOTH",
"46 500 OFFCURVE",
"30 484 OFFCURVE",
"30 465 CURVE SMOOTH",
"30 460 OFFCURVE",
"31 455 OFFCURVE",
"33 451 CURVE SMOOTH",
"207 35 LINE",
"114 -149 LINE SMOOTH",
"111 -153 OFFCURVE",
"110 -159 OFFCURVE",
"110 -165 CURVE SMOOTH",
"110 -184 OFFCURVE",
"126 -200 OFFCURVE",
"145 -200 CURVE SMOOTH"
);
}
);
width = 530;
},
{
associatedMasterId = "E2083702-67E7-471D-AE09-DB685EF5235E";
layerId = "DB945784-C909-440E-AE33-0D4FBF4BC74C";
name = "Dec 9 18, 16:43";
paths = (
{
closed = 0;
nodes = (
"270 -165 LINE",
"590 465 LINE"
);
},
{
closed = 0;
nodes = (
"190 465 LINE",
"370 35 LINE"
);
}
);
width = 600;
}
);
},
{
color = 1;
glyphname = z.alt1;
lastChange = "2019-01-25 15:45:45 +0000";
layers = (
{
layerId = "E2083702-67E7-471D-AE09-DB685EF5235E";
paths = (
{
closed = 1;
nodes = (
"104 -283 OFFCURVE",
"566 -220 OFFCURVE",
"566 0 CURVE SMOOTH",
"566 144 OFFCURVE",
"430 194 OFFCURVE",
"253 145 CURVE",
"536 419 LINE SMOOTH",
"551 433 OFFCURVE",
"554 448 OFFCURVE",
"546 467 CURVE SMOOTH",
"544 473 LINE SMOOTH",
"537 491 OFFCURVE",
"524 500 OFFCURVE",
"504 500 CURVE SMOOTH",
"90 501 LINE SMOOTH",
"72 501 OFFCURVE",
"60 496 OFFCURVE",
"48 484 CURVE SMOOTH",
"35 471 OFFCURVE",
"30 459 OFFCURVE",
"30 441 CURVE SMOOTH",
"30 374 LINE SMOOTH",
"30 355 OFFCURVE",
"46 339 OFFCURVE",
"65 339 CURVE SMOOTH",
"84 339 OFFCURVE",
"100 355 OFFCURVE",
"100 374 CURVE SMOOTH",
"100 431 LINE",
"447 430 LINE",
"88 83 LINE SMOOTH",
"73 68 OFFCURVE",
"71 51 OFFCURVE",
"85 34 CURVE SMOOTH",
"87 31 LINE SMOOTH",
"100 14 OFFCURVE",
"116 11 OFFCURVE",
"136 21 CURVE SMOOTH",
"292 105 OFFCURVE",
"496 142 OFFCURVE",
"496 0 CURVE SMOOTH",
"496 -141 OFFCURVE",
"145 -185 OFFCURVE",
"98 -51 CURVE SMOOTH",
"94 -37 OFFCURVE",
"81 -27 OFFCURVE",
"65 -27 CURVE SMOOTH",
"46 -27 OFFCURVE",
"30 -43 OFFCURVE",
"30 -62 CURVE SMOOTH",
"30 -66 OFFCURVE",
"31 -70 OFFCURVE",
"32 -74 CURVE SMOOTH"
);
}
);
width = 596;
},
{
associatedMasterId = "E2083702-67E7-471D-AE09-DB685EF5235E";
layerId = "80D343F0-467B-4C7E-9605-16AF17666C29";
name = "Dec 9 18, 16:46";
paths = (
{
closed = 0;
nodes = (
"106 -99 LINE SMOOTH",
"237 -247 OFFCURVE",
"590 -247 OFFCURVE",
"592 -35 CURVE SMOOTH",
"594 170 OFFCURVE",
"223 73 OFFCURVE",
"150 35 CURVE",
"594 465 LINE",
"126 466 LINE",
"126 316 LINE"
);
}
);
width = 600;
},
{
associatedMasterId = "E2083702-67E7-471D-AE09-DB685EF5235E";
layerId = "3F667F5D-39D3-4AEB-991B-70B8C03646AD";
name = "Dec 11 18, 13:09";
paths = (
{
closed = 0;
nodes = (
"126 -62 LINE",
"177 -212 OFFCURVE",
"592 -203 OFFCURVE",
"592 0 CURVE",
"592 195 OFFCURVE",
"314 133 OFFCURVE",
"150 35 CURVE",
"594 465 LINE",
"126 466 LINE",
"126 374 LINE"
);
}
);
width = 600;
}
);
},
{
color = 0;
glyphname = g.alt2;
lastChange = "2019-01-25 15:45:45 +0000";
layers = (
{
layerId = "E2083702-67E7-471D-AE09-DB685EF5235E";
paths = (
{
closed = 1;
nodes = (
"464 -200 OFFCURVE",
"564 -134 OFFCURVE",
"564 -40 CURVE SMOOTH",
"564 54 OFFCURVE",
"464 120 OFFCURVE",
"330 120 CURVE SMOOTH",
"238 120 OFFCURVE",
"169 94 OFFCURVE",
"113 67 CURVE",
"159 230 LINE",
"203 181 OFFCURVE",
"282 150 OFFCURVE",
"373 150 CURVE SMOOTH",
"516 150 OFFCURVE",
"628 225 OFFCURVE",
"628 325 CURVE SMOOTH",
"628 365 OFFCURVE",
"610 401 OFFCURVE",
"579 430 CURVE",
"658 430 LINE SMOOTH",
"677 430 OFFCURVE",
"693 446 OFFCURVE",
"693 465 CURVE SMOOTH",
"693 484 OFFCURVE",
"677 500 OFFCURVE",
"658 500 CURVE SMOOTH",
"212 500 LINE SMOOTH",
"195 500 OFFCURVE",
"183 496 OFFCURVE",
"171 487 CURVE SMOOTH",
"159 478 OFFCURVE",
"152 468 OFFCURVE",
"148 451 CURVE SMOOTH",
"32 37 LINE SMOOTH",
"27 18 OFFCURVE",
"31 4 OFFCURVE",
"46 -9 CURVE SMOOTH",
"51 -13 LINE SMOOTH",
"66 -26 OFFCURVE",
"82 -28 OFFCURVE",
"99 -18 CURVE SMOOTH",
"106 -15 LINE SMOOTH",
"168 17 OFFCURVE",
"232 50 OFFCURVE",
"330 50 CURVE SMOOTH",
"424 50 OFFCURVE",
"494 10 OFFCURVE",
"494 -40 CURVE SMOOTH",
"494 -90 OFFCURVE",
"424 -130 OFFCURVE",
"330 -130 CURVE SMOOTH",
"239 -130 OFFCURVE",
"162 -109 OFFCURVE",
"114 -70 CURVE SMOOTH",
"108 -65 OFFCURVE",
"100 -62 OFFCURVE",
"92 -62 CURVE SMOOTH",
"73 -62 OFFCURVE",
"57 -78 OFFCURVE",
"57 -97 CURVE SMOOTH",
"57 -108 OFFCURVE",
"62 -118 OFFCURVE",
"70 -125 CURVE SMOOTH",
"131 -173 OFFCURVE",
"224 -200 OFFCURVE",
"330 -200 CURVE SMOOTH"
);
},
{
closed = 1;
nodes = (
"271 220 OFFCURVE",
"189 269 OFFCURVE",
"189 325 CURVE",
"218 430 LINE",
"373 430 LINE",
"476 430 OFFCURVE",
"558 381 OFFCURVE",
"558 325 CURVE SMOOTH",
"558 269 OFFCURVE",
"476 220 OFFCURVE",
"373 220 CURVE SMOOTH"
);
}
);
width = 723;
},
{
associatedMasterId = "E2083702-67E7-471D-AE09-DB685EF5235E";
layerId = "60E53571-18B2-469D-B366-638EB42405BE";
name = "Nov 21 18, 15:19";
paths = (
{
closed = 0;
nodes = (
"582 465 LINE",
"130 465 LINE",
"0 35 LINE",
"70 69 OFFCURVE",
"147 95 OFFCURVE",
"272 95 CURVE SMOOTH",
"367 95 OFFCURVE",
"471 49 OFFCURVE",
"471 -35 CURVE SMOOTH",
"471 -119 OFFCURVE",
"367 -165 OFFCURVE",
"272 -165 CURVE SMOOTH",
"151 -165 OFFCURVE",
"75 -130 OFFCURVE",
"34 -97 CURVE SMOOTH",
"16 -82 OFFCURVE",
"5 -69 OFFCURVE",
"-1 -58 CURVE SMOOTH"
);
},
{
closed = 1;
nodes = (
"439 185 OFFCURVE",
"532 249 OFFCURVE",
"532 325 CURVE SMOOTH",
"532 401 OFFCURVE",
"439 465 OFFCURVE",
"312 465 CURVE SMOOTH",
"187 465 OFFCURVE",
"93 401 OFFCURVE",
"93 325 CURVE SMOOTH",
"93 249 OFFCURVE",
"187 185 OFFCURVE",
"312 185 CURVE SMOOTH"
);
}
);
width = 600;
},
{
associatedMasterId = "E2083702-67E7-471D-AE09-DB685EF5235E";
layerId = "98F50E88-67BA-48A7-B067-B4A3EE263DDF";
name = "Nov 21 18, 15:23";
paths = (
{
closed = 0;
nodes = (
"600 465 LINE",
"130 465 LINE",
"0 0 LINE",
"70 34 OFFCURVE",
"147 85 OFFCURVE",
"272 85 CURVE SMOOTH",
"367 85 OFFCURVE",
"471 44 OFFCURVE",
"471 -40 CURVE SMOOTH",
"471 -124 OFFCURVE",
"367 -165 OFFCURVE",
"272 -165 CURVE SMOOTH",
"151 -165 OFFCURVE",
"75 -130 OFFCURVE",
"34 -97 CURVE SMOOTH"
);
},
{
closed = 1;
nodes = (
"439 185 OFFCURVE",
"532 249 OFFCURVE",
"532 325 CURVE SMOOTH",
"532 401 OFFCURVE",
"439 465 OFFCURVE",
"312 465 CURVE SMOOTH",
"187 465 OFFCURVE",
"93 401 OFFCURVE",
"93 325 CURVE SMOOTH",
"93 249 OFFCURVE",
"187 185 OFFCURVE",
"312 185 CURVE SMOOTH"
);
}
);
width = 600;
},
{
associatedMasterId = "E2083702-67E7-471D-AE09-DB685EF5235E";
layerId = "78393D8F-F2E2-4ED8-B327-59F1DCD94493";
name = "Nov 21 18, 15:24";
paths = (
{
closed = 0;
nodes = (
"600 465 LINE",
"130 465 LINE",
"0 0 LINE",
"70 34 OFFCURVE",
"147 85 OFFCURVE",
"272 85 CURVE SMOOTH",
"367 85 OFFCURVE",
"471 44 OFFCURVE",
"471 -40 CURVE SMOOTH",
"471 -124 OFFCURVE",
"367 -165 OFFCURVE",
"272 -165 CURVE SMOOTH",
"151 -165 OFFCURVE",
"75 -130 OFFCURVE",
"34 -97 CURVE SMOOTH"
);
},
{
closed = 1;
nodes = (
"442 185 OFFCURVE",
"535 249 OFFCURVE",
"535 325 CURVE SMOOTH",
"535 401 OFFCURVE",
"442 465 OFFCURVE",
"315 465 CURVE SMOOTH",
"190 465 OFFCURVE",
"96 401 OFFCURVE",
"96 325 CURVE SMOOTH",
"96 249 OFFCURVE",
"190 185 OFFCURVE",
"315 185 CURVE SMOOTH"
);
}
);
width = 600;
},
{
associatedMasterId = "E2083702-67E7-471D-AE09-DB685EF5235E";
layerId = "61A34186-9CB7-4876-9C7A-453B35F61E3F";
name = "Dec 9 18, 16:41";
paths = (
{
closed = 1;
nodes = (
"406.416 -200 OFFCURVE",
"506 -134.106 OFFCURVE",
"506 -40 CURVE SMOOTH",
"506 54.106 OFFCURVE",
"406.416 120 OFFCURVE",
"272 120 CURVE SMOOTH",
"180.729 120 OFFCURVE",
"112 94.224 OFFCURVE",
"56.465 67.607 CURVE",
"103.453 226.682 LINE",
"148.76 179.901 OFFCURVE",
"226.151 150 OFFCURVE",
"315 150 CURVE SMOOTH",
"457.774 150 OFFCURVE",
"570 225.402 OFFCURVE",
"570 325 CURVE SMOOTH",
"570 365.012 OFFCURVE",
"551.888 401.118 OFFCURVE",
"520.96 430 CURVE",
"600 430 LINE SMOOTH",
"619.33 430 OFFCURVE",
"635 445.67 OFFCURVE",
"635 465 CURVE SMOOTH",
"635 484.33 OFFCURVE",
"619.33 500 OFFCURVE",
"600 500 CURVE SMOOTH",
"315 500 LINE SMOOTH",
"176.066 500 OFFCURVE",
"65.148 426.885 OFFCURVE",
"61.114 330.446 CURVE",
"-25.349 37.733 LINE SMOOTH",
"-30.991 18.634 OFFCURVE",
"-26.63 4.038 OFFCURVE",
"-11.436 -8.836 CURVE SMOOTH",
"-6.941 -12.645 LINE SMOOTH",
"8.304 -25.562 OFFCURVE",
"23.551 -27.604 OFFCURVE",
"41.327 -18.399 CURVE SMOOTH",
"48.208 -14.861 LINE SMOOTH",
"110.257 17.064 OFFCURVE",
"174.274 50 OFFCURVE",
"272 50 CURVE SMOOTH",
"366.416 50 OFFCURVE",
"436 10.463 OFFCURVE",
"436 -40 CURVE SMOOTH",
"436 -90.463 OFFCURVE",
"366.416 -130 OFFCURVE",
"272 -130 CURVE SMOOTH",
"180.622 -130 OFFCURVE",
"104.464 -108.699 OFFCURVE",
"56.104 -69.863 CURVE SMOOTH",
"50.078 -64.948 OFFCURVE",
"42.383 -62 OFFCURVE",
"34 -62 CURVE SMOOTH",
"14.67 -62 OFFCURVE",
"-1 -77.67 OFFCURVE",
"-1 -97 CURVE SMOOTH",
"-1 -108.179 OFFCURVE",
"4.241 -118.135 OFFCURVE",
"12.401 -124.542 CURVE SMOOTH",
"72.923 -173.071 OFFCURVE",
"166.422 -200 OFFCURVE",
"272 -200 CURVE SMOOTH"
);
},
{
closed = 1;
nodes = (
"213.075 220 OFFCURVE",
"131 269.142 OFFCURVE",
"131 325 CURVE SMOOTH",
"131 380.858 OFFCURVE",
"213.075 430 OFFCURVE",
"315 430 CURVE SMOOTH",
"418.248 430 OFFCURVE",
"500 381.277 OFFCURVE",
"500 325 CURVE SMOOTH",
"500 268.723 OFFCURVE",
"418.248 220 OFFCURVE",
"315 220 CURVE SMOOTH"
);
}
);
width = 600;
}
);
},
{
color = 3;
glyphname = k.alt2;
lastChange = "2019-01-25 15:45:46 +0000";
layers = (
{
layerId = "E2083702-67E7-471D-AE09-DB685EF5235E";
paths = (
{
closed = 1;
nodes = (
"100 52 OFFCURVE",
"100 52 OFFCURVE",
"101 69 CURVE SMOOTH",
"105 113 OFFCURVE",
"116 157 OFFCURVE",
"131 199 CURVE",
"172 79 OFFCURVE",
"265 0 OFFCURVE",
"373 0 CURVE SMOOTH",
"392 0 OFFCURVE",
"408 16 OFFCURVE",
"408 35 CURVE SMOOTH",
"408 54 OFFCURVE",
"392 70 OFFCURVE",
"373 70 CURVE SMOOTH",
"298 70 OFFCURVE",
"231 127 OFFCURVE",
"199 216 CURVE",
"372 224 OFFCURVE",
"473 275 OFFCURVE",
"473 364 CURVE SMOOTH",
"473 453 OFFCURVE",
"426 500 OFFCURVE",
"336 500 CURVE SMOOTH",
"250 500 OFFCURVE",
"160 418 OFFCURVE",
"100 305 CURVE",
"100 665 LINE SMOOTH",
"100 684 OFFCURVE",
"84 700 OFFCURVE",
"65 700 CURVE SMOOTH",
"46 700 OFFCURVE",
"30 684 OFFCURVE",
"30 665 CURVE SMOOTH",
"30 35 LINE SMOOTH",
"30 16 OFFCURVE",
"46 0 OFFCURVE",
"65 0 CURVE SMOOTH",
"84 0 OFFCURVE",
"100 16 OFFCURVE",
"100 35 CURVE"
);
},
{
closed = 1;
nodes = (
"217 369 OFFCURVE",
"280 430 OFFCURVE",
"336 430 CURVE SMOOTH",
"387 430 OFFCURVE",
"403 414 OFFCURVE",
"403 364 CURVE SMOOTH",
"403 321 OFFCURVE",
"315 288 OFFCURVE",
"170 285 CURVE"
);
}
);
width = 503;
},
{
associatedMasterId = "E2083702-67E7-471D-AE09-DB685EF5235E";
layerId = "21B12486-A7F8-481F-BAF6-092AF754F723";
name = path1;
paths = (
{
closed = 0;
nodes = (
"112 700 LINE",
"112 0 LINE"
);
},
{
closed = 0;
nodes = (
"370 0 LINE",
"112 319 LINE",
"370 500 LINE"
);
}
);
width = 600;
},
{
associatedMasterId = "E2083702-67E7-471D-AE09-DB685EF5235E";
layerId = "172FA51B-6FC1-4173-A586-A1B8678CA38E";
name = path2;
paths = (
{
closed = 0;
nodes = (
"20 700 LINE",
"112 700 LINE",
"112 0 LINE"
);
},
{
closed = 0;
nodes = (
"112 285 LINE",
"370 500 LINE"
);
},
{
closed = 0;
nodes = (
"370 0 LINE",
"197 355 LINE"
);
}
);
width = 600;
},
{
associatedMasterId = "E2083702-67E7-471D-AE09-DB685EF5235E";
layerId = "6DE14EC9-87F8-43F2-98D7-580D18CB9C5F";
name = "Oct 16 18, 16:46";
paths = (
{
closed = 0;
nodes = (
"102 665 LINE",
"102 35 LINE",
"102 250 OFFCURVE",
"254 465 OFFCURVE",
"373 465 CURVE SMOOTH",
"438 465 OFFCURVE",
"475 439 OFFCURVE",
"475 364 CURVE SMOOTH",
"475 294 OFFCURVE",
"373 250 OFFCURVE",
"190 250 CURVE",
"218 122 OFFCURVE",
"306 35 OFFCURVE",
"410 35 CURVE"
);
}
);
width = 600;
}
);
},
{
color = 3;
glyphname = e.atl1;
lastChange = "2019-01-25 15:45:45 +0000";
layers = (
{
layerId = "E2083702-67E7-471D-AE09-DB685EF5235E";
paths = (
{
closed = 1;
nodes = (
"513 0 LINE SMOOTH",
"532 0 OFFCURVE",
"548 16 OFFCURVE",
"548 35 CURVE SMOOTH",
"548 54 OFFCURVE",
"532 70 OFFCURVE",
"513 70 CURVE SMOOTH",
"368 70 LINE SMOOTH",
"206 70 OFFCURVE",
"119 118 OFFCURVE",
"103 215 CURVE",
"648 215 LINE SMOOTH",
"666 215 OFFCURVE",
"678 220 OFFCURVE",
"691 233 CURVE SMOOTH",
"703 245 OFFCURVE",
"709 258 OFFCURVE",
"706 276 CURVE SMOOTH",
"704 294 OFFCURVE",
"699 311 OFFCURVE",
"692 327 CURVE SMOOTH",
"683 348 OFFCURVE",
"669 370 OFFCURVE",
"651 390 CURVE SMOOTH",
"590 459 OFFCURVE",
"485 500 OFFCURVE",
"368 500 CURVE SMOOTH",
"180 500 OFFCURVE",
"30 391 OFFCURVE",
"30 250 CURVE SMOOTH",
"30 87 OFFCURVE",
"151 0 OFFCURVE",
"368 0 CURVE SMOOTH"
);
},
{
closed = 1;
nodes = (
"129 367 OFFCURVE",
"237 430 OFFCURVE",
"368 430 CURVE SMOOTH",
"466 430 OFFCURVE",
"551 398 OFFCURVE",
"599 344 CURVE SMOOTH",
"612 329 OFFCURVE",
"621 314 OFFCURVE",
"628 299 CURVE SMOOTH",
"628 299 LINE SMOOTH",
"630 294 OFFCURVE",
"632 290 OFFCURVE",
"633 285 CURVE",
"105 285 LINE"
);
}
);
width = 737;
},
{
associatedMasterId = "E2083702-67E7-471D-AE09-DB685EF5235E";
layerId = "273568FD-E836-4293-8DF4-950F6108DB39";
name = "Nov 21 18, 15:58";
paths = (
{
closed = 0;
nodes = (
"62 250 LINE",
"670 250 LINE",
"670 272 OFFCURVE",
"666 293 OFFCURVE",
"657 313 CURVE SMOOTH",
"649 332 OFFCURVE",
"637 350 OFFCURVE",
"622 367 CURVE SMOOTH",
"570 426 OFFCURVE",
"477 465 OFFCURVE",
"365 465 CURVE SMOOTH",
"192 465 OFFCURVE",
"62 367 OFFCURVE",
"62 250 CURVE SMOOTH",
"62 133 OFFCURVE",
"134 35 OFFCURVE",
"365 35 CURVE",
"590 35 LINE"
);
}
);
width = 770;
}
);
},
{
glyphname = f_f;
lastChange = "2019-01-25 15:45:45 +0000";
layers = (
{
layerId = "E2083702-67E7-471D-AE09-DB685EF5235E";
paths = (
{
closed = 1;
nodes = (
"359 430 LINE",
"359 35 LINE SMOOTH",
"359 16 OFFCURVE",
"375 0 OFFCURVE",
"394 0 CURVE SMOOTH",
"413 0 OFFCURVE",
"429 16 OFFCURVE",
"429 35 CURVE SMOOTH",
"429 430 LINE",
"541 430 LINE SMOOTH",
"560 430 OFFCURVE",
"576 446 OFFCURVE",
"576 465 CURVE SMOOTH",
"576 484 OFFCURVE",
"560 500 OFFCURVE",
"541 500 CURVE SMOOTH",
"429 500 LINE",
"429 607 OFFCURVE",
"450 630 OFFCURVE",
"541 630 CURVE SMOOTH",
"560 630 OFFCURVE",
"576 646 OFFCURVE",
"576 665 CURVE SMOOTH",
"576 684 OFFCURVE",
"560 700 OFFCURVE",
"541 700 CURVE SMOOTH",
"409 700 OFFCURVE",
"359 645 OFFCURVE",
"359 500 CURVE",
"170 500 LINE",
"170 607 OFFCURVE",
"191 630 OFFCURVE",
"282 630 CURVE SMOOTH",
"301 630 OFFCURVE",
"317 646 OFFCURVE",
"317 665 CURVE SMOOTH",
"317 684 OFFCURVE",
"301 700 OFFCURVE",
"282 700 CURVE SMOOTH",
"150 700 OFFCURVE",
"100 645 OFFCURVE",
"100 500 CURVE",
"65 500 LINE SMOOTH",
"46 500 OFFCURVE",
"30 484 OFFCURVE",
"30 465 CURVE SMOOTH",
"30 446 OFFCURVE",
"46 430 OFFCURVE",
"65 430 CURVE SMOOTH",
"100 430 LINE",
"100 35 LINE SMOOTH",
"100 16 OFFCURVE",
"116 0 OFFCURVE",
"135 0 CURVE SMOOTH",
"154 0 OFFCURVE",
"170 16 OFFCURVE",
"170 35 CURVE SMOOTH",
"170 430 LINE"
);
}
);
width = 606;
}
);
},
{
glyphname = f_f_l;
lastChange = "2019-01-25 15:45:45 +0000";
layers = (
{
layerId = "E2083702-67E7-471D-AE09-DB685EF5235E";
paths = (
{
closed = 1;
nodes = (
"720 700 OFFCURVE",
"736 684 OFFCURVE",
"736 665 CURVE SMOOTH",
"736 35 LINE SMOOTH",
"736 16 OFFCURVE",
"720 0 OFFCURVE",
"701 0 CURVE SMOOTH",
"682 0 OFFCURVE",
"666 16 OFFCURVE",
"666 35 CURVE SMOOTH",
"666 630 LINE",
"541 630 LINE",
"450 630 OFFCURVE",
"429 607 OFFCURVE",
"429 500 CURVE",
"541 500 LINE SMOOTH",
"560 500 OFFCURVE",
"576 484 OFFCURVE",
"576 465 CURVE SMOOTH",
"576 446 OFFCURVE",
"560 430 OFFCURVE",
"541 430 CURVE SMOOTH",
"429 430 LINE",
"429 35 LINE SMOOTH",
"429 16 OFFCURVE",
"413 0 OFFCURVE",
"394 0 CURVE SMOOTH",
"375 0 OFFCURVE",
"359 16 OFFCURVE",
"359 35 CURVE SMOOTH",
"359 430 LINE",
"170 430 LINE",
"170 35 LINE SMOOTH",
"170 16 OFFCURVE",
"154 0 OFFCURVE",
"135 0 CURVE SMOOTH",
"116 0 OFFCURVE",
"100 16 OFFCURVE",
"100 35 CURVE SMOOTH",
"100 430 LINE",
"65 430 LINE SMOOTH",
"46 430 OFFCURVE",
"30 446 OFFCURVE",
"30 465 CURVE SMOOTH",
"30 484 OFFCURVE",
"46 500 OFFCURVE",
"65 500 CURVE SMOOTH",
"100 500 LINE",
"100 645 OFFCURVE",
"150 700 OFFCURVE",
"282 700 CURVE SMOOTH",
"301 700 OFFCURVE",
"317 684 OFFCURVE",
"317 665 CURVE SMOOTH",
"317 646 OFFCURVE",
"301 630 OFFCURVE",
"282 630 CURVE SMOOTH",
"191 630 OFFCURVE",
"170 607 OFFCURVE",
"170 500 CURVE",
"359 500 LINE",
"359 645 OFFCURVE",
"409 700 OFFCURVE",
"541 700 CURVE",
"701 700 LINE SMOOTH"
);
}
);
width = 766;
},
{
associatedMasterId = "E2083702-67E7-471D-AE09-DB685EF5235E";
layerId = "88EBBED8-2A2D-4095-8B6E-5809EB5B5ECD";
name = "Nov 22 18, 19:00";
paths = (
{
closed = 1;
nodes = (
"720 0 OFFCURVE",
"736 16 OFFCURVE",
"736 35 CURVE SMOOTH",
"736 665 LINE SMOOTH",
"736 684 OFFCURVE",
"720 700 OFFCURVE",
"701 700 CURVE SMOOTH",
"682 700 OFFCURVE",
"666 684 OFFCURVE",
"666 665 CURVE SMOOTH",
"666 35 LINE SMOOTH",
"666 16 OFFCURVE",
"682 0 OFFCURVE",
"701 0 CURVE SMOOTH"
);
},
{
closed = 1;
nodes = (
"359 430 LINE",
"359 35 LINE SMOOTH",
"359 16 OFFCURVE",
"375 0 OFFCURVE",
"394 0 CURVE SMOOTH",
"413 0 OFFCURVE",
"429 16 OFFCURVE",
"429 35 CURVE SMOOTH",
"429 430 LINE",
"541 430 LINE SMOOTH",
"560 430 OFFCURVE",
"576 446 OFFCURVE",
"576 465 CURVE SMOOTH",
"576 484 OFFCURVE",
"560 500 OFFCURVE",
"541 500 CURVE SMOOTH",
"429 500 LINE",
"429 607 OFFCURVE",
"450 630 OFFCURVE",
"541 630 CURVE SMOOTH",
"560 630 OFFCURVE",
"576 646 OFFCURVE",
"576 665 CURVE SMOOTH",
"576 684 OFFCURVE",
"560 700 OFFCURVE",
"541 700 CURVE SMOOTH",
"409 700 OFFCURVE",
"359 645 OFFCURVE",
"359 500 CURVE",
"170 500 LINE",
"170 607 OFFCURVE",
"191 630 OFFCURVE",
"282 630 CURVE SMOOTH",
"301 630 OFFCURVE",
"317 646 OFFCURVE",
"317 665 CURVE SMOOTH",
"317 684 OFFCURVE",
"301 700 OFFCURVE",
"282 700 CURVE SMOOTH",
"150 700 OFFCURVE",
"100 645 OFFCURVE",
"100 500 CURVE",
"65 500 LINE SMOOTH",
"46 500 OFFCURVE",
"30 484 OFFCURVE",
"30 465 CURVE SMOOTH",
"30 446 OFFCURVE",
"46 430 OFFCURVE",
"65 430 CURVE SMOOTH",
"100 430 LINE",
"100 35 LINE SMOOTH",
"100 16 OFFCURVE",
"116 0 OFFCURVE",
"135 0 CURVE SMOOTH",
"154 0 OFFCURVE",
"170 16 OFFCURVE",
"170 35 CURVE SMOOTH",
"170 430 LINE"
);
}
);
width = 766;
}
);
},
{
glyphname = f_l;
lastChange = "2019-01-25 15:45:45 +0000";
layers = (
{
layerId = "E2083702-67E7-471D-AE09-DB685EF5235E";
paths = (
{
closed = 1;
nodes = (
"430 700 OFFCURVE",
"446 684 OFFCURVE",
"446 665 CURVE SMOOTH",
"446 35 LINE SMOOTH",
"446 16 OFFCURVE",
"430 0 OFFCURVE",
"411 0 CURVE SMOOTH",
"392 0 OFFCURVE",
"376 16 OFFCURVE",
"376 35 CURVE SMOOTH",
"376 630 LINE",
"282 630 LINE SMOOTH",
"191 630 OFFCURVE",
"170 607 OFFCURVE",
"170 500 CURVE",
"282 500 LINE SMOOTH",
"301 500 OFFCURVE",
"317 484 OFFCURVE",
"317 465 CURVE SMOOTH",
"317 446 OFFCURVE",
"301 430 OFFCURVE",
"282 430 CURVE SMOOTH",
"170 430 LINE",
"170 35 LINE SMOOTH",
"170 16 OFFCURVE",
"154 0 OFFCURVE",
"135 0 CURVE SMOOTH",
"116 0 OFFCURVE",
"100 16 OFFCURVE",
"100 35 CURVE SMOOTH",
"100 430 LINE",
"65 430 LINE SMOOTH",
"46 430 OFFCURVE",
"30 446 OFFCURVE",
"30 465 CURVE SMOOTH",
"30 484 OFFCURVE",
"46 500 OFFCURVE",
"65 500 CURVE SMOOTH",
"100 500 LINE",
"100 645 OFFCURVE",
"150 700 OFFCURVE",
"282 700 CURVE",
"411 700 LINE SMOOTH"
);
}
);
width = 476;
},
{
associatedMasterId = "E2083702-67E7-471D-AE09-DB685EF5235E";
layerId = "F6FAEFC4-8A4D-4B39-BD57-3CC26DD1EE37";
name = "Nov 22 18, 18:46";
paths = (
{
closed = 1;
nodes = (
"154 0 OFFCURVE",
"170 16 OFFCURVE",
"170 35 CURVE SMOOTH",
"170 430 LINE",
"282 430 LINE SMOOTH",
"301 430 OFFCURVE",
"317 446 OFFCURVE",
"317 465 CURVE SMOOTH",
"317 484 OFFCURVE",
"301 500 OFFCURVE",
"282 500 CURVE SMOOTH",
"170 500 LINE",
"170 607 OFFCURVE",
"191 630 OFFCURVE",
"282 630 CURVE SMOOTH",
"301 630 OFFCURVE",
"317 646 OFFCURVE",
"317 665 CURVE SMOOTH",
"317 684 OFFCURVE",
"301 700 OFFCURVE",
"282 700 CURVE SMOOTH",
"150 700 OFFCURVE",
"100 645 OFFCURVE",
"100 500 CURVE",
"65 500 LINE SMOOTH",
"46 500 OFFCURVE",
"30 484 OFFCURVE",
"30 465 CURVE SMOOTH",
"30 446 OFFCURVE",
"46 430 OFFCURVE",
"65 430 CURVE SMOOTH",
"100 430 LINE",
"100 35 LINE SMOOTH",
"100 16 OFFCURVE",
"116 0 OFFCURVE",
"135 0 CURVE SMOOTH"
);
},
{
closed = 1;
nodes = (
"431 0 OFFCURVE",
"447 16 OFFCURVE",
"447 35 CURVE SMOOTH",
"447 665 LINE SMOOTH",
"447 684 OFFCURVE",
"431 700 OFFCURVE",
"412 700 CURVE SMOOTH",
"393 700 OFFCURVE",
"377 684 OFFCURVE",
"377 665 CURVE SMOOTH",
"377 35 LINE SMOOTH",
"377 16 OFFCURVE",
"393 0 OFFCURVE",
"412 0 CURVE SMOOTH"
);
}
);
visible = 1;
width = 477;
}
);
},
{
glyphname = C_a_n_o_n.liga;
lastChange = "2019-01-25 15:45:45 +0000";
layers = (
{
layerId = "E2083702-67E7-471D-AE09-DB685EF5235E";
paths = (
{
closed = 1;
nodes = (
"526 0 OFFCURVE",
"664 61 OFFCURVE",
"732 146 CURVE SMOOTH",
"737 152 OFFCURVE",
"740 160 OFFCURVE",
"740 168 CURVE SMOOTH",
"740 187 OFFCURVE",
"724 203 OFFCURVE",
"705 203 CURVE SMOOTH",
"694 203 OFFCURVE",
"684 198 OFFCURVE",
"678 190 CURVE SMOOTH",
"623 122 OFFCURVE",
"506 70 OFFCURVE",
"405 70 CURVE SMOOTH",
"232 70 OFFCURVE",
"100 192 OFFCURVE",
"100 350 CURVE SMOOTH",
"100 508 OFFCURVE",
"232 630 OFFCURVE",
"405 630 CURVE SMOOTH",
"513 630 OFFCURVE",
"603 600 OFFCURVE",
"660 546 CURVE",
"475 419 LINE SMOOTH",
"466 413 OFFCURVE",
"460 402 OFFCURVE",
"460 390 CURVE SMOOTH",
"460 371 OFFCURVE",
"476 355 OFFCURVE",
"495 355 CURVE SMOOTH",
"503 355 OFFCURVE",
"510 357 OFFCURVE",
"515 361 CURVE SMOOTH",
"711 497 LINE SMOOTH",
"726 507 OFFCURVE",
"733 518 OFFCURVE",
"736 536 CURVE SMOOTH",
"739 554 OFFCURVE",
"736 567 OFFCURVE",
"724 581 CURVE SMOOTH",
"655 657 OFFCURVE",
"540 700 OFFCURVE",
"405 700 CURVE SMOOTH",
"194 700 OFFCURVE",
"30 548 OFFCURVE",
"30 350 CURVE SMOOTH",
"30 152 OFFCURVE",
"194 0 OFFCURVE",
"405 0 CURVE SMOOTH"
);
},
{
closed = 1;
nodes = (
"979 70 OFFCURVE",
"888 125 OFFCURVE",
"888 188 CURVE SMOOTH",
"888 252 OFFCURVE",
"978 307 OFFCURVE",
"1093 307 CURVE SMOOTH",
"1209 307 OFFCURVE",
"1299 252 OFFCURVE",
"1299 188 CURVE SMOOTH",
"1299 125 OFFCURVE",
"1208 70 OFFCURVE",
"1093 70 CURVE SMOOTH"
);
},
{
closed = 1;
nodes = (
"1219 0 OFFCURVE",
"1324 54 OFFCURVE",
"1358 133 CURVE",
"1390 26 LINE SMOOTH",
"1394 11 OFFCURVE",
"1408 0 OFFCURVE",
"1424 0 CURVE SMOOTH",
"1443 0 OFFCURVE",
"1459 16 OFFCURVE",
"1459 35 CURVE SMOOTH",
"1459 39 OFFCURVE",
"1458 42 OFFCURVE",
"1457 46 CURVE SMOOTH",
"1334 452 LINE SMOOTH",
"1329 469 OFFCURVE",
"1323 479 OFFCURVE",
"1311 488 CURVE",
"1299 497 OFFCURVE",
"1287 500 OFFCURVE",
"1270 500 CURVE SMOOTH",
"1011 500 LINE SMOOTH",
"992 500 OFFCURVE",
"976 484 OFFCURVE",
"976 465 CURVE SMOOTH",
"976 446 OFFCURVE",
"992 430 OFFCURVE",
"1011 430 CURVE SMOOTH",
"1268 430 LINE",
"1304 312 LINE",
"1253 352 OFFCURVE",
"1178 377 OFFCURVE",
"1093 377 CURVE SMOOTH",
"939 377 OFFCURVE",
"818 295 OFFCURVE",
"818 188 CURVE SMOOTH",
"818 82 OFFCURVE",
"940 0 OFFCURVE",
"1093 0 CURVE SMOOTH"
);
},
{
closed = 1;
nodes = (
"1597 0 OFFCURVE",
"1613 16 OFFCURVE",
"1613 35 CURVE SMOOTH",
"1613 346 LINE",
"1671 369 OFFCURVE",
"1832 430 OFFCURVE",
"1928 430 CURVE SMOOTH",
"1950 430 OFFCURVE",
"1951 428 OFFCURVE",
"1951 415 CURVE SMOOTH",
"1951 35 LINE SMOOTH",
"1951 16 OFFCURVE",
"1967 0 OFFCURVE",
"1986 0 CURVE SMOOTH",
"2005 0 OFFCURVE",
"2021 16 OFFCURVE",
"2021 35 CURVE SMOOTH",
"2021 415 LINE SMOOTH",
"2021 470 OFFCURVE",
"1987 500 OFFCURVE",
"1928 500 CURVE SMOOTH",
"1833 500 OFFCURVE",
"1688 449 OFFCURVE",
"1613 421 CURVE",
"1613 443 LINE SMOOTH",
"1613 459 OFFCURVE",
"1608 470 OFFCURVE",
"1596 483 CURVE SMOOTH",
"1584 496 OFFCURVE",
"1571 500 OFFCURVE",
"1553 500 CURVE SMOOTH",
"1486 500 LINE SMOOTH",
"1467 500 OFFCURVE",
"1451 484 OFFCURVE",
"1451 465 CURVE SMOOTH",
"1451 446 OFFCURVE",
"1467 430 OFFCURVE",
"1486 430 CURVE SMOOTH",
"1543 430 LINE",
"1543 35 LINE SMOOTH",
"1543 16 OFFCURVE",
"1559 0 OFFCURVE",
"1578 0 CURVE SMOOTH"
);
},
{
closed = 1;
nodes = (
"2499 0 OFFCURVE",
"2611 112 OFFCURVE",
"2611 250 CURVE SMOOTH",
"2611 388 OFFCURVE",
"2499 500 OFFCURVE",
"2361 500 CURVE SMOOTH",
"2223 500 OFFCURVE",
"2111 388 OFFCURVE",
"2111 250 CURVE SMOOTH",
"2111 112 OFFCURVE",
"2223 0 OFFCURVE",
"2361 0 CURVE SMOOTH"
);
},
{
closed = 1;
nodes = (
"2261 70 OFFCURVE",
"2181 150 OFFCURVE",
"2181 250 CURVE SMOOTH",
"2181 350 OFFCURVE",
"2261 430 OFFCURVE",
"2361 430 CURVE SMOOTH",
"2461 430 OFFCURVE",
"2541 350 OFFCURVE",
"2541 250 CURVE SMOOTH",
"2541 150 OFFCURVE",
"2461 70 OFFCURVE",
"2361 70 CURVE SMOOTH"
);
},
{
closed = 1;
nodes = (
"2772 0 OFFCURVE",
"2788 16 OFFCURVE",
"2788 35 CURVE SMOOTH",
"2788 346 LINE",
"2846 369 OFFCURVE",
"3007 430 OFFCURVE",
"3103 430 CURVE SMOOTH",
"3125 430 OFFCURVE",
"3126 428 OFFCURVE",
"3126 415 CURVE SMOOTH",
"3126 35 LINE SMOOTH",
"3126 16 OFFCURVE",
"3142 0 OFFCURVE",
"3161 0 CURVE SMOOTH",
"3180 0 OFFCURVE",
"3196 16 OFFCURVE",
"3196 35 CURVE SMOOTH",
"3196 415 LINE SMOOTH",
"3196 470 OFFCURVE",
"3162 500 OFFCURVE",
"3103 500 CURVE SMOOTH",
"3008 500 OFFCURVE",
"2863 449 OFFCURVE",
"2788 421 CURVE",
"2788 443 LINE SMOOTH",
"2788 459 OFFCURVE",
"2783 470 OFFCURVE",
"2771 483 CURVE SMOOTH",
"2758 495 OFFCURVE",
"2746 500 OFFCURVE",
"2728 500 CURVE SMOOTH",
"2661 500 LINE SMOOTH",
"2642 500 OFFCURVE",
"2626 484 OFFCURVE",
"2626 465 CURVE SMOOTH",
"2626 446 OFFCURVE",
"2642 430 OFFCURVE",
"2661 430 CURVE SMOOTH",
"2718 430 LINE",
"2718 35 LINE SMOOTH",
"2718 16 OFFCURVE",
"2734 0 OFFCURVE",
"2753 0 CURVE SMOOTH"
);
}
);
width = 3226;
},
{
associatedMasterId = "E2083702-67E7-471D-AE09-DB685EF5235E";
layerId = "DE2C341E-77EA-4CE7-84F1-DF34FBE09D42";
name = "Dec 13 18, 11:17";
paths = (
{
closed = 0;
nodes = (
"690 168 LINE",
"633 97 OFFCURVE",
"509 35 OFFCURVE",
"390 35 CURVE SMOOTH",
"200 35 OFFCURVE",
"50 170 OFFCURVE",
"50 350 CURVE SMOOTH",
"50 530 OFFCURVE",
"200 665 OFFCURVE",
"390 665 CURVE SMOOTH",
"540 665 OFFCURVE",
"644 611 OFFCURVE",
"697 540 CURVE",
"480 390 LINE"
);
},
{
closed = 0;
nodes = (
"996 465 LINE",
"1279 465 LINE",
"1409 35 LINE"
);
},
{
closed = 1;
nodes = (
"1217 35 OFFCURVE",
"1319 105 OFFCURVE",
"1319 188 CURVE SMOOTH",
"1319 272 OFFCURVE",
"1217 342 OFFCURVE",
"1078 342 CURVE SMOOTH",
"941 342 OFFCURVE",
"838 272 OFFCURVE",
"838 188 CURVE SMOOTH",
"838 105 OFFCURVE",
"941 35 OFFCURVE",
"1078 35 CURVE SMOOTH"
);
},
{
closed = 0;
nodes = (
"1461 465 LINE",
"1553 465 LINE",
"1553 35 LINE"
);
},
{
closed = 0;
nodes = (
"1553 369 LINE",
"1553 369 OFFCURVE",
"1778 465 OFFCURVE",
"1903 465 CURVE SMOOTH",
"1929 465 OFFCURVE",
"1961 460 OFFCURVE",
"1961 415 CURVE SMOOTH",
"1961 35 LINE"
);
},
{
closed = 1;
nodes = (
"2435 35 OFFCURVE",
"2531 131 OFFCURVE",
"2531 250 CURVE SMOOTH",
"2531 369 OFFCURVE",
"2435 465 OFFCURVE",
"2316 465 CURVE SMOOTH",
"2197 465 OFFCURVE",
"2101 369 OFFCURVE",
"2101 250 CURVE SMOOTH",
"2101 131 OFFCURVE",
"2197 35 OFFCURVE",
"2316 35 CURVE SMOOTH"
);
},
{
closed = 0;
nodes = (
"2646 465 LINE",
"2738 465 LINE",
"2738 35 LINE"
);
},
{
closed = 0;
nodes = (
"2738 369 LINE",
"2738 369 OFFCURVE",
"2963 465 OFFCURVE",
"3088 465 CURVE SMOOTH",
"3114 465 OFFCURVE",
"3146 460 OFFCURVE",
"3146 415 CURVE SMOOTH",
"3146 35 LINE"
);
}
);
width = 3237;
}
);
},
{
glyphname = f_t.liga;
lastChange = "2019-01-25 15:45:46 +0000";
layers = (
{
layerId = "E2083702-67E7-471D-AE09-DB685EF5235E";
paths = (
{
closed = 1;
nodes = (
"170 500 LINE",
"170 607 OFFCURVE",
"191 630 OFFCURVE",
"282 630 CURVE SMOOTH",
"301 630 OFFCURVE",
"317 646 OFFCURVE",
"317 665 CURVE SMOOTH",
"317 684 OFFCURVE",
"301 700 OFFCURVE",
"282 700 CURVE SMOOTH",
"150 700 OFFCURVE",
"100 645 OFFCURVE",
"100 500 CURVE",
"65 500 LINE SMOOTH",
"46 500 OFFCURVE",
"30 484 OFFCURVE",
"30 465 CURVE SMOOTH",
"30 446 OFFCURVE",
"46 430 OFFCURVE",
"65 430 CURVE SMOOTH",
"100 430 LINE",
"100 35 LINE SMOOTH",
"100 16 OFFCURVE",
"116 0 OFFCURVE",
"135 0 CURVE SMOOTH",
"154 0 OFFCURVE",
"170 16 OFFCURVE",
"170 35 CURVE SMOOTH",
"170 430 LINE",
"477 430 LINE",
"477 35 LINE SMOOTH",
"477 16 OFFCURVE",
"493 0 OFFCURVE",
"512 0 CURVE SMOOTH",
"531 0 OFFCURVE",
"547 16 OFFCURVE",
"547 35 CURVE SMOOTH",
"547 430 LINE",
"612 430 LINE SMOOTH",
"631 430 OFFCURVE",
"647 446 OFFCURVE",
"647 465 CURVE SMOOTH",
"647 484 OFFCURVE",
"631 500 OFFCURVE",
"612 500 CURVE SMOOTH",
"547 500 LINE",
"547 665 LINE SMOOTH",
"547 684 OFFCURVE",
"531 700 OFFCURVE",
"512 700 CURVE SMOOTH",
"493 700 OFFCURVE",
"477 684 OFFCURVE",
"477 665 CURVE SMOOTH",
"477 500 LINE"
);
}
);
width = 677;
}
);
},
{
glyphname = s_t.liga;
lastChange = "2019-01-25 15:45:45 +0000";
layers = (
{
layerId = "E2083702-67E7-471D-AE09-DB685EF5235E";
paths = (
{
closed = 1;
nodes = (
"637 430 LINE",
"637 35 LINE SMOOTH",
"637 16 OFFCURVE",
"653 0 OFFCURVE",
"672 0 CURVE SMOOTH",
"691 0 OFFCURVE",
"707 16 OFFCURVE",
"707 35 CURVE SMOOTH",
"707 430 LINE",
"772 430 LINE SMOOTH",
"791 430 OFFCURVE",
"807 446 OFFCURVE",
"807 465 CURVE SMOOTH",
"807 484 OFFCURVE",
"791 500 OFFCURVE",
"772 500 CURVE SMOOTH",
"707 500 LINE",
"707 665 LINE SMOOTH",
"707 684 OFFCURVE",
"691 700 OFFCURVE",
"672 700 CURVE SMOOTH",
"653 700 OFFCURVE",
"637 684 OFFCURVE",
"637 665 CURVE SMOOTH",
"637 500 LINE",
"199 500 LINE SMOOTH",
"96 500 OFFCURVE",
"30 446 OFFCURVE",
"30 358 CURVE SMOOTH",
"30 269 OFFCURVE",
"95 215 OFFCURVE",
"199 215 CURVE SMOOTH",
"378 215 LINE SMOOTH",
"445 215 OFFCURVE",
"477 190 OFFCURVE",
"477 143 CURVE SMOOTH",
"477 96 OFFCURVE",
"444 70 OFFCURVE",
"378 70 CURVE SMOOTH",
"65 70 LINE SMOOTH",
"46 70 OFFCURVE",
"30 54 OFFCURVE",
"30 35 CURVE SMOOTH",
"30 16 OFFCURVE",
"46 0 OFFCURVE",
"65 0 CURVE SMOOTH",
"378 0 LINE SMOOTH",
"481 0 OFFCURVE",
"547 55 OFFCURVE",
"547 143 CURVE SMOOTH",
"547 232 OFFCURVE",
"482 285 OFFCURVE",
"378 285 CURVE SMOOTH",
"199 285 LINE SMOOTH",
"131 285 OFFCURVE",
"100 310 OFFCURVE",
"100 358 CURVE SMOOTH",
"100 404 OFFCURVE",
"133 430 OFFCURVE",
"199 430 CURVE SMOOTH"
);
}
);
width = 837;
}
);
},
{
glyphname = alpha;
lastChange = "2019-01-25 15:45:46 +0000";
layers = (
{
layerId = "E2083702-67E7-471D-AE09-DB685EF5235E";
paths = (
{
closed = 1;
nodes = (
"392 0 OFFCURVE",
"472 68 OFFCURVE",
"526 158 CURVE",
"541 112 OFFCURVE",
"553 66 OFFCURVE",
"564 27 CURVE SMOOTH",
"568 11 OFFCURVE",
"582 0 OFFCURVE",
"598 0 CURVE SMOOTH",
"617 0 OFFCURVE",
"633 16 OFFCURVE",
"633 35 CURVE SMOOTH",
"633 38 OFFCURVE",
"633 42 OFFCURVE",
"632 45 CURVE SMOOTH",
"617 99 OFFCURVE",
"598 173 OFFCURVE",
"568 244 CURVE",
"598 321 OFFCURVE",
"613 402 OFFCURVE",
"613 464 CURVE SMOOTH",
"613 483 OFFCURVE",
"597 499 OFFCURVE",
"578 499 CURVE SMOOTH",
"559 499 OFFCURVE",
"543 483 OFFCURVE",
"543 464 CURVE SMOOTH",
"543 424 OFFCURVE",
"537 378 OFFCURVE",
"526 333 CURVE",
"473 426 OFFCURVE",
"396 500 OFFCURVE",
"284 500 CURVE SMOOTH",
"135 500 OFFCURVE",
"30 395 OFFCURVE",
"30 250 CURVE SMOOTH",
"30 102 OFFCURVE",
"132 0 OFFCURVE",
"284 0 CURVE SMOOTH"
);
},
{
closed = 1;
nodes = (
"171 70 OFFCURVE",
"100 140 OFFCURVE",
"100 250 CURVE SMOOTH",
"100 356 OFFCURVE",
"174 430 OFFCURVE",
"284 430 CURVE SMOOTH",
"386 430 OFFCURVE",
"451 344 OFFCURVE",
"495 241 CURVE",
"453 147 OFFCURVE",
"383 70 OFFCURVE",
"284 70 CURVE SMOOTH"
);
}
);
width = 663;
},
{
associatedMasterId = "E2083702-67E7-471D-AE09-DB685EF5235E";
layerId = "C53505B6-04A7-4329-97F6-494117D530F1";
name = "Dec 13 18, 11:03";
paths = (
{
closed = 0;
nodes = (
"516 464 LINE",
"516 303 OFFCURVE",
"422 35 OFFCURVE",
"222 35 CURVE SMOOTH",
"68 35 OFFCURVE",
"3 144 OFFCURVE",
"3 250 CURVE SMOOTH",
"3 356 OFFCURVE",
"74 465 OFFCURVE",
"222 465 CURVE SMOOTH",
"422 465 OFFCURVE",
"495 189 OFFCURVE",
"536 35 CURVE SMOOTH"
);
}
);
width = 600;
}
);
unicode = 03B1;
},
{
glyphname = delta;
lastChange = "2019-01-25 15:45:45 +0000";
layers = (
{
layerId = "E2083702-67E7-471D-AE09-DB685EF5235E";
paths = (
{
closed = 1;
nodes = (
"388 0 OFFCURVE",
"468 97 OFFCURVE",
"468 250 CURVE SMOOTH",
"468 515 OFFCURVE",
"158 523 OFFCURVE",
"147 565 CURVE SMOOTH",
"137 606 OFFCURVE",
"175 630 OFFCURVE",
"258 630 CURVE SMOOTH",
"318 630 OFFCURVE",
"355 615 OFFCURVE",
"407 571 CURVE SMOOTH",
"413 566 OFFCURVE",
"421 563 OFFCURVE",
"430 563 CURVE SMOOTH",
"449 563 OFFCURVE",
"465 579 OFFCURVE",
"465 598 CURVE SMOOTH",
"465 609 OFFCURVE",
"460 618 OFFCURVE",
"453 625 CURVE SMOOTH",
"389 678 OFFCURVE",
"333 700 OFFCURVE",
"258 700 CURVE SMOOTH",
"129 700 OFFCURVE",
"56 640 OFFCURVE",
"79 549 CURVE SMOOTH",
"88 514 OFFCURVE",
"113 492 OFFCURVE",
"147 475 CURVE",
"72 437 OFFCURVE",
"30 357 OFFCURVE",
"30 247 CURVE SMOOTH",
"30 107 OFFCURVE",
"128 0 OFFCURVE",
"258 0 CURVE SMOOTH"
);
},
{
closed = 1;
nodes = (
"167 70 OFFCURVE",
"100 146 OFFCURVE",
"100 247 CURVE SMOOTH",
"100 365 OFFCURVE",
"156 430 OFFCURVE",
"258 430 CURVE",
"331 401 OFFCURVE",
"398 359 OFFCURVE",
"398 250 CURVE SMOOTH",
"398 134 OFFCURVE",
"347 70 OFFCURVE",
"258 70 CURVE SMOOTH"
);
}
);
width = 498;
},
{
associatedMasterId = "E2083702-67E7-471D-AE09-DB685EF5235E";
layerId = "A02CEB29-7606-43CC-A55B-FB056E1F7CF2";
name = "Dec 13 18, 11:06";
paths = (
{
closed = 0;
nodes = (
"495 598 LINE",
"443 642 OFFCURVE",
"397 665 OFFCURVE",
"323 665 CURVE SMOOTH",
"233 665 OFFCURVE",
"159 633 OFFCURVE",
"178 557 CURVE SMOOTH",
"201 465 OFFCURVE",
"498 500 OFFCURVE",
"498 250 CURVE SMOOTH",
"498 117 OFFCURVE",
"434 35 OFFCURVE",
"323 35 CURVE SMOOTH",
"201 35 OFFCURVE",
"130 140 OFFCURVE",
"130 247 CURVE SMOOTH",
"130 351 OFFCURVE",
"175 465 OFFCURVE",
"323 465 CURVE SMOOTH"
);
}
);
width = 600;
}
);
unicode = 03B4;
},
{
glyphname = pi;
lastChange = "2019-01-25 15:45:45 +0000";
layers = (
{
layerId = "E2083702-67E7-471D-AE09-DB685EF5235E";
paths = (
{
closed = 1;
nodes = (
"164 0 OFFCURVE",
"180 16 OFFCURVE",
"180 35 CURVE SMOOTH",
"180 430 LINE",
"350 430 LINE",
"350 404 OFFCURVE",
"350 378 OFFCURVE",
"350 352 CURVE SMOOTH",
"350 98 OFFCURVE",
"383 0 OFFCURVE",
"485 0 CURVE SMOOTH",
"504 0 OFFCURVE",
"520 16 OFFCURVE",
"520 35 CURVE SMOOTH",
"520 54 OFFCURVE",
"504 70 OFFCURVE",
"485 70 CURVE SMOOTH",
"440 70 OFFCURVE",
"420 144 OFFCURVE",
"420 352 CURVE SMOOTH",
"420 378 OFFCURVE",
"420 404 OFFCURVE",
"420 430 CURVE",
"465 430 LINE SMOOTH",
"484 430 OFFCURVE",
"500 446 OFFCURVE",
"500 465 CURVE SMOOTH",
"500 484 OFFCURVE",
"484 500 OFFCURVE",
"465 500 CURVE SMOOTH",
"65 500 LINE SMOOTH",
"46 500 OFFCURVE",
"30 484 OFFCURVE",
"30 465 CURVE SMOOTH",
"30 446 OFFCURVE",
"46 430 OFFCURVE",
"65 430 CURVE SMOOTH",
"110 430 LINE",
"110 35 LINE SMOOTH",
"110 16 OFFCURVE",
"126 0 OFFCURVE",
"145 0 CURVE SMOOTH"
);
}
);
width = 550;
},
{
associatedMasterId = "E2083702-67E7-471D-AE09-DB685EF5235E";
layerId = "B30D199C-1B40-4B59-951C-A2AE76771577";
name = "Nov 22 18, 19:00";
paths = (
{
closed = 0;
nodes = (
"150 35 LINE",
"150 465 LINE"
);
},
{
closed = 0;
nodes = (
"70 465 LINE",
"470 465 LINE"
);
},
{
closed = 0;
nodes = (
"390 465 LINE",
"390 250 OFFCURVE",
"378 35 OFFCURVE",
"490 35 CURVE"
);
}
);
width = 600;
}
);
unicode = 03C0;
},
{
glyphname = sigma;
lastChange = "2019-01-25 15:45:45 +0000";
layers = (
{
layerId = "E2083702-67E7-471D-AE09-DB685EF5235E";
paths = (
{
closed = 1;
nodes = (
"432 0 OFFCURVE",
"528 99 OFFCURVE",
"528 250 CURVE SMOOTH",
"528 325 OFFCURVE",
"505 386 OFFCURVE",
"463 430 CURVE",
"583 430 LINE SMOOTH",
"602 430 OFFCURVE",
"618 446 OFFCURVE",
"618 465 CURVE SMOOTH",
"618 484 OFFCURVE",
"602 500 OFFCURVE",
"583 500 CURVE SMOOTH",
"282 500 LINE SMOOTH",
"131 500 OFFCURVE",
"30 398 OFFCURVE",
"30 250 CURVE SMOOTH",
"30 102 OFFCURVE",
"131 0 OFFCURVE",
"282 0 CURVE SMOOTH"
);
},
{
closed = 1;
nodes = (
"169 70 OFFCURVE",
"100 140 OFFCURVE",
"100 250 CURVE SMOOTH",
"100 360 OFFCURVE",
"169 430 OFFCURVE",
"282 430 CURVE SMOOTH",
"393 430 OFFCURVE",
"458 362 OFFCURVE",
"458 250 CURVE SMOOTH",
"458 138 OFFCURVE",
"393 70 OFFCURVE",
"282 70 CURVE SMOOTH"
);
}
);
width = 648;
},
{
associatedMasterId = "E2083702-67E7-471D-AE09-DB685EF5235E";
layerId = "03D94A0F-C69E-404F-A5AE-ED45B1179CF8";
name = "Dec 13 18, 11:07";
paths = (
{
closed = 0;
nodes = (
"610 465 LINE",
"309 465 LINE",
"159 465 OFFCURVE",
"92 360 OFFCURVE",
"92 250 CURVE SMOOTH",
"92 140 OFFCURVE",
"159 35 OFFCURVE",
"309 35 CURVE SMOOTH",
"459 35 OFFCURVE",
"520 140 OFFCURVE",
"520 250 CURVE SMOOTH",
"520 360 OFFCURVE",
"459 465 OFFCURVE",
"309 465 CURVE SMOOTH"
);
}
);
width = 600;
}
);
unicode = 03C3;
},
{
glyphname = phi;
lastChange = "2019-01-25 15:45:45 +0000";
layers = (
{
layerId = "E2083702-67E7-471D-AE09-DB685EF5235E";
paths = (
{
closed = 1;
nodes = (
"359 -200 OFFCURVE",
"375 -184 OFFCURVE",
"375 -165 CURVE",
"375 2 LINE",
"529 16 OFFCURVE",
"648 121 OFFCURVE",
"648 250 CURVE SMOOTH",
"648 379 OFFCURVE",
"528 484 OFFCURVE",
"374 498 CURVE",
"374 665 LINE SMOOTH",
"374 684 OFFCURVE",
"358 700 OFFCURVE",
"339 700 CURVE SMOOTH",
"320 700 OFFCURVE",
"304 684 OFFCURVE",
"304 665 CURVE SMOOTH",
"304 498 LINE",
"150 485 OFFCURVE",
"30 379 OFFCURVE",
"30 250 CURVE SMOOTH",
"30 120 OFFCURVE",
"150 15 OFFCURVE",
"305 2 CURVE",
"305 -165 LINE SMOOTH",
"305 -184 OFFCURVE",
"321 -200 OFFCURVE",
"340 -200 CURVE SMOOTH"
);
},
{
closed = 1;
nodes = (
"189 85 OFFCURVE",
"100 160 OFFCURVE",
"100 250 CURVE SMOOTH",
"100 340 OFFCURVE",
"189 415 OFFCURVE",
"304 428 CURVE",
"305 72 LINE"
);
},
{
closed = 1;
nodes = (
"374 428 LINE",
"490 415 OFFCURVE",
"578 339 OFFCURVE",
"578 250 CURVE SMOOTH",
"578 161 OFFCURVE",
"490 85 OFFCURVE",
"375 72 CURVE"
);
}
);
width = 678;
},
{
associatedMasterId = "E2083702-67E7-471D-AE09-DB685EF5235E";
layerId = "AD8C3DDD-FEBA-45DC-9AB2-F42A960C3755";
name = "Dec 13 18, 11:09";
paths = (
{
closed = 1;
nodes = (
"456 35 OFFCURVE",
"579 131 OFFCURVE",
"579 250 CURVE SMOOTH",
"579 369 OFFCURVE",
"456 465 OFFCURVE",
"305 465 CURVE SMOOTH",
"154 465 OFFCURVE",
"31 369 OFFCURVE",
"31 250 CURVE SMOOTH",
"31 131 OFFCURVE",
"154 35 OFFCURVE",
"305 35 CURVE SMOOTH"
);
},
{
closed = 0;
nodes = (
"305 665 LINE",
"306 -165 LINE"
);
}
);
width = 600;
}
);
unicode = 03C6;
},
{
color = 1;
glyphname = zero;
lastChange = "2019-01-25 15:45:46 +0000";
layers = (
{
layerId = "E2083702-67E7-471D-AE09-DB685EF5235E";
paths = (
{
closed = 1;
nodes = (
"499 0 OFFCURVE",
"621 146 OFFCURVE",
"621 350 CURVE SMOOTH",
"621 554 OFFCURVE",
"499 700 OFFCURVE",
"326 700 CURVE SMOOTH",
"152 700 OFFCURVE",
"30 555 OFFCURVE",
"30 350 CURVE SMOOTH",
"30 145 OFFCURVE",
"152 0 OFFCURVE",
"326 0 CURVE SMOOTH"
);
},
{
closed = 1;
nodes = (
"192 70 OFFCURVE",
"100 184 OFFCURVE",
"100 350 CURVE SMOOTH",
"100 516 OFFCURVE",
"192 630 OFFCURVE",
"326 630 CURVE SMOOTH",
"459 630 OFFCURVE",
"551 516 OFFCURVE",
"551 350 CURVE SMOOTH",
"551 184 OFFCURVE",
"459 70 OFFCURVE",
"326 70 CURVE SMOOTH"
);
}
);
width = 651;
},
{
associatedMasterId = "E2083702-67E7-471D-AE09-DB685EF5235E";
layerId = "7632426E-D610-4A46-AD1F-4AF9F840ACCC";
name = "Dec 13 18, 11:40";
paths = (
{
closed = 1;
nodes = (
"508 35 OFFCURVE",
"621 176 OFFCURVE",
"621 350 CURVE SMOOTH",
"621 524 OFFCURVE",
"508 665 OFFCURVE",
"368 665 CURVE SMOOTH",
"228 665 OFFCURVE",
"114 524 OFFCURVE",
"114 350 CURVE SMOOTH",
"114 176 OFFCURVE",
"228 35 OFFCURVE",
"368 35 CURVE SMOOTH"
);
}
);
width = 600;
},
{
associatedMasterId = "E2083702-67E7-471D-AE09-DB685EF5235E";
layerId = "2A2939CA-AE2D-43FA-A473-985F0E8A0EBF";
name = "Dec 13 18, 17:10";
paths = (
{
closed = 1;
nodes = (
"522 35 OFFCURVE",
"620 176 OFFCURVE",
"620 350 CURVE SMOOTH",
"620 524 OFFCURVE",
"522 665 OFFCURVE",
"360 665 CURVE SMOOTH",
"197 665 OFFCURVE",
"99 524 OFFCURVE",
"99 350 CURVE SMOOTH",
"99 176 OFFCURVE",
"197 35 OFFCURVE",
"360 35 CURVE SMOOTH"
);
}
);
width = 600;
}
);
unicode = 0030;
},
{
glyphname = one;
lastChange = "2019-01-25 15:45:45 +0000";
layers = (
{
layerId = "E2083702-67E7-471D-AE09-DB685EF5235E";
paths = (
{
closed = 1;
nodes = (
"245 0 OFFCURVE",
"261 16 OFFCURVE",
"261 35 CURVE SMOOTH",
"261 637 LINE SMOOTH",
"261 656 OFFCURVE",
"253 669 OFFCURVE",
"236 678 CURVE SMOOTH",
"231 680 LINE SMOOTH",
"213 689 OFFCURVE",
"198 688 OFFCURVE",
"182 676 CURVE SMOOTH",
"44 573 LINE SMOOTH",
"36 567 OFFCURVE",
"30 557 OFFCURVE",
"30 545 CURVE SMOOTH",
"30 526 OFFCURVE",
"46 510 OFFCURVE",
"65 510 CURVE SMOOTH",
"73 510 OFFCURVE",
"80 513 OFFCURVE",
"86 517 CURVE SMOOTH",
"191 595 LINE",
"191 35 LINE SMOOTH",
"191 16 OFFCURVE",
"207 0 OFFCURVE",
"226 0 CURVE SMOOTH"
);
}
);
width = 291;
},
{
associatedMasterId = "E2083702-67E7-471D-AE09-DB685EF5235E";
layerId = "F9A3A41C-45E6-48C3-B7EA-D174A0680C80";
name = "Nov 22 18, 13:43";
paths = (
{
closed = 0;
nodes = (
"139 665 LINE",
"270 665 LINE",
"270 35 LINE"
);
}
);
width = 600;
},
{
associatedMasterId = "E2083702-67E7-471D-AE09-DB685EF5235E";
layerId = "8190148F-8AC8-4A5C-A7DA-3B4A655BFA20";
name = "Dec 13 18, 11:41";
paths = (
{
closed = 0;
nodes = (
"109 545 LINE",
"270 665 LINE",
"270 35 LINE"
);
}
);
width = 600;
}
);
unicode = 0031;
},
{
glyphname = two;
lastChange = "2019-01-25 15:45:45 +0000";
layers = (
{
layerId = "E2083702-67E7-471D-AE09-DB685EF5235E";
paths = (
{
closed = 1;
nodes = (
"395 0 LINE SMOOTH",
"414 0 OFFCURVE",
"430 16 OFFCURVE",
"430 35 CURVE SMOOTH",
"430 54 OFFCURVE",
"414 70 OFFCURVE",
"395 70 CURVE SMOOTH",
"140 70 LINE",
"333 302 LINE",
"341 311 OFFCURVE",
"430 410 OFFCURVE",
"430 500 CURVE SMOOTH",
"430 615 OFFCURVE",
"344 700 OFFCURVE",
"230 700 CURVE SMOOTH",
"116 700 OFFCURVE",
"30 615 OFFCURVE",
"30 500 CURVE SMOOTH",
"30 481 OFFCURVE",
"46 465 OFFCURVE",
"65 465 CURVE SMOOTH",
"84 465 OFFCURVE",
"100 481 OFFCURVE",
"100 500 CURVE SMOOTH",
"100 576 OFFCURVE",
"154 630 OFFCURVE",
"230 630 CURVE SMOOTH",
"306 630 OFFCURVE",
"360 576 OFFCURVE",
"360 500 CURVE SMOOTH",
"360 461 OFFCURVE",
"325 396 OFFCURVE",
"281 349 CURVE SMOOTH",
"280 347 LINE",
"57 80 LINE SMOOTH",
"44 64 OFFCURVE",
"42 49 OFFCURVE",
"50 31 CURVE SMOOTH",
"53 26 LINE SMOOTH",
"61 8 OFFCURVE",
"74 0 OFFCURVE",
"94 0 CURVE SMOOTH"
);
}
);
width = 460;
},
{
associatedMasterId = "E2083702-67E7-471D-AE09-DB685EF5235E";
layerId = "B54EEC2D-5B68-4BC5-B6DC-8D78B8B0918D";
name = "Nov 22 18, 13:46";
paths = (
{
closed = 0;
nodes = (
"440 35 LINE",
"110 35 LINE",
"110 250 OFFCURVE",
"440 320 OFFCURVE",
"440 500 CURVE SMOOTH",
"440 620 OFFCURVE",
"382 665 OFFCURVE",
"275 665 CURVE SMOOTH",
"168 665 OFFCURVE",
"110 596 OFFCURVE",
"110 500 CURVE SMOOTH"
);
}
);
width = 600;
},
{
associatedMasterId = "E2083702-67E7-471D-AE09-DB685EF5235E";
layerId = "AC1EAB8D-2309-4AA6-BFBA-1ADDDEEF8E22";
name = "Nov 22 18, 13:46";
paths = (
{
closed = 0;
nodes = (
"440 35 LINE",
"110 35 LINE",
"179 250 OFFCURVE",
"440 320 OFFCURVE",
"440 500 CURVE SMOOTH",
"440 620 OFFCURVE",
"382 665 OFFCURVE",
"275 665 CURVE SMOOTH",
"168 665 OFFCURVE",
"110 596 OFFCURVE",
"110 500 CURVE SMOOTH"
);
}
);
width = 600;
},
{
associatedMasterId = "E2083702-67E7-471D-AE09-DB685EF5235E";
layerId = "D60A9CFE-094E-46A1-A5F4-FE1B89E4A4A2";
name = "Nov 22 18, 13:47";
paths = (
{
closed = 0;
nodes = (
"440 35 LINE",
"110 35 LINE",
"110 35 OFFCURVE",
"352 325 OFFCURVE",
"352 325 CURVE SMOOTH",
"352 325 OFFCURVE",
"440 419 OFFCURVE",
"440 500 CURVE SMOOTH",
"440 600 OFFCURVE",
"365 665 OFFCURVE",
"275 665 CURVE SMOOTH",
"185 665 OFFCURVE",
"110 600 OFFCURVE",
"110 500 CURVE SMOOTH"
);
}
);
width = 600;
}
);
unicode = 0032;
},
{
glyphname = three;
lastChange = "2019-01-25 15:45:46 +0000";
layers = (
{
layerId = "E2083702-67E7-471D-AE09-DB685EF5235E";
paths = (
{
closed = 1;
nodes = (
"381 0 OFFCURVE",
"480 100 OFFCURVE",
"480 250 CURVE SMOOTH",
"480 377 OFFCURVE",
"400 459 OFFCURVE",
"273 466 CURVE",
"446 619 LINE SMOOTH",
"461 633 OFFCURVE",
"465 648 OFFCURVE",
"458 667 CURVE SMOOTH",
"456 672 LINE SMOOTH",
"448 691 OFFCURVE",
"436 700 OFFCURVE",
"415 700 CURVE SMOOTH",
"65 700 LINE SMOOTH",
"46 700 OFFCURVE",
"30 684 OFFCURVE",
"30 665 CURVE SMOOTH",
"30 646 OFFCURVE",
"46 630 OFFCURVE",
"65 630 CURVE SMOOTH",
"353 630 LINE",
"156 455 LINE SMOOTH",
"139 440 OFFCURVE",
"138 423 OFFCURVE",
"153 406 CURVE SMOOTH",
"156 402 LINE SMOOTH",
"170 387 OFFCURVE",
"184 386 OFFCURVE",
"203 391 CURVE SMOOTH",
"218 394 OFFCURVE",
"236 397 OFFCURVE",
"254 397 CURVE SMOOTH",
"353 397 OFFCURVE",
"410 344 OFFCURVE",
"410 250 CURVE SMOOTH",
"410 139 OFFCURVE",
"342 70 OFFCURVE",
"235 70 CURVE SMOOTH",
"178 70 OFFCURVE",
"141 93 OFFCURVE",
"119 142 CURVE SMOOTH",
"114 154 OFFCURVE",
"102 163 OFFCURVE",
"87 163 CURVE SMOOTH",
"68 163 OFFCURVE",
"52 147 OFFCURVE",
"52 128 CURVE SMOOTH",
"52 123 OFFCURVE",
"53 118 OFFCURVE",
"55 113 CURVE SMOOTH",
"88 39 OFFCURVE",
"151 0 OFFCURVE",
"235 0 CURVE SMOOTH"
);
}
);
width = 510;
},
{
associatedMasterId = "E2083702-67E7-471D-AE09-DB685EF5235E";
layerId = "2A7DA5CA-1E05-4E46-9424-EFE78945B54A";
name = "Nov 22 18, 13:51";
paths = (
{
closed = 0;
nodes = (
"80 665 LINE",
"460 665 LINE",
"168 406 LINE",
"215 447 OFFCURVE",
"460 465 OFFCURVE",
"460 250 CURVE SMOOTH",
"460 101 OFFCURVE",
"357 35 OFFCURVE",
"250 35 CURVE SMOOTH",
"171 35 OFFCURVE",
"126 74 OFFCURVE",
"102 128 CURVE"
);
}
);
width = 600;
}
);
unicode = 0033;
},
{
glyphname = four;
lastChange = "2019-01-25 15:45:45 +0000";
layers = (
{
layerId = "E2083702-67E7-471D-AE09-DB685EF5235E";
paths = (
{
closed = 1;
nodes = (
"351 0 OFFCURVE",
"367 16 OFFCURVE",
"367 35 CURVE SMOOTH",
"367 215 LINE",
"424 215 LINE SMOOTH",
"443 215 OFFCURVE",
"459 231 OFFCURVE",
"459 250 CURVE SMOOTH",
"459 269 OFFCURVE",
"443 285 OFFCURVE",
"424 285 CURVE SMOOTH",
"367 285 LINE",
"367 635 LINE SMOOTH",
"367 655 OFFCURVE",
"358 668 OFFCURVE",
"338 674 CURVE SMOOTH",
"332 676 LINE SMOOTH",
"312 682 OFFCURVE",
"297 676 OFFCURVE",
"286 659 CURVE SMOOTH",
"39 293 LINE SMOOTH",
"28 277 OFFCURVE",
"27 262 OFFCURVE",
"36 245 CURVE SMOOTH",
"39 240 LINE SMOOTH",
"48 223 OFFCURVE",
"61 215 OFFCURVE",
"80 215 CURVE SMOOTH",
"297 215 LINE",
"297 35 LINE SMOOTH",
"297 16 OFFCURVE",
"313 0 OFFCURVE",
"332 0 CURVE SMOOTH"
);
},
{
closed = 1;
nodes = (
"297 551 LINE",
"297 285 LINE",
"118 285 LINE"
);
}
);
width = 489;
},
{
associatedMasterId = "E2083702-67E7-471D-AE09-DB685EF5235E";
layerId = "0C1BA3D0-DFAD-4FC1-AF79-9C6700711216";
name = "Nov 22 18, 13:52";
paths = (
{
closed = 0;
nodes = (
"330 35 LINE",
"330 665 LINE",
"50 250 LINE",
"422 250 LINE"
);
}
);
width = 600;
}
);
unicode = 0034;
},
{
glyphname = five;
lastChange = "2019-01-25 15:45:45 +0000";
layers = (
{
layerId = "E2083702-67E7-471D-AE09-DB685EF5235E";
paths = (
{
closed = 1;
nodes = (
"377 0 OFFCURVE",
"467 106 OFFCURVE",
"467 251 CURVE SMOOTH",
"467 395 OFFCURVE",
"377 500 OFFCURVE",
"251 500 CURVE SMOOTH",
"196 500 OFFCURVE",
"151 485 OFFCURVE",
"107 451 CURVE",
"126 630 LINE",
"432 630 LINE SMOOTH",
"451 630 OFFCURVE",
"467 646 OFFCURVE",
"467 665 CURVE SMOOTH",
"467 684 OFFCURVE",
"451 700 OFFCURVE",
"432 700 CURVE SMOOTH",
"119 700 LINE SMOOTH",
"101 700 OFFCURVE",
"89 696 OFFCURVE",
"77 684 CURVE SMOOTH",
"64 673 OFFCURVE",
"58 662 OFFCURVE",
"57 644 CURVE SMOOTH",
"30 391 LINE SMOOTH",
"28 370 OFFCURVE",
"36 357 OFFCURVE",
"55 349 CURVE SMOOTH",
"61 346 LINE SMOOTH",
"80 338 OFFCURVE",
"95 342 OFFCURVE",
"109 358 CURVE SMOOTH",
"158 411 OFFCURVE",
"197 430 OFFCURVE",
"251 430 CURVE SMOOTH",
"337 430 OFFCURVE",
"397 357 OFFCURVE",
"397 251 CURVE SMOOTH",
"397 144 OFFCURVE",
"337 70 OFFCURVE",
"251 70 CURVE SMOOTH",
"180 70 OFFCURVE",
"134 102 OFFCURVE",
"109 172 CURVE SMOOTH",
"105 186 OFFCURVE",
"91 196 OFFCURVE",
"76 196 CURVE SMOOTH",
"57 196 OFFCURVE",
"41 180 OFFCURVE",
"41 161 CURVE SMOOTH",
"41 157 OFFCURVE",
"42 152 OFFCURVE",
"43 148 CURVE SMOOTH",
"78 51 OFFCURVE",
"150 0 OFFCURVE",
"251 0 CURVE SMOOTH"
);
}
);
width = 497;
},
{
associatedMasterId = "E2083702-67E7-471D-AE09-DB685EF5235E";
layerId = "1B073B5D-A0B7-44C7-A946-9B3ED9470DC6";
name = "Nov 22 18, 13:54";
paths = (
{
closed = 0;
nodes = (
"462 665 LINE",
"124 665 LINE",
"92 357 LINE",
"137 411 OFFCURVE",
"189 465 OFFCURVE",
"281 465 CURVE SMOOTH",
"396 465 OFFCURVE",
"462 366 OFFCURVE",
"462 251 CURVE SMOOTH",
"462 136 OFFCURVE",
"396 35 OFFCURVE",
"281 35 CURVE SMOOTH",
"189 35 OFFCURVE",
"134 83 OFFCURVE",
"106 161 CURVE"
);
}
);
width = 600;
}
);
unicode = 0035;
},
{
color = 1;
glyphname = six;
lastChange = "2019-01-25 15:45:45 +0000";
layers = (
{
layerId = "E2083702-67E7-471D-AE09-DB685EF5235E";
paths = (
{
closed = 1;
nodes = (
"422 0 OFFCURVE",
"509 101 OFFCURVE",
"509 256 CURVE SMOOTH",
"509 401 OFFCURVE",
"431 479 OFFCURVE",
"285 479 CURVE SMOOTH",
"211 479 OFFCURVE",
"147 450 OFFCURVE",
"103 423 CURVE",
"116 569 OFFCURVE",
"172 630 OFFCURVE",
"285 630 CURVE SMOOTH",
"350 630 OFFCURVE",
"391 616 OFFCURVE",
"422 584 CURVE SMOOTH",
"428 577 OFFCURVE",
"437 573 OFFCURVE",
"447 573 CURVE SMOOTH",
"466 573 OFFCURVE",
"482 589 OFFCURVE",
"482 608 CURVE SMOOTH",
"482 617 OFFCURVE",
"478 626 OFFCURVE",
"472 632 CURVE SMOOTH",
"429 678 OFFCURVE",
"367 700 OFFCURVE",
"285 700 CURVE SMOOTH",
"111 700 OFFCURVE",
"30 586 OFFCURVE",
"30 350 CURVE SMOOTH",
"30 114 OFFCURVE",
"111 0 OFFCURVE",
"285 0 CURVE SMOOTH"
);
},
{
closed = 1;
nodes = (
"158 70 OFFCURVE",
"103 147 OFFCURVE",
"100 335 CURVE",
"126 357 OFFCURVE",
"197 409 OFFCURVE",
"285 409 CURVE SMOOTH",
"392 409 OFFCURVE",
"439 362 OFFCURVE",
"439 256 CURVE SMOOTH",
"439 138 OFFCURVE",
"382 70 OFFCURVE",
"285 70 CURVE SMOOTH"
);
}
);
width = 539;
},
{
associatedMasterId = "E2083702-67E7-471D-AE09-DB685EF5235E";
layerId = "C038A922-E99B-4172-9C5C-AB269DDCE592";
name = "Nov 22 18, 16:49";
paths = (
{
closed = 0;
nodes = (
"417 562 LINE",
"407 578 OFFCURVE",
"397 592 OFFCURVE",
"385 605 CURVE SMOOTH",
"351 643 OFFCURVE",
"308 665 OFFCURVE",
"262 665 CURVE SMOOTH",
"142 665 OFFCURVE",
"48 524 OFFCURVE",
"48 350 CURVE SMOOTH",
"48 176 OFFCURVE",
"142 35 OFFCURVE",
"262 35 CURVE SMOOTH",
"356 35 OFFCURVE",
"435 126 OFFCURVE",
"435 254 CURVE SMOOTH",
"435 371 OFFCURVE",
"357 469 OFFCURVE",
"265 469 CURVE SMOOTH",
"126 469 OFFCURVE",
"58 371 OFFCURVE",
"58 254 CURVE SMOOTH"
);
}
);
width = 600;
},
{
associatedMasterId = "E2083702-67E7-471D-AE09-DB685EF5235E";
layerId = "30655876-724B-42EA-8561-70F002A2EDA0";
name = "Nov 22 18, 16:49";
paths = (
{
closed = 0;
nodes = (
"403 615 LINE",
"369 665 OFFCURVE",
"308 665 OFFCURVE",
"262 665 CURVE SMOOTH",
"142 665 OFFCURVE",
"48 524 OFFCURVE",
"48 350 CURVE SMOOTH",
"48 176 OFFCURVE",
"142 35 OFFCURVE",
"262 35 CURVE SMOOTH",
"356 35 OFFCURVE",
"435 126 OFFCURVE",
"435 254 CURVE SMOOTH",
"435 371 OFFCURVE",
"357 469 OFFCURVE",
"265 469 CURVE SMOOTH",
"126 469 OFFCURVE",
"58 371 OFFCURVE",
"58 254 CURVE SMOOTH"
);
}
);
width = 600;
},
{
associatedMasterId = "E2083702-67E7-471D-AE09-DB685EF5235E";
layerId = "79253952-8D6C-416B-A2E7-03ECC6ABBCB2";
name = "Nov 22 18, 17:58";
paths = (
{
closed = 0;
nodes = (
"43 350 LINE",
"43 350 OFFCURVE",
"137 444 OFFCURVE",
"263 444 CURVE SMOOTH",
"389 444 OFFCURVE",
"452 382 OFFCURVE",
"452 256 CURVE SMOOTH",
"452 130 OFFCURVE",
"389 35 OFFCURVE",
"263 35 CURVE SMOOTH",
"74 35 OFFCURVE",
"43 192 OFFCURVE",
"43 350 CURVE SMOOTH",
"43 508 OFFCURVE",
"74 665 OFFCURVE",
"263 665 CURVE SMOOTH",
"333 665 OFFCURVE",
"386 649 OFFCURVE",
"425 608 CURVE"
);
}
);
width = 600;
}
);
unicode = 0036;
},
{
glyphname = seven;
lastChange = "2019-01-25 15:45:46 +0000";
layers = (
{
layerId = "E2083702-67E7-471D-AE09-DB685EF5235E";
paths = (
{
closed = 1;
nodes = (
"203 0 OFFCURVE",
"216 9 OFFCURVE",
"221 21 CURVE SMOOTH",
"493 626 LINE SMOOTH",
"501 643 OFFCURVE",
"499 658 OFFCURVE",
"489 674 CURVE SMOOTH",
"487 677 LINE SMOOTH",
"476 693 OFFCURVE",
"464 700 OFFCURVE",
"445 700 CURVE SMOOTH",
"90 700 LINE SMOOTH",
"56 700 OFFCURVE",
"30 674 OFFCURVE",
"30 640 CURVE SMOOTH",
"30 583 LINE SMOOTH",
"30 564 OFFCURVE",
"46 548 OFFCURVE",
"65 548 CURVE SMOOTH",
"84 548 OFFCURVE",
"100 564 OFFCURVE",
"100 583 CURVE SMOOTH",
"100 630 LINE",
"418 630 LINE",
"157 50 LINE SMOOTH",
"155 45 OFFCURVE",
"154 40 OFFCURVE",
"154 35 CURVE SMOOTH",
"154 16 OFFCURVE",
"170 0 OFFCURVE",
"189 0 CURVE SMOOTH"
);
}
);
width = 528;
},
{
associatedMasterId = "E2083702-67E7-471D-AE09-DB685EF5235E";
layerId = "2978F6AB-6FA2-47DF-AEE5-CE56D3538040";
name = "Nov 22 18, 13:54";
paths = (
{
closed = 0;
nodes = (
"78 593 LINE",
"78 665 LINE",
"485 665 LINE",
"311 497 OFFCURVE",
"214 283 OFFCURVE",
"202 35 CURVE"
);
}
);
visible = 1;
width = 600;
},
{
associatedMasterId = "E2083702-67E7-471D-AE09-DB685EF5235E";
layerId = "50497B51-B763-4B3F-8365-B707B29AC7C4";
name = "Dec 13 18, 11:38";
paths = (
{
closed = 0;
nodes = (
"78 593 LINE",
"78 665 LINE",
"485 665 LINE",
"202 35 LINE"
);
}
);
width = 600;
}
);
unicode = 0037;
},
{
color = 3;
glyphname = eight;
lastChange = "2019-01-25 15:45:45 +0000";
layers = (
{
layerId = "E2083702-67E7-471D-AE09-DB685EF5235E";
paths = (
{
closed = 1;
nodes = (
"383 0 OFFCURVE",
"485 88 OFFCURVE",
"485 198 CURVE SMOOTH",
"485 269 OFFCURVE",
"443 330 OFFCURVE",
"380 365 CURVE",
"428 400 OFFCURVE",
"460 454 OFFCURVE",
"460 513 CURVE SMOOTH",
"460 614 OFFCURVE",
"366 700 OFFCURVE",
"258 700 CURVE SMOOTH",
"145 700 OFFCURVE",
"51 616 OFFCURVE",
"51 513 CURVE SMOOTH",
"51 452 OFFCURVE",
"84 398 OFFCURVE",
"134 364 CURVE",
"71 329 OFFCURVE",
"30 268 OFFCURVE",
"30 198 CURVE SMOOTH",
"30 88 OFFCURVE",
"133 0 OFFCURVE",
"258 0 CURVE SMOOTH"
);
},
{
closed = 1;
nodes = (
"170 70 OFFCURVE",
"100 128 OFFCURVE",
"100 198 CURVE SMOOTH",
"100 268 OFFCURVE",
"170 326 OFFCURVE",
"258 326 CURVE SMOOTH",
"345 326 OFFCURVE",
"415 268 OFFCURVE",
"415 198 CURVE SMOOTH",
"415 128 OFFCURVE",
"345 70 OFFCURVE",
"258 70 CURVE SMOOTH"
);
},
{
closed = 1;
nodes = (
"183 396 OFFCURVE",
"121 450 OFFCURVE",
"121 513 CURVE SMOOTH",
"121 576 OFFCURVE",
"183 630 OFFCURVE",
"258 630 CURVE SMOOTH",
"328 630 OFFCURVE",
"390 575 OFFCURVE",
"390 513 CURVE SMOOTH",
"390 451 OFFCURVE",
"328 396 OFFCURVE",
"258 396 CURVE SMOOTH"
);
}
);
width = 515;
},
{
associatedMasterId = "E2083702-67E7-471D-AE09-DB685EF5235E";
layerId = "9802AE9E-CDC1-4311-B4C7-C60231010464";
name = "Nov 22 18, 16:45";
paths = (
{
closed = 1;
nodes = (
"374 361 OFFCURVE",
"454 429 OFFCURVE",
"454 513 CURVE",
"454 597 OFFCURVE",
"374 665 OFFCURVE",
"287 665 CURVE SMOOTH",
"194 665 OFFCURVE",
"115 597 OFFCURVE",
"115 513 CURVE SMOOTH",
"115 429 OFFCURVE",
"194 361 OFFCURVE",
"287 361 CURVE SMOOTH"
);
},
{
closed = 1;
nodes = (
"394 35 OFFCURVE",
"479 108 OFFCURVE",
"479 198 CURVE SMOOTH",
"479 288 OFFCURVE",
"394 361 OFFCURVE",
"287 361 CURVE SMOOTH",
"180 361 OFFCURVE",
"94 288 OFFCURVE",
"94 198 CURVE SMOOTH",
"94 108 OFFCURVE",
"180 35 OFFCURVE",
"287 35 CURVE SMOOTH"
);
}
);
width = 600;
}
);
unicode = 0038;
},
{
glyphname = nine;
lastChange = "2019-01-25 15:45:45 +0000";
layers = (
{
layerId = "E2083702-67E7-471D-AE09-DB685EF5235E";
paths = (
{
closed = 1;
nodes = (
"428 0 OFFCURVE",
"509 114 OFFCURVE",
"509 350 CURVE SMOOTH",
"509 586 OFFCURVE",
"428 700 OFFCURVE",
"254 700 CURVE SMOOTH",
"117 700 OFFCURVE",
"30 599 OFFCURVE",
"30 444 CURVE SMOOTH",
"30 299 OFFCURVE",
"108 221 OFFCURVE",
"254 221 CURVE SMOOTH",
"328 221 OFFCURVE",
"392 250 OFFCURVE",
"436 277 CURVE",
"423 131 OFFCURVE",
"367 70 OFFCURVE",
"254 70 CURVE SMOOTH",
"189 70 OFFCURVE",
"148 84 OFFCURVE",
"117 116 CURVE SMOOTH",
"111 123 OFFCURVE",
"102 127 OFFCURVE",
"92 127 CURVE SMOOTH",
"73 127 OFFCURVE",
"57 111 OFFCURVE",
"57 92 CURVE SMOOTH",
"57 83 OFFCURVE",
"61 74 OFFCURVE",
"67 68 CURVE SMOOTH",
"110 22 OFFCURVE",
"172 0 OFFCURVE",
"254 0 CURVE SMOOTH"
);
},
{
closed = 1;
nodes = (
"147 291 OFFCURVE",
"100 338 OFFCURVE",
"100 444 CURVE SMOOTH",
"100 562 OFFCURVE",
"157 630 OFFCURVE",
"254 630 CURVE SMOOTH",
"381 630 OFFCURVE",
"436 553 OFFCURVE",
"439 365 CURVE",
"413 343 OFFCURVE",
"342 291 OFFCURVE",
"254 291 CURVE SMOOTH"
);
}
);
width = 539;
},
{
associatedMasterId = "E2083702-67E7-471D-AE09-DB685EF5235E";
layerId = "0C431E09-DA2E-4A98-AEAA-14A0F8D3EC9C";
name = "Nov 22 18, 17:58";
paths = (
{
closed = 0;
nodes = (
"469 350 LINE",
"469 350 OFFCURVE",
"375 256 OFFCURVE",
"249 256 CURVE SMOOTH",
"123 256 OFFCURVE",
"60 318 OFFCURVE",
"60 444 CURVE SMOOTH",
"60 570 OFFCURVE",
"123 665 OFFCURVE",
"249 665 CURVE SMOOTH",
"438 665 OFFCURVE",
"469 508 OFFCURVE",
"469 350 CURVE SMOOTH",
"469 192 OFFCURVE",
"438 35 OFFCURVE",
"249 35 CURVE SMOOTH",
"179 35 OFFCURVE",
"126 51 OFFCURVE",
"87 92 CURVE"
);
}
);
width = 600;
},
{
associatedMasterId = "E2083702-67E7-471D-AE09-DB685EF5235E";
layerId = "CE6E9D81-D5E8-4A16-941E-7376AE31707E";
name = "Nov 22 18, 17:59";
paths = (
{
closed = 0;
nodes = (
"469 350 LINE",
"469 350 OFFCURVE",
"375 256 OFFCURVE",
"249 256 CURVE SMOOTH",
"123 256 OFFCURVE",
"60 318 OFFCURVE",
"60 444 CURVE SMOOTH",
"60 570 OFFCURVE",
"123 665 OFFCURVE",
"249 665 CURVE SMOOTH",
"438 665 OFFCURVE",
"469 508 OFFCURVE",
"469 350 CURVE",
"469 35 LINE",
"60 35 LINE"
);
}
);
width = 600;
}
);
unicode = 0039;
},
{
glyphname = zero.alt1;
lastChange = "2019-01-25 15:45:46 +0000";
layers = (
{
layerId = "E2083702-67E7-471D-AE09-DB685EF5235E";
paths = (
{
closed = 1;
nodes = (
"499 0 OFFCURVE",
"621 146 OFFCURVE",
"621 350 CURVE SMOOTH",
"621 554 OFFCURVE",
"499 700 OFFCURVE",
"326 700 CURVE SMOOTH",
"152 700 OFFCURVE",
"30 555 OFFCURVE",
"30 350 CURVE SMOOTH",
"30 145 OFFCURVE",
"152 0 OFFCURVE",
"326 0 CURVE SMOOTH"
);
},
{
closed = 1;
nodes = (
"192 70 OFFCURVE",
"100 184 OFFCURVE",
"100 350 CURVE SMOOTH",
"100 516 OFFCURVE",
"192 630 OFFCURVE",
"326 630 CURVE SMOOTH",
"459 630 OFFCURVE",
"551 516 OFFCURVE",
"551 350 CURVE SMOOTH",
"551 184 OFFCURVE",
"459 70 OFFCURVE",
"326 70 CURVE SMOOTH"
);
},
{
closed = 1;
nodes = (
"354 298 OFFCURVE",
"378 322 OFFCURVE",
"378 350 CURVE SMOOTH",
"378 378 OFFCURVE",
"354 402 OFFCURVE",
"326 402 CURVE SMOOTH",
"298 402 OFFCURVE",
"274 378 OFFCURVE",
"274 350 CURVE SMOOTH",
"274 322 OFFCURVE",
"298 298 OFFCURVE",
"326 298 CURVE SMOOTH"
);
}
);
width = 651;
},
{
associatedMasterId = "E2083702-67E7-471D-AE09-DB685EF5235E";
layerId = "87962916-DCC5-4395-A731-C7D27A985262";
name = "Nov 22 18, 13:41";
paths = (
{
closed = 1;
nodes = (
"352 35 OFFCURVE",
"439 176 OFFCURVE",
"439 350 CURVE SMOOTH",
"439 524 OFFCURVE",
"352 665 OFFCURVE",
"245 665 CURVE SMOOTH",
"135 665 OFFCURVE",
"48 524 OFFCURVE",
"48 350 CURVE SMOOTH",
"48 176 OFFCURVE",
"135 35 OFFCURVE",
"245 35 CURVE SMOOTH"
);
}
);
width = 600;
},
{
associatedMasterId = "E2083702-67E7-471D-AE09-DB685EF5235E";
layerId = "0DC3E269-1C53-42BE-B0C5-8F98C9D30E53";
name = "Nov 22 18, 13:42";
paths = (
{
closed = 1;
nodes = (
"502 35 OFFCURVE",
"618 176 OFFCURVE",
"618 350 CURVE SMOOTH",
"618 524 OFFCURVE",
"502 665 OFFCURVE",
"360 665 CURVE SMOOTH",
"217 665 OFFCURVE",
"101 524 OFFCURVE",
"101 350 CURVE SMOOTH",
"101 176 OFFCURVE",
"217 35 OFFCURVE",
"360 35 CURVE SMOOTH"
);
},
{
closed = 0;
nodes = (
"202 113 LINE",
"516 598 LINE"
);
}
);
width = 600;
},
{
associatedMasterId = "E2083702-67E7-471D-AE09-DB685EF5235E";
layerId = "0FC4C666-EBC5-4DAA-9752-09A99E85CA44";
name = "Dec 13 18, 17:11";
paths = (
{
closed = 1;
nodes = (
"522 35 OFFCURVE",
"620 176 OFFCURVE",
"620 350 CURVE SMOOTH",
"620 524 OFFCURVE",
"522 665 OFFCURVE",
"360 665 CURVE SMOOTH",
"197 665 OFFCURVE",
"99 524 OFFCURVE",
"99 350 CURVE SMOOTH",
"99 176 OFFCURVE",
"197 35 OFFCURVE",
"360 35 CURVE SMOOTH"
);
}
);
width = 600;
}
);
},
{
glyphname = three.alt1;
lastChange = "2019-01-25 15:45:45 +0000";
layers = (
{
layerId = "E2083702-67E7-471D-AE09-DB685EF5235E";
paths = (
{
closed = 1;
nodes = (
"378 315 LINE SMOOTH",
"440 315 OFFCURVE",
"490 262 OFFCURVE",
"490 196 CURVE SMOOTH",
"490 125 OFFCURVE",
"410 70 OFFCURVE",
"301 70 CURVE SMOOTH",
"187 70 OFFCURVE",
"106 104 OFFCURVE",
"100 148 CURVE SMOOTH",
"98 166 OFFCURVE",
"83 179 OFFCURVE",
"65 179 CURVE SMOOTH",
"46 179 OFFCURVE",
"30 163 OFFCURVE",
"30 144 CURVE SMOOTH",
"30 142 OFFCURVE",
"30 141 OFFCURVE",
"30 139 CURVE SMOOTH",
"42 52 OFFCURVE",
"149 0 OFFCURVE",
"301 0 CURVE SMOOTH",
"449 0 OFFCURVE",
"560 83 OFFCURVE",
"560 196 CURVE SMOOTH",
"560 260 OFFCURVE",
"530 316 OFFCURVE",
"484 350 CURVE",
"530 384 OFFCURVE",
"560 440 OFFCURVE",
"560 504 CURVE SMOOTH",
"560 616 OFFCURVE",
"448 700 OFFCURVE",
"301 700 CURVE SMOOTH",
"149 700 OFFCURVE",
"42 648 OFFCURVE",
"30 561 CURVE SMOOTH",
"30 559 OFFCURVE",
"30 558 OFFCURVE",
"30 556 CURVE SMOOTH",
"30 537 OFFCURVE",
"46 521 OFFCURVE",
"65 521 CURVE SMOOTH",
"83 521 OFFCURVE",
"98 534 OFFCURVE",
"100 552 CURVE SMOOTH",
"106 596 OFFCURVE",
"187 630 OFFCURVE",
"301 630 CURVE SMOOTH",
"409 630 OFFCURVE",
"490 575 OFFCURVE",
"490 504 CURVE SMOOTH",
"490 437 OFFCURVE",
"440 385 OFFCURVE",
"378 385 CURVE SMOOTH",
"209 385 LINE SMOOTH",
"190 385 OFFCURVE",
"174 369 OFFCURVE",
"174 350 CURVE SMOOTH",
"174 331 OFFCURVE",
"190 315 OFFCURVE",
"209 315 CURVE SMOOTH"
);
}
);
width = 590;
},
{
associatedMasterId = "E2083702-67E7-471D-AE09-DB685EF5235E";
layerId = "19B68D3A-EF5F-478B-87B3-0F5A124BDBFA";
name = "Dec 13 18, 17:03";
paths = (
{
closed = 0;
nodes = (
"67 104 LINE SMOOTH",
"67 23 OFFCURVE",
"192 0 OFFCURVE",
"328 0 CURVE SMOOTH",
"461 0 OFFCURVE",
"533 86 OFFCURVE",
"531 180 CURVE SMOOTH",
"530 273 OFFCURVE",
"482 333 OFFCURVE",
"397 333 CURVE",
"176 333 LINE",
"397 333 LINE",
"482 333 OFFCURVE",
"530 392 OFFCURVE",
"531 485 CURVE SMOOTH",
"533 579 OFFCURVE",
"461 665 OFFCURVE",
"328 665 CURVE SMOOTH",
"192 665 OFFCURVE",
"67 642 OFFCURVE",
"67 561 CURVE SMOOTH"
);
}
);
width = 600;
},
{
associatedMasterId = "E2083702-67E7-471D-AE09-DB685EF5235E";
layerId = "691F5D5A-6CFC-4AF1-8264-74F6239DDC33";
name = "Dec 13 18, 17:04";
paths = (
{
closed = 0;
nodes = (
"67 144 LINE SMOOTH",
"77 67 OFFCURVE",
"193 35 OFFCURVE",
"303 35 CURVE SMOOTH",
"433 35 OFFCURVE",
"527 105 OFFCURVE",
"527 196 CURVE SMOOTH",
"527 283 OFFCURVE",
"460 350 OFFCURVE",
"380 350 CURVE",
"180 350 LINE",
"380 350 LINE",
"460 350 OFFCURVE",
"527 416 OFFCURVE",
"527 504 CURVE SMOOTH",
"527 594 OFFCURVE",
"433 665 OFFCURVE",
"303 665 CURVE SMOOTH",
"193 665 OFFCURVE",
"77 633 OFFCURVE",
"67 556 CURVE SMOOTH"
);
}
);
visible = 1;
width = 600;
},
{
associatedMasterId = "E2083702-67E7-471D-AE09-DB685EF5235E";
layerId = "7FB2E9E5-EB58-4CED-BF53-F4FA936AC383";
name = "Dec 13 18, 17:04";
paths = (
{
closed = 0;
nodes = (
"67 134 LINE SMOOTH",
"77 57 OFFCURVE",
"185 35 OFFCURVE",
"314 35 CURVE SMOOTH",
"440 35 OFFCURVE",
"528 116 OFFCURVE",
"527 206 CURVE SMOOTH",
"526 304 OFFCURVE",
"460 350 OFFCURVE",
"380 350 CURVE",
"180 350 LINE",
"380 350 LINE",
"460 350 OFFCURVE",
"526 396 OFFCURVE",
"527 494 CURVE SMOOTH",
"528 584 OFFCURVE",
"440 665 OFFCURVE",
"314 665 CURVE SMOOTH",
"185 665 OFFCURVE",
"77 643 OFFCURVE",
"67 566 CURVE SMOOTH"
);
}
);
width = 600;
}
);
},
